SplineFontDB: 1.0
FontName: Norasi-BoldOblique
FullName: Norasi Bold Oblique
FamilyName: Norasi
Weight: Bold
Copyright: Copyright (c) National Font Project NECTEC. Yannis Haralambous, Virach Sornlertlamvanich and Anutara Tantraporn, 1999. All rights reserved.\n\nModified by TLWG
Version: 1.1 : May 12, 2003
ItalicAngle: -12
UnderlinePosition: -100
UnderlineWidth: 50
Ascent: 1638
Descent: 410
NeedsXUIDChange: 1
FSType: 0
PfmFamily: 17
TTFWeight: 700
TTFWidth: 5
Panose: 2 0 5 6 0 0 0 2 0 4
LineGap: 18
VLineGap: 0
LangName: 1033 "" "" "" "TheOmegaProject(v.beta1).YannisHaralambous,VirachSornlertlamvanichandAnutaraTantraporn: Omega3: 1999" "" "" "" "Norasi Bold is a trademark of NECTEC. Yannis Haralambous, Virach Sornlertlamvanich and Anutara Tantraporn." "" "Yannis Haralambous, Virach Sornlertlamvanich and Anutara Tantraporn" "This font was developed under the National Font Project at NECTEC as to be a free licensed font for Thai users and developers." "www.nectec.or.th/sll/" 
Encoding: compacted
OldEncoding: iso8859_1
DisplaySize: -72
AntiAlias: 1
WinInfo: 160 8 2
BeginPrivate: 3
BlueValues 41 [-27 0 696 727 770 800 926 944 1059 1059]
OtherBlues 11 [-326 -299]
ForceBold 4 true
EndPrivate
BeginChars: 224 223
StartChar: exclam
Encoding: 2 33
OldEncoding: 33
Width: 262
VWidth: 1000
Flags: W
Fore
221 74 m 0
 216 51 203 31 184 15 c 0
 165 -0 145 -8 125 -8 c 0
 76 -8 57 19 70 74 c 0
 79 126 109 156 160 164 c 1
 212 164 232 134 221 74 c 0
375 819 m 1
 362 768 l 1
 199 238 l 1
 156 238 l 1
 171 348 183 442 191 519 c 0
 200 596 208 664 215 721 c 0
 216 737 218 753 219 768 c 0
 225 813 l 0
 246 900 279 944 326 944 c 0
 376 944 393 905 377 825 c 1
 375 819 l 1
EndSplineSet
EndChar
StartChar: quotedbl
Encoding: 3 34
OldEncoding: 34
Width: 475
VWidth: 1000
Flags: W
Fore
588 797 m 1
 489 537 l 1
 430 537 l 1
 431 594 433 640 434 675 c 0
 436 710 437 737 438 756 c 0
 440 775 441 788 441 797 c 0
 442 805 443 812 444 817 c 0
 454 864 483 887 532 887 c 0
 580 887 600 864 592 817 c 2
 588 797 l 1
371 797 m 1
 270 537 l 1
 213 537 l 1
 214 594 216 640 217 675 c 0
 218 710 220 737 221 756 c 0
 223 775 224 788 224 797 c 0
 225 805 226 812 227 817 c 0
 237 864 266 887 315 887 c 0
 363 887 383 864 375 817 c 2
 371 797 l 1
EndSplineSet
EndChar
StartChar: numbersign
Encoding: 4 35
OldEncoding: 35
Width: 747
VWidth: 1000
Flags: W
HStem: 0 21G<127 242 383 500> 291 110<114 227 387 483 641 745> 545 110<204 324 479 577 731 834> 906 20G<463 575 713 827>
DStem: 227 291 346 291 127 0 242 0 324 545 440 545 272 401 387 401 463 926 575 926 365 655 479 655 483 291 600 291 383 0 500 0 578 545 696 545 526 401 641 401 713 926 827 926 616 655 731 655
Fore
387 401 m 1
 526 401 l 1
 578 545 l 1
 440 545 l 1
 387 401 l 1
834 545 m 1
 696 545 l 1
 641 401 l 1
 770 401 l 1
 745 291 l 1
 600 291 l 1
 500 0 l 1
 383 0 l 1
 483 291 l 1
 346 291 l 1
 242 0 l 1
 127 0 l 1
 227 291 l 1
 90 291 l 1
 115 401 l 1
 272 401 l 1
 324 545 l 1
 182 545 l 1
 205 655 l 1
 365 655 l 1
 463 926 l 1
 575 926 l 1
 479 655 l 1
 616 655 l 1
 713 926 l 1
 827 926 l 1
 731 655 l 1
 856 655 l 1
 834 545 l 1
EndSplineSet
EndChar
StartChar: dollar
Encoding: 5 36
OldEncoding: 36
Width: 692
VWidth: 1000
Flags: W
DStem: 299 0 383 4 274 -117 358 -117 391 436 465 389 315 76 399 80 483 879 569 881 428 621 504 571 522 1047 606 1047 502 958 586 954
Fore
428 621 m 1
 483 879 l 1
 414 862 371 821 356 756 c 0
 354 741 354 726 356 711 c 0
 359 696 364 685 371 678 c 2
 428 621 l 1
547 227 m 0
 555 267 549 302 528 332 c 0
 523 337 515 344 506 353 c 0
 496 362 483 374 465 389 c 1
 399 80 l 1
 481 98 530 147 547 227 c 0
696 260 m 0
 665 118 560 33 383 4 c 1
 358 -117 l 1
 274 -117 l 1
 299 0 l 1
 213 4 135 31 66 80 c 1
 111 289 l 1
 166 289 l 1
 166 155 216 84 315 76 c 1
 391 436 l 1
 360 459 333 480 311 499 c 0
 289 517 271 535 256 551 c 1
 215 606 201 665 215 729 c 0
 229 799 268 855 332 899 c 0
 359 917 386 930 414 940 c 0
 441 950 470 956 502 958 c 1
 522 1047 l 1
 606 1047 l 1
 586 954 l 1
 676 938 l 2
 698 934 719 924 740 908 c 0
 762 893 776 878 782 864 c 1
 745 694 l 1
 690 694 l 1
 694 803 654 866 569 881 c 1
 504 571 l 1
 602 500 l 1
 664 440 l 1
 700 390 711 330 696 260 c 0
EndSplineSet
MinimumDistance: x27,-1 
EndChar
StartChar: percent
Encoding: 6 37
OldEncoding: 37
Width: 1093
VWidth: 1000
Flags: W
HStem: -14 21G<215 324> 0 78<760 799> 399 82<301 348> 467 82<988 1008> 805 72<746 768>
DStem: 860 821 1083 969 215 -14 324 -14
Fore
612 782 m 0
 615 793 615 810 612 831 c 1
 592 840 573 850 555 862 c 2
 541 872 l 1
 500 868 452 829 397 754 c 0
 371 717 350 683 334 652 c 0
 317 622 307 593 301 567 c 0
 289 510 304 481 348 481 c 0
 403 481 458 517 514 590 c 0
 540 623 561 655 578 687 c 0
 594 719 606 751 612 782 c 0
1057 369 m 0
 1064 396 1062 419 1053 438 c 0
 1043 457 1026 467 1001 467 c 0
 955 467 900 425 838 340 c 1
 787 266 757 208 748 164 c 0
 735 106 752 78 799 78 c 0
 849 78 903 113 961 184 c 0
 988 216 1009 246 1024 276 c 0
 1039 307 1050 337 1057 369 c 0
1135 379 m 0
 1115 290 1072 208 1006 133 c 0
 929 44 847 0 760 0 c 0
 697 0 654 19 630 57 c 0
 606 96 600 145 612 207 c 0
 630 286 679 363 758 438 c 0
 840 512 921 549 1001 549 c 0
 1115 549 1159 492 1135 379 c 0
1083 969 m 1
 324 -14 l 1
 215 -14 l 1
 860 821 l 1
 821 810 785 805 754 805 c 0
 741 805 730 805 719 805 c 0
 708 805 697 806 686 809 c 1
 686 778 l 1
 679 747 669 716 656 685 c 0
 643 654 625 623 602 592 c 0
 593 577 576 557 553 532 c 0
 474 444 390 399 301 399 c 0
 244 399 204 419 181 459 c 0
 159 498 154 547 166 604 c 0
 182 686 230 765 309 840 c 0
 387 913 469 950 555 950 c 0
 588 950 622 937 657 909 c 1
 701 887 736 877 762 877 c 0
 830 877 905 907 987 969 c 1
 1083 969 l 1
EndSplineSet
MinimumDistance: x25,-1 
EndChar
StartChar: ampersand
Encoding: 7 38
OldEncoding: 38
Width: 1058
VWidth: 1000
Flags: W
HStem: 868 76<665 683>
Fore
733 772 m 0
 740 799 737 822 725 841 c 0
 713 859 694 868 668 868 c 0
 613 868 578 835 563 768 c 0
 558 743 555 718 556 691 c 0
 557 665 561 636 569 604 c 1
 666 653 721 709 733 772 c 0
373 86 m 0
 416 86 476 111 551 160 c 1
 529 195 508 238 487 287 c 0
 467 336 446 391 426 453 c 1
 334 387 l 1
 311 367 293 345 281 324 c 0
 268 302 260 281 256 260 c 0
 246 215 253 175 274 139 c 0
 296 104 329 86 373 86 c 0
1063 158 m 1
 1048 126 1028 98 1004 74 c 1
 969 45 936 23 903 8 c 0
 870 -7 836 -14 801 -14 c 0
 730 -14 661 23 594 96 c 1
 502 37 l 2
 488 29 472 21 454 14 c 0
 435 8 416 2 395 -2 c 0
 375 -6 354 -9 334 -11 c 0
 313 -13 294 -14 276 -14 c 0
 201 -14 146 4 111 42 c 0
 75 80 66 136 82 211 c 0
 106 324 201 424 365 510 c 2
 408 532 l 1
 401 588 398 629 398 653 c 0
 399 678 401 698 403 713 c 0
 410 744 422 774 439 802 c 0
 456 830 477 854 502 876 c 0
 526 897 554 913 584 926 c 0
 614 938 645 944 678 944 c 0
 734 944 778 929 811 898 c 0
 844 867 854 823 842 766 c 0
 829 703 792 649 729 602 c 0
 718 593 701 582 678 569 c 0
 655 557 625 543 590 526 c 1
 614 440 649 362 692 291 c 1
 736 336 770 376 794 412 c 0
 817 447 832 477 838 502 c 0
 844 530 819 545 762 545 c 1
 774 610 l 1
 1106 610 l 1
 1094 547 l 1
 1073 544 1056 541 1041 538 c 0
 1027 534 1016 531 1010 528 c 0
 992 522 971 503 946 473 c 2
 901 414 l 2
 874 378 846 344 817 311 c 0
 788 279 760 247 731 217 c 1
 749 175 782 144 831 125 c 1
 842 118 859 115 883 115 c 0
 909 115 930 119 948 129 c 0
 958 132 968 139 979 150 c 0
 990 160 1005 175 1024 193 c 1
 1063 158 l 1
EndSplineSet
EndChar
StartChar: quotesingle
Encoding: 8 39
OldEncoding: 39
Width: 276
VWidth: 1000
Flags: W
Fore
354 899 m 0
 352 902 347 904 341 904 c 0
 335 905 328 905 322 905 c 0
 298 905 276 897 256 881 c 0
 236 864 223 844 217 819 c 0
 212 796 216 777 230 761 c 0
 245 745 264 737 287 737 c 0
 294 737 299 738 304 738 c 0
 319 741 l 1
 317 731 l 2
 313 711 302 691 283 672 c 0
 264 653 244 637 225 625 c 0
 216 618 208 613 203 611 c 0
 197 609 195 608 195 608 c 1
 203 557 l 1
 203 557 212 561 229 569 c 0
 247 578 268 590 291 607 c 0
 314 624 337 646 358 672 c 0
 380 698 395 729 403 766 c 0
 412 800 410 828 399 851 c 0
 388 873 373 890 354 899 c 0
EndSplineSet
EndChar
StartChar: parenleft
Encoding: 9 40
OldEncoding: 40
Width: 430
VWidth: 1000
Flags: W
Fore
305 -248 m 1
 208 -177 143 -87 110 20 c 0
 76 128 74 248 102 381 c 0
 156 634 312 834 571 983 c 1
 590 932 l 1
 507 873 444 816 401 760 c 0
 384 738 367 712 352 681 c 0
 337 650 323 618 309 584 c 0
 296 550 284 515 273 479 c 0
 263 444 255 410 248 379 c 0
 230 297 219 237 216 198 c 0
 213 159 213 127 217 102 c 0
 227 35 241 -23 259 -72 c 0
 278 -121 309 -163 352 -199 c 1
 305 -248 l 1
EndSplineSet
EndChar
StartChar: parenright
Encoding: 10 41
OldEncoding: 41
Width: 430
VWidth: 1000
Flags: W
Fore
16 -250 m 1
 145 -179 248 -89 328 18 c 0
 407 126 460 246 487 379 c 0
 541 631 470 832 274 981 c 1
 236 930 l 1
 290 871 328 814 350 758 c 0
 358 736 364 710 366 679 c 0
 368 648 368 616 367 582 c 0
 365 547 362 513 357 477 c 0
 353 442 347 408 340 377 c 0
 332 336 324 301 316 271 c 0
 309 242 302 217 295 196 c 0
 288 174 282 156 275 141 c 0
 269 126 262 113 254 100 c 0
 217 33 179 -25 139 -74 c 0
 100 -123 50 -165 -10 -201 c 1
 16 -250 l 1
EndSplineSet
EndChar
StartChar: asterisk
Encoding: 11 42
OldEncoding: 42
Width: 608
VWidth: 1000
Flags: W
Fore
657 596 m 0
 648 603 636 608 622 612 c 0
 607 616 593 621 579 625 c 0
 564 629 551 633 538 638 c 0
 525 643 514 648 506 653 c 1
 517 659 530 663 545 667 c 0
 560 670 575 674 592 678 c 0
 608 682 624 686 639 691 c 0
 654 696 668 701 680 707 c 0
 726 730 743 760 729 799 c 0
 714 837 684 844 639 819 c 0
 627 814 614 806 601 796 c 0
 588 785 575 774 561 763 c 0
 547 751 534 740 521 730 c 0
 508 720 496 712 485 707 c 1
 488 717 493 730 500 744 c 0
 507 759 513 773 520 788 c 0
 527 803 534 819 541 834 c 0
 547 849 552 862 555 874 c 0
 560 898 559 915 552 928 c 0
 544 940 528 946 504 946 c 0
 481 946 463 940 451 928 c 0
 438 915 429 898 424 874 c 0
 418 850 418 822 422 790 c 0
 426 757 426 730 422 707 c 1
 414 712 406 720 397 730 c 0
 389 740 381 751 372 763 c 0
 345 796 l 0
 336 806 327 814 317 819 c 0
 282 844 248 837 217 799 c 0
 188 760 192 730 227 707 c 0
 237 701 249 696 263 691 c 0
 278 686 292 682 306 678 c 0
 321 674 335 670 348 667 c 0
 362 663 373 659 381 653 c 1
 370 648 357 643 341 638 c 0
 325 633 309 629 293 625 c 0
 276 621 261 616 246 612 c 0
 231 608 217 603 205 596 c 0
 160 573 143 542 154 504 c 0
 169 466 199 459 246 483 c 0
 258 490 271 499 284 509 c 0
 297 519 310 530 324 541 c 0
 337 552 351 562 364 572 c 0
 376 583 388 591 399 596 c 1
 397 585 392 572 385 558 c 0
 378 544 371 529 364 514 c 0
 356 499 349 484 343 470 c 0
 337 456 332 442 330 430 c 0
 324 406 325 387 333 375 c 0
 340 362 356 356 379 356 c 0
 403 356 422 362 434 375 c 0
 446 387 455 406 461 430 c 0
 464 442 465 456 464 470 c 0
 463 484 463 499 462 514 c 0
 461 529 460 544 460 558 c 0
 459 572 460 585 463 596 c 1
 471 591 479 583 487 572 c 0
 496 562 504 551 513 540 c 0
 522 528 531 517 540 507 c 0
 549 497 558 489 567 483 c 0
 603 459 636 466 666 504 c 0
 682 524 689 542 687 557 c 0
 685 572 675 585 657 596 c 0
EndSplineSet
EndChar
StartChar: plus
Encoding: 12 43
OldEncoding: 43
Width: 792
VWidth: 1000
Flags: W
HStem: 0 21G<344 451> 311 105<122 410 539 823> 705 20G<498 604>
DStem: 410 311 516 311 344 0 451 0 498 725 604 725 432 416 539 416
Fore
823 311 m 1
 516 311 l 1
 451 0 l 1
 344 0 l 1
 410 311 l 1
 100 311 l 1
 123 416 l 1
 432 416 l 1
 498 725 l 1
 604 725 l 1
 539 416 l 1
 846 416 l 1
 823 311 l 1
EndSplineSet
MinimumDistance: x9,-1 
EndChar
StartChar: comma
Encoding: 13 44
OldEncoding: 44
Width: 290
VWidth: 1000
Flags: W
Fore
197 158 m 0
 194 160 189 162 183 163 c 0
 177 163 171 164 164 164 c 0
 141 164 119 156 98 139 c 0
 78 123 65 102 59 78 c 0
 54 55 58 35 73 19 c 0
 87 4 106 -4 129 -4 c 0
 136 -4 142 -4 146 -3 c 0
 151 -2 156 -1 162 0 c 1
 160 -10 l 2
 156 -31 144 -51 125 -70 c 0
 106 -89 87 -104 68 -117 c 0
 58 -124 51 -128 45 -130 c 0
 40 -132 37 -133 37 -133 c 1
 45 -184 l 1
 45 -184 54 -180 72 -172 c 0
 89 -164 110 -151 134 -134 c 0
 158 -117 181 -96 203 -70 c 0
 225 -44 240 -12 248 25 c 0
 255 59 253 87 242 110 c 0
 231 132 216 148 197 158 c 0
EndSplineSet
EndChar
StartChar: hyphen
Encoding: 14 45
OldEncoding: 45
Width: 571
VWidth: 1000
Flags: W
HStem: 170 68<112 543>
Fore
543 170 m 1
 98 170 l 1
 113 238 l 1
 557 238 l 1
 543 170 l 1
EndSplineSet
EndChar
StartChar: period
Encoding: 15 46
OldEncoding: 46
Width: 249
VWidth: 1000
Flags: W
Fore
217 66 m 0
 212 44 199 26 179 11 c 0
 159 -3 139 -10 119 -10 c 0
 98 -10 82 -3 69 11 c 0
 56 26 52 44 57 66 c 0
 61 87 73 106 91 122 c 0
 110 138 130 145 152 145 c 0
 172 145 189 137 203 121 c 0
 216 104 221 86 217 66 c 0
EndSplineSet
EndChar
StartChar: slash
Encoding: 16 47
OldEncoding: 47
Width: 501
VWidth: 1000
Flags: W
DStem: 594 977 702 977 -45 -240 61 -240
Fore
702 977 m 1
 61 -240 l 1
 -45 -240 l 1
 594 977 l 1
 702 977 l 1
EndSplineSet
EndChar
StartChar: zero
Encoding: 17 48
OldEncoding: 48
Width: 722
VWidth: 1000
Flags: W
HStem: -16 67<356 382> 877 67<540 561>
Fore
610 463 m 0
 670 739 649 877 547 877 c 0
 447 877 367 739 307 463 c 0
 250 188 271 51 371 51 c 0
 473 51 553 188 610 463 c 0
774 463 m 0
 762 404 746 350 726 300 c 0
 706 250 681 204 651 162 c 0
 569 43 471 -16 356 -16 c 0
 298 -16 252 -1 218 29 c 0
 185 59 160 97 145 144 c 0
 130 191 124 243 125 299 c 0
 126 355 132 410 143 463 c 0
 154 515 171 569 195 626 c 0
 218 682 247 734 282 781 c 0
 316 828 357 867 404 898 c 0
 452 929 504 944 561 944 c 0
 677 944 750 884 778 764 c 0
 800 679 799 579 774 463 c 0
EndSplineSet
EndChar
StartChar: one
Encoding: 18 49
OldEncoding: 49
Width: 448
VWidth: 1000
Flags: W
HStem: 0 55<51.0627 80.2814 406 424>
DStem: 317 752 506 940 188 141 330 119
Fore
424 0 m 1
 39 0 l 1
 51 55 l 1
 95 55 127 61 146 72 c 0
 166 83 180 106 188 141 c 1
 317 752 l 1
 323 782 318 797 303 797 c 0
 298 797 260 784 190 760 c 1
 201 813 l 1
 471 946 l 1
 506 940 l 1
 330 119 l 2
 323 87 326 68 340 61 c 1
 340 63 l 1
 355 58 387 55 436 55 c 1
 424 0 l 1
EndSplineSet
EndChar
StartChar: two
Encoding: 19 50
OldEncoding: 50
Width: 708
VWidth: 1000
Flags: W
HStem: 0 135<262 547> 811 133<451 545>
DStem: 348 301 500 344 53 39 262 135
Fore
715 213 m 1
 588 0 l 1
 45 0 l 1
 53 39 l 1
 348 301 l 2
 483 421 563 532 586 635 c 0
 598 692 593 736 569 766 c 0
 546 796 507 811 451 811 c 0
 407 811 367 793 332 758 c 0
 307 735 276 692 238 629 c 1
 182 645 l 1
 216 737 264 809 325 863 c 0
 385 917 459 944 545 944 c 0
 582 944 614 938 642 925 c 0
 670 912 693 894 712 870 c 0
 730 847 742 820 749 787 c 0
 755 755 754 721 745 684 c 0
 725 584 643 471 500 344 c 2
 262 135 l 1
 535 135 l 2
 562 135 584 141 602 154 c 0
 608 158 615 166 626 178 c 0
 636 190 650 208 668 231 c 1
 715 213 l 1
EndSplineSet
MinimumDistance: x17,-1 
EndChar
StartChar: three
Encoding: 20 51
OldEncoding: 51
Width: 634
VWidth: 1000
Flags: W
HStem: 827 117<459 526>
Fore
657 307 m 0
 636 203 578 122 485 61 c 0
 446 34 402 14 355 2 c 0
 308 -10 259 -16 207 -16 c 0
 189 -16 173 -15 160 -12 c 0
 146 -10 134 -6 123 -2 c 0
 108 3 93 12 79 25 c 0
 65 37 60 54 66 76 c 0
 71 99 82 115 97 125 c 0
 113 134 129 139 145 139 c 0
 155 139 167 137 182 131 c 0
 197 126 214 115 233 100 c 0
 253 87 269 77 284 72 c 0
 298 66 309 63 317 63 c 0
 367 63 409 83 444 123 c 0
 480 160 502 203 512 254 c 0
 519 285 520 310 514 328 c 0
 503 365 480 393 445 414 c 0
 411 434 358 444 287 444 c 1
 291 494 l 1
 448 540 536 611 555 707 c 0
 563 743 558 773 540 795 c 0
 521 816 494 827 459 827 c 0
 389 827 318 779 246 682 c 1
 193 698 l 1
 277 862 388 944 526 944 c 0
 589 944 638 927 674 894 c 0
 709 861 720 812 707 748 c 0
 690 677 641 614 559 561 c 1
 574 552 587 542 599 532 c 0
 611 523 621 513 629 504 c 0
 649 481 661 451 664 415 c 0
 666 379 664 343 657 307 c 0
EndSplineSet
EndChar
StartChar: four
Encoding: 21 52
OldEncoding: 52
Width: 667
VWidth: 1000
Flags: W
HStem: 0 21G<371 510> 221 119<186 418 582 684> 906 20G<618 707>
DStem: 418 221 557 221 371 0 510 0 520 709 707 926 440 340 582 340 618 926 520 709 78 328 186 340
Fore
440 340 m 1
 520 709 l 1
 186 340 l 1
 440 340 l 1
684 221 m 1
 557 221 l 1
 510 0 l 1
 371 0 l 1
 418 221 l 1
 55 221 l 1
 78 328 l 1
 618 926 l 1
 707 926 l 1
 582 340 l 1
 709 340 l 1
 684 221 l 1
EndSplineSet
EndChar
StartChar: five
Encoding: 22 53
OldEncoding: 53
Width: 651
VWidth: 1000
Flags: W
HStem: -16 166<135 213> 791 139<425 686>
DStem: 422 930 426 791 201 596 367 707
Fore
807 944 m 1
 723 811 l 2
 713 797 696 791 670 791 c 2
 426 791 l 1
 367 707 l 1
 438 694 494 675 537 648 c 0
 579 622 610 593 629 561 c 0
 646 534 657 496 660 449 c 0
 664 401 662 358 653 319 c 0
 633 216 578 133 487 72 c 0
 401 13 310 -16 213 -16 c 0
 90 -16 35 16 47 80 c 0
 53 103 65 120 84 132 c 0
 103 144 120 150 135 150 c 0
 168 150 202 134 238 102 c 0
 251 90 264 81 276 76 c 0
 289 70 300 68 309 68 c 0
 360 68 404 91 442 137 c 0
 461 159 477 183 488 208 c 0
 500 233 509 261 516 291 c 0
 537 381 510 449 436 496 c 0
 405 515 371 530 335 541 c 0
 299 552 261 557 221 557 c 0
 202 557 195 567 199 586 c 2
 201 596 l 1
 422 930 l 1
 709 930 l 2
 724 930 745 945 774 975 c 1
 807 944 l 1
EndSplineSet
MinimumDistance: x3,-1 
EndChar
StartChar: six
Encoding: 23 54
OldEncoding: 54
Width: 675
VWidth: 1000
Flags: W
HStem: -16 71<331 369> 508 96<428 506>
Fore
532 254 m 0
 569 423 535 508 428 508 c 0
 406 508 386 506 368 501 c 0
 349 496 332 487 317 475 c 1
 311 463 303 447 296 427 c 0
 288 407 281 384 274 356 c 0
 268 325 262 291 259 256 c 0
 256 221 257 188 262 159 c 0
 268 129 279 105 295 85 c 0
 311 65 336 55 369 55 c 0
 392 55 412 61 430 72 c 0
 448 83 464 97 477 116 c 0
 491 134 502 155 511 179 c 0
 520 203 527 228 532 254 c 0
698 307 m 0
 689 262 673 220 651 180 c 0
 629 141 603 106 571 77 c 0
 540 47 504 25 464 8 c 0
 424 -8 380 -16 332 -16 c 0
 274 -16 229 -4 197 20 c 0
 164 45 140 77 125 117 c 0
 110 156 103 201 103 252 c 0
 104 302 110 353 121 403 c 0
 137 477 168 547 212 612 c 0
 256 678 310 735 372 784 c 0
 434 834 502 872 578 901 c 0
 653 930 728 944 803 944 c 1
 799 891 l 1
 696 873 607 836 530 779 c 0
 454 723 394 650 350 561 c 1
 361 567 371 571 380 574 c 0
 389 578 399 582 410 586 c 0
 445 598 477 604 506 604 c 0
 545 604 580 597 608 582 c 0
 637 567 659 546 676 519 c 0
 692 493 702 461 706 425 c 0
 709 389 707 350 698 307 c 0
EndSplineSet
EndChar
StartChar: seven
Encoding: 24 55
OldEncoding: 55
Width: 655
VWidth: 1000
Flags: W
HStem: -8 21G<221 346> 795 133<381 651>
DStem: 651 795 819 883 221 -8 346 -8
Fore
819 883 m 1
 346 -8 l 1
 221 -8 l 1
 651 795 l 1
 391 795 l 2
 358 795 330 786 305 770 c 0
 300 767 290 758 278 743 c 0
 265 728 246 707 223 678 c 1
 174 702 l 1
 307 928 l 1
 827 928 l 1
 819 883 l 1
EndSplineSet
EndChar
StartChar: eight
Encoding: 25 56
OldEncoding: 56
Width: 624
VWidth: 1000
Flags: W
HStem: -16 71<302 336>
Fore
584 743 m 0
 592 779 588 808 573 831 c 0
 557 860 529 874 489 874 c 0
 457 874 427 864 399 842 c 0
 372 820 354 791 346 754 c 0
 334 692 367 629 444 563 c 1
 464 575 480 587 494 598 c 0
 507 609 515 616 518 621 c 0
 552 655 574 696 584 743 c 0
483 186 m 0
 493 233 488 269 469 295 c 0
 459 307 445 323 427 342 c 0
 409 361 384 384 354 412 c 1
 332 394 317 381 309 374 c 0
 301 366 295 360 291 354 c 0
 277 339 265 321 255 298 c 0
 245 275 237 252 231 227 c 0
 221 178 224 137 242 104 c 0
 259 72 291 55 336 55 c 0
 371 55 403 68 430 92 c 0
 457 117 475 148 483 186 c 0
625 219 m 0
 616 178 602 143 581 114 c 0
 559 84 535 60 506 41 c 0
 477 22 445 8 411 -2 c 0
 376 -12 340 -16 303 -16 c 0
 269 -16 238 -11 209 -1 c 0
 180 9 156 24 136 44 c 0
 116 64 102 88 93 116 c 0
 84 144 84 176 92 213 c 0
 99 243 107 268 117 289 c 0
 126 309 138 327 152 343 c 0
 165 359 181 374 200 388 c 0
 218 402 240 418 264 436 c 0
 270 439 275 442 281 446 c 0
 286 451 294 456 303 463 c 1
 298 471 292 479 287 485 c 0
 281 492 276 499 272 506 c 0
 257 522 244 538 233 552 c 0
 223 566 214 581 209 597 c 0
 203 613 201 630 201 649 c 0
 201 670 203 694 209 721 c 0
 216 756 229 788 250 815 c 0
 270 842 295 866 323 885 c 0
 351 904 381 919 414 929 c 0
 446 939 479 944 512 944 c 0
 543 944 573 940 600 932 c 0
 627 924 651 911 670 894 c 0
 689 877 702 855 710 829 c 0
 717 803 717 773 711 737 c 0
 698 681 673 637 636 604 c 0
 598 571 554 541 502 512 c 1
 506 507 511 501 517 495 c 0
 523 488 529 483 535 477 c 0
 552 459 568 442 583 425 c 0
 597 408 608 389 616 370 c 0
 625 350 630 328 632 304 c 0
 634 280 631 252 625 219 c 0
EndSplineSet
EndChar
StartChar: nine
Encoding: 26 57
OldEncoding: 57
Width: 677
VWidth: 1000
Flags: W
HStem: 874 70<507 537>
Fore
592 549 m 1
 637 766 609 874 508 874 c 0
 426 874 369 801 338 655 c 0
 332 629 329 602 328 572 c 0
 326 543 329 517 335 494 c 0
 341 470 352 451 368 435 c 0
 383 419 406 412 436 412 c 0
 477 412 518 426 559 455 c 1
 569 459 575 472 580 496 c 1
 592 549 l 1
758 551 m 0
 725 395 650 265 532 160 c 0
 396 35 244 -27 76 -27 c 1
 80 33 l 1
 128 38 174 51 218 70 c 0
 262 89 304 113 343 142 c 0
 382 172 418 205 451 242 c 0
 483 279 511 318 532 360 c 1
 478 333 422 319 365 319 c 0
 287 319 229 348 193 406 c 0
 160 457 152 523 168 602 c 0
 179 650 195 694 216 733 c 0
 237 773 263 808 293 840 c 0
 362 909 444 944 537 944 c 0
 636 944 705 901 743 815 c 0
 775 737 780 649 758 551 c 0
EndSplineSet
EndChar
StartChar: colon
Encoding: 27 58
OldEncoding: 58
Width: 264
VWidth: 1000
Flags: W
HStem: -12 184<125 164> 473 184<227 266>
Fore
170 565 m 0
 163 539 165 517 176 500 c 0
 187 482 204 473 227 473 c 0
 251 473 271 482 290 500 c 0
 308 517 321 539 328 565 c 0
 333 591 330 613 318 631 c 0
 307 649 289 657 266 657 c 0
 243 657 223 649 205 631 c 0
 187 613 175 591 170 565 c 0
66 80 m 0
 60 54 63 32 74 14 c 0
 85 -3 102 -12 125 -12 c 0
 148 -12 169 -3 187 14 c 0
 206 32 218 54 223 80 c 0
 230 106 228 128 216 145 c 0
 204 163 187 172 164 172 c 0
 141 172 120 163 102 145 c 0
 85 128 72 106 66 80 c 0
EndSplineSet
EndChar
StartChar: semicolon
Encoding: 28 59
OldEncoding: 59
Width: 264
VWidth: 1000
Flags: W
HStem: 4 170<123 160> 481 185<219 258>
Fore
195 168 m 0
 192 171 187 172 180 173 c 0
 173 174 167 174 160 174 c 0
 137 174 115 166 94 150 c 0
 74 133 61 113 55 88 c 0
 50 65 54 45 68 29 c 0
 81 12 100 4 123 4 c 0
 134 4 146 5 160 8 c 1
 158 -2 l 2
 154 -23 142 -42 122 -61 c 0
 102 -81 83 -96 63 -109 c 0
 53 -115 45 -120 40 -122 c 0
 35 -124 33 -125 33 -125 c 1
 41 -178 l 1
 41 -178 50 -174 69 -166 c 0
 87 -158 108 -145 131 -127 c 0
 154 -109 177 -87 199 -61 c 0
 221 -35 236 -4 244 33 c 0
 252 68 251 97 240 120 c 0
 229 142 214 158 195 168 c 0
162 573 m 0
 155 547 157 526 168 508 c 0
 179 490 196 481 219 481 c 0
 242 481 263 490 282 508 c 0
 300 526 313 547 319 573 c 0
 325 599 322 621 310 639 c 0
 299 657 281 666 258 666 c 0
 235 666 214 657 197 639 c 0
 179 621 167 599 162 573 c 0
EndSplineSet
EndChar
StartChar: less
Encoding: 29 60
OldEncoding: 60
Width: 792
VWidth: 1000
Flags: W
DStem: 70 311 215 365 727 -18 752 94 891 748 866 635 92 416 215 365
Fore
727 -18 m 1
 70 311 l 1
 92 416 l 1
 891 748 l 1
 866 635 l 1
 215 365 l 1
 752 94 l 1
 727 -18 l 1
EndSplineSet
EndChar
StartChar: equal
Encoding: 30 61
OldEncoding: 61
Width: 806
VWidth: 1000
Flags: W
HStem: 168 98<120 821> 428 98<175 877>
Fore
877 428 m 1
 154 428 l 1
 176 526 l 1
 899 526 l 1
 877 428 l 1
821 168 m 1
 98 168 l 1
 121 266 l 1
 844 266 l 1
 821 168 l 1
EndSplineSet
EndChar
StartChar: greater
Encoding: 31 62
OldEncoding: 62
Width: 790
VWidth: 1000
Flags: W
DStem: 195 635 219 748 729 365 874 416 729 365 852 311 80 94 55 -18
Fore
852 311 m 1
 55 -18 l 1
 80 94 l 1
 729 365 l 1
 195 635 l 1
 219 748 l 1
 874 416 l 1
 852 311 l 1
EndSplineSet
EndChar
StartChar: question
Encoding: 32 63
OldEncoding: 63
Width: 550
VWidth: 1000
Flags: W
HStem: -8 178<266 305> 893 76<426 469>
Fore
676 723 m 0
 683 752 685 780 683 807 c 0
 681 834 672 860 657 885 c 0
 638 918 611 940 574 951 c 0
 538 963 503 969 469 969 c 0
 438 969 407 964 376 953 c 0
 345 943 317 928 291 909 c 0
 265 890 243 867 224 841 c 0
 206 814 193 784 186 752 c 0
 180 716 183 690 198 673 c 0
 212 656 229 647 250 647 c 0
 269 647 287 653 303 665 c 0
 319 676 330 694 334 717 c 1
 336 723 l 2
 339 733 339 744 336 757 c 0
 333 770 328 781 319 791 c 0
 313 797 309 804 307 811 c 0
 306 818 306 823 307 825 c 0
 309 842 323 857 350 872 c 0
 361 879 374 884 388 888 c 0
 402 891 415 893 426 893 c 0
 467 893 495 878 511 848 c 0
 527 818 529 780 518 735 c 0
 513 708 503 678 489 644 c 0
 476 611 455 574 428 535 c 1
 375 449 l 2
 352 413 333 377 319 341 c 0
 306 305 295 267 287 227 c 1
 344 227 l 1
 375 308 399 358 414 377 c 0
 431 399 449 419 467 438 c 0
 485 457 503 477 522 496 c 0
 570 539 606 580 630 618 c 0
 654 657 669 692 676 723 c 0
197 80 m 0
 191 55 195 34 209 17 c 0
 223 0 242 -8 266 -8 c 0
 291 -8 314 0 335 17 c 0
 356 34 369 55 375 80 c 0
 380 104 376 126 362 143 c 0
 349 161 330 170 305 170 c 0
 281 170 258 161 237 143 c 0
 215 126 202 104 197 80 c 0
EndSplineSet
EndChar
StartChar: at
Encoding: 33 64
OldEncoding: 64
Width: 1056
VWidth: 1000
Flags: W
HStem: -16 84<558 592> 680 20G<844 981> 868 76<718 762>
Fore
696 393 m 0
 713 421 728 447 741 474 c 0
 755 501 765 528 772 555 c 0
 780 601 773 625 750 625 c 0
 703 625 658 597 614 541 c 0
 594 513 577 487 562 462 c 0
 548 437 538 410 532 383 c 0
 519 320 534 289 578 289 c 0
 610 289 650 324 696 393 c 0
1124 530 m 0
 1108 447 1070 373 1010 307 c 0
 943 229 867 190 782 190 c 0
 759 190 740 195 725 204 c 0
 710 213 697 225 686 240 c 0
 683 245 681 250 678 255 c 0
 675 260 673 265 672 270 c 1
 633 240 l 2
 614 226 593 214 571 205 c 0
 550 195 529 190 510 190 c 0
 465 190 432 207 412 239 c 0
 391 271 387 317 399 379 c 0
 413 443 450 512 510 586 c 0
 582 676 666 721 760 721 c 0
 784 721 801 715 811 705 c 0
 821 694 827 684 831 676 c 1
 844 700 l 1
 981 700 l 1
 807 338 l 1
 799 305 l 2
 793 283 801 272 821 272 c 0
 847 272 872 281 895 299 c 0
 918 317 939 339 957 365 c 0
 976 390 992 418 1005 449 c 0
 1018 479 1027 505 1032 528 c 0
 1043 576 1042 621 1029 663 c 0
 1016 704 996 740 968 771 c 0
 940 802 906 826 865 843 c 0
 825 860 782 868 737 868 c 0
 676 868 621 856 571 833 c 0
 522 809 479 777 440 736 c 0
 402 696 370 649 344 596 c 0
 318 543 299 487 287 428 c 0
 276 378 275 330 286 286 c 0
 296 241 314 203 341 171 c 0
 368 139 401 114 442 95 c 0
 483 77 529 68 580 68 c 0
 663 68 759 91 868 139 c 1
 885 66 l 1
 815 38 754 18 701 4 c 0
 649 -10 603 -16 563 -16 c 0
 398 -16 276 35 197 139 c 0
 162 184 141 232 133 284 c 0
 125 335 126 387 137 440 c 0
 167 585 241 705 358 801 c 0
 479 896 610 944 754 944 c 0
 877 944 975 907 1049 834 c 0
 1126 757 1152 656 1124 530 c 0
EndSplineSet
EndChar
StartChar: A
Encoding: 34 65
OldEncoding: 65
Width: 1015
VWidth: 1000
Flags: W
HStem: 0 59<35.0313 49.2063 326 332 620 680 991 993> 285 92<424 674> 906 20G<662 737>
DStem: 662 926 614 672 160 135 424 377 662 926 369 285 160 135 283 141
Fore
424 377 m 1
 674 377 l 1
 614 672 l 1
 424 377 l 1
993 0 m 1
 608 0 l 1
 621 59 l 1
 676 59 l 2
 688 59 698 63 706 70 c 0
 713 76 717 83 719 88 c 0
 722 99 722 112 720 128 c 0
 718 144 715 158 713 172 c 2
 688 285 l 1
 369 285 l 1
 283 141 l 1
 277 134 273 127 270 120 c 0
 268 112 265 105 262 98 c 0
 258 72 285 59 344 59 c 1
 332 0 l 1
 23 0 l 1
 35 59 l 1
 58 59 81 67 103 81 c 0
 126 95 145 113 160 135 c 2
 662 926 l 1
 737 926 l 1
 907 166 l 1
 918 124 930 95 942 81 c 0
 954 67 976 59 1006 59 c 1
 993 0 l 1
EndSplineSet
MinimumDistance: x2,-1 
EndChar
StartChar: B
Encoding: 35 66
OldEncoding: 66
Width: 923
VWidth: 1000
Flags: W
HStem: 0 61<59.0313 89.8061> 0 84<430 496> 842 84<547 640>
DStem: 338 762 535 817 211 164 473 526 338 762 453 438 211 164 387 125
Fore
788 674 m 0
 813 786 753 842 608 842 c 2
 549 842 l 2
 543 842 539 834 535 817 c 1
 473 526 l 1
 582 528 l 2
 699 531 768 580 788 674 c 0
729 260 m 0
 748 349 713 404 625 426 c 0
 592 434 535 438 453 438 c 1
 387 125 l 2
 383 107 387 95 399 88 c 2
 397 88 l 2
 411 85 433 84 463 84 c 0
 616 84 705 143 729 260 c 0
928 254 m 0
 909 175 865 113 797 68 c 0
 728 23 646 0 551 0 c 2
 47 0 l 1
 59 61 l 1
 85 61 107 63 124 66 c 0
 141 68 155 73 167 81 c 0
 179 88 188 99 195 112 c 0
 201 125 207 142 211 164 c 1
 338 762 l 1
 345 789 348 811 347 828 c 0
 346 845 335 855 311 858 c 2
 231 868 l 1
 244 926 l 1
 659 926 l 2
 904 926 1009 844 975 682 c 0
 968 646 955 616 935 590 c 0
 915 564 892 541 866 522 c 0
 858 515 848 510 837 505 c 0
 825 500 812 495 799 489 c 1
 909 447 952 369 928 254 c 0
EndSplineSet
MinimumDistance: x3,-1 
EndChar
StartChar: C
Encoding: 36 67
OldEncoding: 67
Width: 942
VWidth: 1000
Flags: W
HStem: -16 90<506 563> 840 90<684 718> 908 20G<995 1065>
Fore
928 170 m 1
 899 133 858 99 805 68 c 0
 760 40 712 19 662 5 c 0
 611 -9 559 -16 506 -16 c 0
 433 -16 370 -6 316 15 c 0
 262 37 220 68 188 111 c 0
 127 198 111 312 139 453 c 0
 154 518 178 580 211 637 c 0
 244 694 289 748 346 797 c 0
 398 842 453 875 510 897 c 0
 567 919 625 930 684 930 c 0
 703 930 723 929 743 927 c 0
 764 925 783 923 800 921 c 0
 817 919 831 916 844 914 c 0
 856 912 864 911 868 909 c 2
 946 885 l 1
 964 886 980 900 995 928 c 1
 1065 928 l 1
 1008 598 l 1
 934 598 l 1
 934 676 914 736 876 777 c 0
 837 819 781 840 709 840 c 0
 618 840 542 799 479 719 c 0
 449 682 423 642 401 598 c 0
 380 554 363 504 352 449 c 0
 328 345 333 257 369 184 c 0
 386 150 410 123 440 103 c 0
 470 84 511 74 563 74 c 0
 662 74 769 121 887 215 c 1
 928 170 l 1
EndSplineSet
EndChar
StartChar: D
Encoding: 37 68
OldEncoding: 68
Width: 1056
VWidth: 1000
Flags: W
HStem: 0 61<63.0313 91.0394> 0 84<420.777 477> 844 84<562 612>
DStem: 332 764 528 805 205 164 383 125
Fore
903 461 m 0
 929 588 912 683 852 748 c 0
 822 779 786 803 743 819 c 0
 701 836 646 844 580 844 c 0
 560 844 548 842 542 839 c 0
 536 835 531 824 528 805 c 1
 383 125 l 2
 379 106 384 94 397 90 c 0
 411 86 424 84 436 84 c 0
 569 84 673 115 749 178 c 0
 824 241 876 335 903 461 c 0
1110 461 m 0
 1084 342 1027 242 938 160 c 0
 822 53 668 0 475 0 c 2
 51 0 l 1
 63 61 l 1
 87 61 106 63 123 66 c 0
 139 68 153 73 163 80 c 0
 173 87 182 97 188 111 c 0
 195 124 201 142 205 164 c 1
 332 764 l 1
 339 793 342 815 341 833 c 0
 340 850 329 859 307 862 c 2
 236 868 l 1
 248 928 l 1
 651 928 l 2
 816 928 939 892 1020 821 c 0
 1068 782 1099 732 1113 672 c 0
 1127 612 1126 541 1110 461 c 0
EndSplineSet
MinimumDistance: x5,-1 
EndChar
StartChar: E
Encoding: 38 69
OldEncoding: 69
Width: 937
VWidth: 1000
Flags: W
HStem: 0 61<63.0626 89.655> 0 86<418 580> 438 94<467 643> 698 21G<881 958> 844 84<561 756>
DStem: 328 764 526 805 201 164 467 532 328 764 446 438 201 164 381 127
Fore
944 262 m 1
 819 0 l 1
 51 0 l 1
 63 61 l 1
 109 61 141 69 160 83 c 0
 179 97 193 124 201 164 c 2
 328 764 l 2
 335 795 337 818 336 831 c 0
 335 845 324 854 303 858 c 2
 236 868 l 1
 248 928 l 1
 1008 928 l 1
 958 698 l 1
 881 698 l 1
 886 767 877 808 854 823 c 0
 831 837 788 844 727 844 c 2
 563 844 l 2
 554 844 545 840 539 831 c 0
 532 823 528 814 526 805 c 1
 467 532 l 1
 641 532 l 2
 692 532 724 539 737 551 c 0
 756 566 776 602 797 659 c 1
 879 659 l 1
 807 313 l 1
 725 313 l 1
 729 373 726 409 715 420 c 0
 704 432 672 438 621 438 c 2
 446 438 l 1
 381 127 l 2
 378 115 381 105 388 97 c 0
 396 90 411 86 434 86 c 2
 543 86 l 2
 621 86 679 96 717 117 c 0
 740 129 764 147 787 171 c 0
 811 195 835 225 858 262 c 1
 944 262 l 1
EndSplineSet
MinimumDistance: x18,-1 
EndChar
StartChar: F
Encoding: 39 70
OldEncoding: 70
Width: 843
VWidth: 1000
Flags: W
HStem: 0 61<61.0626 89.4076 463 469> 442 90<465 637> 698 21G<885 965> 842 84<544 754> 858 68<301 306>
DStem: 326 762 524 811 203 180 465 532 326 762 446 442 203 180 387 164
Fore
965 698 m 1
 885 698 l 1
 893 765 884 806 858 821 c 0
 835 835 793 842 731 842 c 2
 551 842 l 2
 537 842 528 831 524 811 c 2
 465 532 l 1
 635 532 l 2
 681 532 715 541 736 558 c 0
 757 575 776 608 791 657 c 1
 868 657 l 1
 795 311 l 1
 717 311 l 1
 724 362 720 396 706 415 c 0
 691 433 662 442 616 442 c 2
 446 442 l 1
 387 164 l 2
 379 124 381 97 394 83 c 0
 407 69 436 61 481 61 c 1
 469 0 l 1
 49 0 l 1
 61 61 l 1
 113 61 149 70 168 86 c 0
 182 101 193 132 203 180 c 1
 326 762 l 1
 330 784 331 801 331 813 c 0
 330 825 328 835 325 842 c 0
 321 849 317 853 312 855 c 0
 308 857 304 858 301 858 c 2
 233 868 l 1
 246 926 l 1
 1010 926 l 1
 965 698 l 1
EndSplineSet
MinimumDistance: x5,-1 
EndChar
StartChar: G
Encoding: 40 71
OldEncoding: 71
Width: 1038
VWidth: 1000
Flags: W
HStem: 614 271<961 963> 842 88<704 738>
DStem: 803 344 979 358 756 129 924 94
Fore
1090 446 m 1
 1044 442 1020 438 1016 434 c 0
 999 419 987 394 979 358 c 1
 924 94 l 2
 922 86 915 77 901 69 c 0
 887 60 870 52 850 44 c 0
 829 37 807 30 782 24 c 0
 758 17 733 12 709 6 c 0
 673 -1 643 -6 618 -10 c 0
 594 -14 572 -16 553 -16 c 0
 384 -16 263 32 190 129 c 0
 155 178 135 230 131 286 c 0
 127 341 132 402 147 469 c 0
 176 603 245 713 354 801 c 0
 408 843 466 875 530 897 c 0
 595 919 661 930 729 930 c 0
 754 930 782 928 815 925 c 0
 848 921 871 917 885 911 c 2
 961 885 l 1
 969 885 978 889 987 897 c 0
 997 905 1005 916 1012 930 c 1
 1085 930 l 1
 1028 614 l 1
 956 614 l 1
 928 766 852 842 729 842 c 0
 677 842 631 832 591 812 c 0
 551 792 513 760 477 717 c 0
 446 679 420 637 400 592 c 0
 381 547 365 497 354 442 c 0
 343 389 339 340 341 295 c 0
 343 250 355 212 377 180 c 0
 401 143 428 116 458 97 c 0
 487 79 528 70 580 70 c 0
 595 70 612 71 631 74 c 0
 650 76 668 80 686 84 c 0
 728 95 752 110 756 129 c 2
 803 344 l 2
 810 375 812 398 810 412 c 0
 808 425 797 435 778 440 c 0
 766 444 743 446 709 446 c 1
 723 514 l 1
 1104 514 l 1
 1090 446 l 1
EndSplineSet
MinimumDistance: x2,-1 
EndChar
StartChar: H
Encoding: 41 72
OldEncoding: 72
Width: 1077
VWidth: 1000
Flags: W
HStem: 0 61<66 89 471 481 608 632 1015 1024> 424 94<471 809> 869 59<249 262 630 666 792 811 1172 1208>
DStem: 342 786 520 756 211 176 471 518 342 786 451 424 211 176 399 186 809 424 1069 778 758 186 940 176 879 756 1069 778 829 518 940 176
Fore
1208 870 m 1
 1221 928 l 1
 793 928 l 1
 780 870 l 1
 782 870 788 870 800 869 c 0
 811 869 825 867 842 863 c 0
 858 860 869 855 874 848 c 0
 881 840 885 829 887 816 c 0
 888 803 885 783 879 756 c 1
 829 518 l 1
 471 518 l 1
 520 756 l 1
 527 783 533 803 539 816 c 0
 544 829 552 840 563 848 c 0
 573 855 586 860 603 863 c 0
 620 867 635 869 646 869 c 0
 658 870 664 870 666 870 c 1
 678 928 l 1
 250 928 l 1
 238 870 l 1
 240 870 248 870 260 869 c 0
 272 869 287 867 304 863 c 0
 321 860 332 855 338 848 c 0
 345 841 347 831 346 818 c 0
 345 805 343 795 342 786 c 2
 211 176 l 2
 205 152 200 132 196 118 c 0
 191 103 183 91 172 80 c 0
 165 74 153 70 135 68 c 0
 117 65 102 63 89 62 c 0
 76 62 68 61 66 61 c 1
 53 0 l 1
 481 0 l 1
 494 61 l 1
 491 61 483 62 471 62 c 0
 459 63 444 65 427 68 c 0
 410 70 399 74 395 80 c 0
 391 87 389 97 388 110 c 0
 387 123 391 148 399 186 c 2
 451 424 l 1
 809 424 l 1
 758 186 l 2
 750 148 743 123 737 110 c 0
 732 97 724 87 715 80 c 0
 708 74 696 70 678 68 c 0
 660 65 645 63 632 62 c 0
 619 62 611 61 608 61 c 1
 596 0 l 1
 1024 0 l 1
 1036 61 l 1
 1035 61 1028 62 1015 62 c 0
 1002 63 987 65 971 68 c 0
 954 70 944 74 940 80 c 0
 932 91 928 103 930 118 c 0
 931 132 935 152 940 176 c 2
 1069 778 l 2
 1070 785 1074 797 1079 813 c 0
 1085 829 1092 841 1100 848 c 0
 1108 855 1121 860 1140 863 c 0
 1158 867 1174 869 1187 869 c 0
 1200 870 1207 870 1208 870 c 1
EndSplineSet
MinimumDistance: x55,-1 
EndChar
StartChar: I
Encoding: 42 73
OldEncoding: 73
Width: 507
VWidth: 1000
Flags: W
HStem: 0 61<51.0626 80.4408 454 467> 866 60<236 277.519 598 651>
DStem: 322 762 506 762 195 164 379 164
Fore
467 0 m 1
 39 0 l 1
 51 61 l 1
 99 61 132 68 152 81 c 0
 171 94 185 122 195 164 c 1
 322 762 l 2
 326 782 328 800 330 815 c 0
 331 830 330 841 326 848 c 0
 322 857 310 863 290 864 c 0
 270 866 248 866 223 866 c 1
 236 926 l 1
 664 926 l 1
 651 866 l 1
 624 866 601 866 583 864 c 0
 564 863 550 857 541 848 c 0
 528 836 517 807 506 762 c 1
 379 164 l 2
 369 120 371 92 385 80 c 0
 399 68 430 61 479 61 c 1
 467 0 l 1
EndSplineSet
MinimumDistance: x15,-1 
EndChar
StartChar: J
Encoding: 43 74
OldEncoding: 74
Width: 569
VWidth: 1000
Flags: W
HStem: -16 198<151 178> 866 62<321 339 705 729>
DStem: 408 764 588 764 274 139 481 264
Fore
729 866 m 1
 662 866 621 851 606 821 c 0
 601 809 595 790 588 764 c 1
 481 264 l 1
 465 184 433 117 385 66 c 1
 330 11 261 -16 178 -16 c 0
 140 -16 111 -9 90 6 c 0
 57 28 45 58 53 96 c 0
 57 115 69 134 88 154 c 0
 107 173 128 182 152 182 c 0
 184 182 206 172 216 151 c 0
 226 129 229 107 223 84 c 0
 221 76 221 71 223 70 c 0
 226 68 229 68 231 68 c 0
 251 68 265 91 274 139 c 1
 408 764 l 2
 417 808 415 836 401 848 c 0
 388 860 357 866 309 866 c 1
 322 928 l 1
 741 928 l 1
 729 866 l 1
EndSplineSet
EndChar
StartChar: K
Encoding: 44 75
OldEncoding: 75
Width: 1105
VWidth: 1000
Flags: W
HStem: 0 61<74.0626 104.42 473 489 602.063 641.168 1036 1042> 866 62<257 270 652 678 778 801.795 1132 1161>
DStem: 344 762 532 762 221 180 483 532 344 762 457 406 221 180 406 164
Fore
1042 0 m 1
 590 0 l 1
 602 61 l 1
 658 61 690 66 698 74 c 0
 700 75 700 76 700 78 c 0
 700 79 701 81 702 84 c 0
 704 92 702 102 696 114 c 0
 691 125 684 137 676 150 c 2
 475 420 l 1
 457 406 l 1
 406 164 l 2
 401 145 399 128 397 114 c 0
 396 99 399 89 406 82 c 0
 412 71 426 65 446 63 c 0
 467 62 485 61 502 61 c 1
 489 0 l 1
 61 0 l 1
 74 61 l 1
 130 61 169 70 190 88 c 0
 196 92 201 102 206 119 c 0
 211 135 216 156 221 180 c 2
 344 762 l 1
 354 803 352 830 338 845 c 0
 324 859 294 866 246 866 c 1
 258 928 l 1
 690 928 l 1
 678 866 l 1
 655 866 632 865 611 861 c 0
 590 858 575 852 565 844 c 0
 557 837 551 827 546 813 c 0
 541 799 537 782 532 762 c 2
 483 532 l 1
 784 762 l 2
 827 795 850 821 854 842 c 0
 858 858 829 866 766 866 c 1
 778 928 l 1
 1174 928 l 1
 1161 866 l 1
 1142 866 1124 866 1106 864 c 0
 1088 863 1070 858 1051 850 c 0
 1036 843 1019 833 999 819 c 0
 980 806 957 788 930 766 c 2
 637 526 l 1
 942 98 l 2
 950 87 965 79 986 72 c 0
 1007 65 1030 61 1055 61 c 1
 1042 0 l 1
EndSplineSet
MinimumDistance: x30,-1 
EndChar
StartChar: L
Encoding: 45 76
OldEncoding: 76
Width: 909
VWidth: 1000
Flags: W
HStem: 0 61<66.0626 92.1131> 0 86<436 550> 908 20G<250 678>
DStem: 330 764 518 764 203 164 383 127
Fore
950 270 m 1
 819 0 l 1
 53 0 l 1
 66 61 l 1
 111 61 143 69 162 83 c 0
 181 97 195 124 203 164 c 2
 330 764 l 1
 335 786 338 805 339 820 c 0
 340 836 337 845 330 848 c 2
 238 868 l 1
 250 928 l 1
 678 928 l 1
 666 868 l 1
 586 860 l 2
 578 859 568 855 557 848 c 0
 542 837 529 809 518 764 c 1
 383 127 l 1
 380 119 380 113 381 110 c 0
 382 106 385 102 389 96 c 0
 392 94 399 91 412 89 c 0
 424 87 436 86 446 86 c 2
 487 86 l 2
 599 86 672 94 707 111 c 0
 760 132 814 186 870 270 c 1
 950 270 l 1
EndSplineSet
MinimumDistance: x15,-1 
EndChar
StartChar: M
Encoding: 46 77
OldEncoding: 77
Width: 1323
VWidth: 1000
Flags: W
HStem: 0 61<68.0626 100.618 422 424 850.031 883.087> 864 62<1430 1450>
DStem: 348 760 438 664 231 215 342 215 438 664 565 926 602 0 723 276 1108 690 1311 760 999 180 1184 164
Fore
1266 0 m 1
 838 0 l 1
 850 61 l 1
 879 61 903 63 923 67 c 0
 942 70 956 76 965 84 c 0
 976 96 987 128 999 180 c 1
 1108 690 l 1
 649 0 l 1
 602 0 l 1
 438 664 l 1
 342 215 l 1
 330 155 326 115 332 96 c 0
 340 73 375 61 436 61 c 1
 424 0 l 1
 55 0 l 1
 68 61 l 1
 132 61 171 71 184 90 c 1
 203 111 219 152 231 215 c 1
 348 760 l 2
 358 803 357 832 346 846 c 0
 342 850 333 853 319 856 c 2
 244 866 l 1
 256 926 l 1
 565 926 l 1
 723 276 l 1
 1145 926 l 1
 1462 926 l 1
 1450 864 l 1
 1404 864 1371 857 1352 842 c 0
 1333 827 1319 799 1311 760 c 2
 1184 164 l 1
 1171 111 1180 79 1208 68 c 1
 1278 59 l 1
 1266 0 l 1
EndSplineSet
MinimumDistance: x29,-1 
EndChar
StartChar: N
Encoding: 47 78
OldEncoding: 78
Width: 1093
VWidth: 1000
Flags: W
HStem: -12 21G<850 913> 0 61<61.0627 90.458 400 416> 866 62<245 249 873 882 1216 1231>
DStem: 352 807 436 688 227 217 338 217 436 688 518 928 850 -12 872 317 956 711 1067 711 872 317 913 -12
Fore
1231 866 m 1
 1202 866 1178 863 1157 855 c 0
 1137 848 1122 838 1112 827 c 0
 1093 803 1078 764 1067 711 c 2
 913 -12 l 1
 850 -12 l 1
 436 688 l 1
 338 217 l 1
 324 157 320 117 326 96 c 0
 331 73 365 61 428 61 c 1
 416 0 l 1
 49 0 l 1
 61 61 l 1
 126 61 167 74 184 98 c 0
 199 115 214 154 227 217 c 2
 352 807 l 1
 328 847 288 866 233 866 c 1
 246 928 l 1
 518 928 l 1
 872 317 l 1
 956 711 l 2
 963 742 968 767 971 786 c 0
 973 806 973 820 971 829 c 0
 961 854 925 866 862 866 c 1
 874 928 l 1
 1243 928 l 1
 1231 866 l 1
EndSplineSet
MinimumDistance: x3,-1 
EndChar
StartChar: O
Encoding: 48 79
OldEncoding: 79
Width: 1021
VWidth: 1000
Flags: W
HStem: -16 88<506 528> 852 92<683 711>
Fore
152 463 m 0
 138 396 137 333 147 275 c 0
 158 217 180 167 212 124 c 0
 244 81 285 47 336 22 c 0
 386 -4 443 -16 506 -16 c 0
 570 -16 632 -4 693 22 c 0
 754 47 810 81 860 124 c 0
 911 167 954 217 991 275 c 0
 1028 333 1053 396 1067 463 c 0
 1082 530 1084 592 1072 650 c 0
 1061 708 1038 759 1006 803 c 0
 973 847 931 881 882 906 c 0
 832 931 775 944 711 944 c 0
 648 944 586 931 524 906 c 0
 463 881 407 847 357 803 c 0
 308 759 265 708 228 650 c 0
 192 592 167 530 152 463 c 0
350 463 m 0
 362 517 380 568 403 615 c 0
 427 663 454 703 484 738 c 0
 515 773 548 801 584 821 c 0
 619 842 655 852 692 852 c 0
 728 852 759 842 786 821 c 0
 814 801 836 773 852 738 c 0
 868 703 878 663 882 615 c 0
 885 568 881 517 868 463 c 0
 856 408 838 357 815 309 c 0
 792 261 765 220 734 185 c 0
 703 151 670 123 634 102 c 0
 598 82 562 72 526 72 c 0
 489 72 457 82 430 102 c 0
 403 123 381 151 366 185 c 0
 350 220 340 261 337 309 c 0
 333 357 338 408 350 463 c 0
EndSplineSet
EndChar
StartChar: P
Encoding: 49 80
OldEncoding: 80
Width: 827
VWidth: 1000
Flags: W
HStem: 0 61<63.0313 93.1966 466 473> 389 90<466 534> 844 84<546 580>
DStem: 326 764 520 815 203 180 449 481 326 764 428 389 203 180 381 164
Fore
750 666 m 0
 762 724 753 769 724 799 c 0
 695 829 640 844 561 844 c 0
 547 844 538 842 532 839 c 0
 527 835 523 827 520 815 c 2
 449 481 l 1
 454 480 462 479 473 479 c 2
 510 479 l 2
 644 479 724 541 750 666 c 0
946 668 m 0
 935 618 914 575 883 538 c 0
 851 500 812 469 764 444 c 0
 727 425 687 411 643 402 c 0
 599 394 552 389 500 389 c 2
 428 389 l 1
 381 164 l 2
 373 123 376 96 392 82 c 0
 408 68 439 61 485 61 c 1
 473 0 l 1
 51 0 l 1
 63 61 l 1
 89 61 112 63 130 67 c 0
 148 70 161 75 168 82 c 0
 175 90 181 102 185 118 c 0
 190 133 196 154 203 180 c 1
 326 764 l 1
 335 805 334 832 323 846 c 0
 311 859 282 866 236 866 c 1
 248 928 l 1
 629 928 l 2
 722 928 799 911 860 877 c 0
 938 830 967 760 946 668 c 0
EndSplineSet
MinimumDistance: x4,-1 
EndChar
StartChar: Q
Encoding: 50 81
OldEncoding: 81
Width: 991
VWidth: 1000
Flags: W
Fore
131 465 m 0
 120 410 117 358 122 309 c 0
 127 260 139 215 159 175 c 0
 179 135 204 100 237 71 c 0
 269 41 306 18 348 2 c 1
 377 -57 l 1
 410 -109 455 -149 514 -177 c 0
 573 -205 644 -219 729 -219 c 2
 852 -219 l 1
 866 -158 l 1
 842 -158 816 -156 790 -153 c 0
 763 -149 737 -142 712 -131 c 0
 686 -120 663 -105 641 -85 c 0
 619 -65 601 -40 586 -8 c 1
 639 4 691 25 740 53 c 0
 790 82 836 117 877 159 c 0
 918 200 953 247 982 299 c 0
 1011 351 1032 406 1044 465 c 0
 1059 532 1061 595 1050 653 c 0
 1038 712 1016 764 984 808 c 0
 952 852 911 887 861 912 c 0
 811 938 755 950 692 950 c 0
 629 950 568 938 507 912 c 0
 446 887 390 852 339 808 c 0
 288 764 244 712 208 653 c 0
 172 595 146 532 131 465 c 0
334 463 m 0
 345 516 362 566 385 613 c 0
 408 660 435 701 466 736 c 0
 497 771 530 799 565 819 c 0
 601 840 636 850 672 850 c 0
 707 850 738 840 765 819 c 0
 792 799 812 771 827 736 c 0
 842 701 852 660 855 613 c 0
 858 566 855 516 844 463 c 0
 833 410 816 359 793 312 c 0
 769 265 742 224 712 189 c 0
 681 155 648 127 613 106 c 0
 579 86 543 76 508 76 c 0
 472 76 441 86 414 106 c 0
 386 127 365 155 350 189 c 0
 335 224 326 265 323 312 c 0
 319 359 323 410 334 463 c 0
EndSplineSet
EndChar
StartChar: R
Encoding: 51 82
OldEncoding: 82
Width: 999
VWidth: 1000
Flags: W
HStem: 0 61<66.0313 92.0993 459 473 956 963> 844 84<564 614>
DStem: 328 764 526 811 205 180 461 498 328 764 442 412 205 180 389 164
Fore
762 678 m 0
 774 733 766 774 737 802 c 0
 709 830 662 844 598 844 c 0
 567 844 548 842 543 840 c 0
 540 837 537 834 535 830 c 0
 532 827 529 821 526 811 c 1
 461 498 l 1
 499 498 531 500 557 505 c 0
 583 510 607 516 629 524 c 0
 701 552 745 603 762 678 c 0
963 0 m 1
 707 0 l 1
 475 414 l 1
 442 412 l 1
 389 164 l 2
 381 124 383 97 396 83 c 0
 409 69 439 61 485 61 c 1
 473 0 l 1
 53 0 l 1
 66 61 l 1
 93 61 116 64 134 69 c 0
 153 73 165 79 172 84 c 0
 177 88 183 98 187 115 c 0
 192 131 198 153 205 180 c 1
 328 764 l 1
 339 808 340 835 332 846 c 0
 319 859 288 866 238 866 c 1
 250 928 l 1
 649 928 l 2
 892 928 995 844 958 676 c 0
 933 556 838 476 676 436 c 1
 866 119 l 2
 890 81 926 61 975 61 c 1
 963 0 l 1
EndSplineSet
MinimumDistance: x5,-1 
EndChar
StartChar: S
Encoding: 52 83
OldEncoding: 83
Width: 739
VWidth: 1000
Flags: W
HStem: -14 77<359 385> 854 90<519 553>
Fore
741 242 m 0
 725 165 679 101 604 49 c 1
 536 7 461 -14 381 -14 c 0
 366 -14 349 -13 330 -10 c 0
 311 -8 289 -3 266 4 c 0
 227 19 199 27 184 27 c 0
 169 27 160 13 156 -14 c 1
 88 -14 l 1
 113 301 l 1
 174 301 l 1
 190 221 214 161 244 122 c 0
 274 83 316 63 371 63 c 0
 409 63 444 76 477 101 c 0
 510 127 530 158 537 197 c 0
 547 246 535 290 500 330 c 0
 493 338 480 350 460 365 c 0
 440 380 414 397 383 418 c 0
 354 438 329 457 308 475 c 0
 287 493 270 509 258 524 c 0
 223 575 212 633 225 698 c 0
 233 735 248 769 268 799 c 0
 289 829 313 855 342 877 c 0
 371 898 402 915 437 927 c 0
 472 938 508 944 545 944 c 0
 558 944 574 942 592 939 c 0
 610 936 631 930 657 922 c 2
 723 899 l 1
 733 902 744 917 758 944 c 1
 821 944 l 1
 784 623 l 1
 717 623 l 1
 715 658 711 689 705 717 c 0
 698 744 686 769 670 791 c 0
 636 833 591 854 537 854 c 0
 505 854 478 844 456 824 c 0
 433 805 418 778 412 745 c 0
 402 698 427 651 485 604 c 2
 666 465 l 2
 737 410 762 336 741 242 c 0
EndSplineSet
EndChar
StartChar: T
Encoding: 53 84
OldEncoding: 84
Width: 890
VWidth: 1000
Flags: W
HStem: 0 61<244.031 273.091 655 659> 838 90<447 528 716 785>
DStem: 528 838 717 838 389 180 573 164
Fore
995 664 m 1
 920 664 l 1
 922 741 913 788 893 805 c 0
 879 814 864 822 846 828 c 0
 828 835 803 838 770 838 c 2
 717 838 l 1
 573 164 l 1
 565 123 567 96 580 82 c 0
 592 68 623 61 672 61 c 1
 659 0 l 1
 231 0 l 1
 244 61 l 1
 275 61 299 64 314 69 c 0
 330 73 343 79 354 86 c 2
 352 86 l 2
 365 96 377 127 389 180 c 1
 528 838 l 1
 477 838 l 2
 443 838 415 835 394 830 c 0
 373 826 355 818 340 807 c 0
 313 789 283 741 250 664 c 1
 176 664 l 1
 242 928 l 1
 1040 928 l 1
 995 664 l 1
EndSplineSet
MinimumDistance: x5,-1 
EndChar
StartChar: U
Encoding: 54 85
OldEncoding: 85
Width: 1067
VWidth: 1000
Flags: W
HStem: -16 92<519 580> 866 62<235 239 620 656 863 878>
DStem: 324 764 508 764 233 342 416 332 946 711 1055 711 868 346 979 360
Fore
1212 868 m 1
 1181 866 1155 861 1135 855 c 0
 1114 849 1100 840 1094 829 c 0
 1080 810 1067 771 1055 711 c 1
 979 360 l 1
 968 313 955 269 940 230 c 0
 925 191 907 158 887 131 c 0
 847 82 796 45 734 20 c 0
 672 -4 601 -16 520 -16 c 0
 401 -16 318 13 269 73 c 0
 221 132 209 222 233 342 c 1
 324 764 l 1
 333 805 331 832 316 846 c 0
 302 859 271 866 223 866 c 1
 236 928 l 1
 668 928 l 1
 655 866 l 1
 631 866 610 865 594 862 c 0
 578 859 564 854 552 847 c 0
 540 839 531 829 524 816 c 0
 517 803 512 786 508 764 c 1
 416 332 l 1
 382 161 436 76 580 76 c 0
 672 76 748 109 805 174 c 0
 829 203 851 260 868 346 c 1
 946 711 l 2
 960 773 963 812 954 827 c 0
 942 853 908 866 852 866 c 1
 864 928 l 1
 1225 928 l 1
 1212 868 l 1
EndSplineSet
MinimumDistance: x3,-1 
EndChar
StartChar: V
Encoding: 55 86
OldEncoding: 86
Width: 1017
VWidth: 1000
Flags: W
HStem: -12 21G<498 565> 868 60<214 220 563 610 865 876 1162 1180>
DStem: 319 737 530 700 498 -12 625 287 901 739 1065 813 625 287 565 -12
Fore
1180 868 m 1
 1155 868 1137 866 1126 862 c 0
 1107 855 1094 847 1085 838 c 0
 1077 828 1070 820 1065 813 c 1
 565 -12 l 1
 498 -12 l 1
 319 737 l 1
 307 793 295 829 283 846 c 0
 272 857 260 863 247 865 c 0
 234 867 219 868 203 868 c 1
 215 928 l 1
 623 928 l 1
 610 868 l 1
 586 868 566 868 551 866 c 0
 536 865 524 862 514 856 c 0
 511 855 509 852 508 848 c 0
 507 844 505 840 504 836 c 0
 502 829 511 784 530 700 c 2
 625 287 l 1
 901 739 l 1
 908 753 915 767 923 780 c 0
 930 794 937 808 942 823 c 0
 950 853 921 868 854 868 c 1
 866 928 l 1
 1192 928 l 1
 1180 868 l 1
EndSplineSet
EndChar
StartChar: W
Encoding: 56 87
OldEncoding: 87
Width: 1398
VWidth: 1000
Flags: W
HStem: -12 21G<440 498 899 965> 865 63<553.838 600 658 666 1032 1061>
DStem: 784 653 807 520 590 324 498 -12
Fore
1548 870 m 1
 1513 864 1487 855 1471 846 c 0
 1456 836 1440 820 1425 797 c 1
 965 -12 l 1
 899 -12 l 1
 892 38 881 109 865 199 c 0
 850 289 830 396 807 520 c 1
 498 -12 l 1
 440 -12 l 1
 330 721 l 1
 322 778 314 812 307 823 c 0
 295 849 265 864 217 868 c 1
 229 928 l 1
 612 928 l 1
 600 866 l 1
 585 866 574 866 566 865 c 0
 559 865 552 864 545 862 c 0
 539 861 534 859 528 858 c 0
 523 857 517 855 510 852 c 1
 507 841 506 831 505 821 c 0
 504 812 505 799 508 784 c 2
 590 324 l 1
 784 653 l 1
 766 758 l 1
 755 804 746 833 739 844 c 0
 726 859 695 866 647 866 c 1
 659 928 l 1
 1073 928 l 1
 1061 866 l 1
 993 866 955 856 948 836 c 1
 948 809 l 1
 1034 322 l 1
 1276 731 l 2
 1287 750 1295 767 1300 782 c 0
 1306 797 1310 811 1313 823 c 0
 1317 841 1314 853 1305 858 c 1
 1231 868 l 1
 1243 928 l 1
 1561 928 l 1
 1548 870 l 1
EndSplineSet
MinimumDistance: x6,-1 
EndChar
StartChar: X
Encoding: 57 88
OldEncoding: 88
Width: 1107
VWidth: 1000
Flags: W
HStem: 0 21G<61 424 596 1047> 865 63<636 720 872 895.795 1212 1229>
DStem: 561 459 608 371 231 139 428 195 932 811 1010 748 709 594 762 508
Fore
1047 0 m 1
 596 0 l 1
 608 59 l 1
 649 62 678 67 694 74 c 0
 711 81 720 87 721 92 c 0
 724 103 722 116 716 132 c 0
 710 148 699 171 684 201 c 1
 608 371 l 1
 428 195 l 2
 375 141 347 107 344 92 c 0
 340 72 371 61 436 61 c 1
 424 0 l 1
 61 0 l 1
 74 59 l 1
 97 62 117 65 133 68 c 0
 150 70 162 76 172 84 c 2
 233 139 l 1
 231 139 l 1
 561 459 l 1
 465 664 l 1
 421 760 387 819 362 840 c 0
 356 847 343 852 326 856 c 0
 308 860 286 864 260 868 c 1
 272 928 l 1
 731 928 l 1
 719 866 l 1
 694 866 673 866 655 865 c 0
 638 865 627 864 625 862 c 0
 621 859 616 857 610 854 c 0
 605 851 602 848 602 844 c 0
 599 831 605 809 620 777 c 0
 634 745 655 703 682 651 c 1
 709 594 l 1
 932 811 l 2
 941 821 947 831 948 842 c 0
 952 858 923 866 860 866 c 1
 872 928 l 1
 1241 928 l 1
 1229 866 l 1
 1203 866 1178 862 1154 853 c 0
 1130 844 1116 838 1112 836 c 0
 1105 833 1092 823 1072 805 c 0
 1052 787 1032 768 1010 748 c 2
 762 508 l 1
 926 154 l 1
 938 124 956 101 979 86 c 0
 1002 71 1029 62 1059 59 c 1
 1047 0 l 1
EndSplineSet
MinimumDistance: x42,-1 
EndChar
StartChar: Y
Encoding: 58 89
OldEncoding: 89
Width: 1028
VWidth: 1000
Flags: W
HStem: 0 61<299.063 334.753 724 754> 868 60<224 230 612 637 856 877.404>
DStem: 512 412 705 424 463 180 649 164
Fore
1184 870 m 1
 1144 864 1114 855 1094 846 c 0
 1079 838 1061 823 1039 803 c 0
 1018 782 993 755 963 721 c 2
 705 424 l 1
 649 164 l 2
 645 145 642 128 641 113 c 0
 640 98 642 87 647 80 c 0
 654 72 667 67 686 65 c 0
 705 62 732 61 766 61 c 1
 754 0 l 1
 287 0 l 1
 299 61 l 1
 365 61 408 70 430 86 c 0
 440 93 451 124 463 180 c 2
 512 412 l 1
 471 496 438 565 414 616 c 0
 389 668 369 709 354 739 c 0
 339 769 328 791 319 805 c 0
 311 819 304 829 297 838 c 0
 286 850 274 858 261 862 c 0
 248 866 232 868 213 868 c 1
 225 928 l 1
 649 928 l 1
 637 868 l 1
 574 868 541 860 539 844 c 0
 536 837 536 830 539 823 c 0
 541 816 545 808 549 797 c 2
 670 520 l 1
 911 809 l 2
 915 814 919 820 923 825 c 0
 926 831 928 836 930 842 c 0
 934 859 905 868 844 868 c 1
 856 928 l 1
 1196 928 l 1
 1184 870 l 1
EndSplineSet
MinimumDistance: x4,-1 
EndChar
StartChar: Z
Encoding: 59 90
OldEncoding: 90
Width: 952
VWidth: 1000
Flags: W
HStem: 0 86<322 648> 844 84<518 808>
Fore
952 272 m 1
 856 0 l 1
 55 0 l 1
 63 41 l 1
 809 844 l 1
 543 844 l 2
 464 844 405 827 367 793 c 0
 349 778 326 735 297 664 c 1
 223 664 l 1
 309 928 l 1
 1061 928 l 1
 1053 887 l 1
 322 86 l 1
 629 86 l 2
 702 86 758 103 797 137 c 0
 806 147 818 163 833 185 c 0
 847 208 864 237 883 272 c 1
 952 272 l 1
EndSplineSet
EndChar
StartChar: bracketleft
Encoding: 60 91
OldEncoding: 91
Width: 350
VWidth: 1000
Flags: W
HStem: -172 70<188.196 311> 926 69<409 545>
DStem: 258 995 365 881 10 -172 168 -47
Fore
311 -172 m 1
 10 -172 l 1
 258 995 l 1
 559 995 l 1
 545 926 l 1
 412 926 l 2
 388 926 373 911 365 881 c 1
 168 -47 l 2
 160 -84 170 -102 199 -102 c 2
 326 -102 l 1
 311 -172 l 1
EndSplineSet
EndChar
StartChar: backslash
Encoding: 61 92
OldEncoding: 92
Width: 505
VWidth: 1000
Flags: W
DStem: 213 977 319 977 338 -240 446 -240
Fore
446 -240 m 1
 338 -240 l 1
 213 977 l 1
 319 977 l 1
 446 -240 l 1
EndSplineSet
MinimumDistance: x0,-1 
EndChar
StartChar: bracketright
Encoding: 62 93
OldEncoding: 93
Width: 356
VWidth: 1000
Flags: W
HStem: -172 70<-21 114> 926 69<212 334>
DStem: 356 870 514 995 160 -59 266 -172
Fore
266 -172 m 1
 -35 -172 l 1
 -20 -102 l 1
 111 -102 l 2
 138 -102 154 -88 160 -59 c 1
 356 870 l 2
 365 907 354 926 326 926 c 2
 199 926 l 1
 213 995 l 1
 514 995 l 1
 266 -172 l 1
EndSplineSet
EndChar
StartChar: asciicircum
Encoding: 63 94
OldEncoding: 94
Width: 679
VWidth: 1000
Flags: W
DStem: 481 920 508 788 113 397 231 397 508 788 588 920 616 397 735 397
Fore
735 397 m 1
 616 397 l 1
 508 788 l 1
 231 397 l 1
 113 397 l 1
 481 920 l 1
 588 920 l 1
 735 397 l 1
EndSplineSet
EndChar
StartChar: underscore
Encoding: 64 95
OldEncoding: 95
Width: 720
VWidth: 1000
Flags: W
HStem: -115 72<-7 694>
Fore
694 -115 m 1
 -23 -115 l 1
 -6 -43 l 1
 711 -43 l 1
 694 -115 l 1
EndSplineSet
EndChar
StartChar: grave
Encoding: 65 96
OldEncoding: 96
Width: 284
VWidth: 1000
Flags: W
Fore
356 418 m 1
 279 418 l 1
 162 502 l 1
 144 510 137 526 139 549 c 0
 145 576 162 590 193 590 c 0
 208 590 223 582 238 567 c 1
 356 418 l 1
EndSplineSet
EndChar
StartChar: a
Encoding: 66 97
OldEncoding: 97
Width: 710
VWidth: 1000
Flags: W
DStem: 494 385 666 459 455 199 604 172
Fore
494 385 m 1
 352 339 273 280 258 209 c 0
 251 179 255 154 268 133 c 0
 272 126 278 120 285 116 c 0
 291 111 302 109 315 109 c 0
 366 109 406 125 436 158 c 0
 440 162 444 168 447 177 c 0
 451 186 453 193 455 199 c 2
 494 385 l 1
686 70 m 1
 629 16 574 -10 522 -10 c 0
 459 -10 429 18 432 74 c 1
 345 18 274 -10 219 -10 c 0
 169 -10 130 5 104 36 c 0
 79 67 71 106 82 156 c 0
 98 232 145 294 223 340 c 0
 238 348 269 362 316 382 c 0
 364 402 428 427 510 459 c 1
 526 539 l 2
 540 607 517 641 457 641 c 0
 402 641 369 622 358 584 c 0
 357 580 356 571 356 559 c 0
 356 547 356 537 354 530 c 0
 353 524 350 515 344 505 c 0
 339 495 330 484 319 473 c 0
 310 465 299 459 286 455 c 0
 273 451 261 449 252 449 c 0
 229 449 211 455 199 469 c 0
 186 483 183 503 188 530 c 0
 201 586 242 633 311 670 c 0
 339 685 366 695 394 701 c 0
 422 708 452 711 483 711 c 0
 569 711 626 691 653 650 c 0
 681 610 685 546 666 459 c 2
 604 172 l 1
 596 128 599 106 612 106 c 0
 619 106 630 111 645 119 c 0
 660 127 681 141 707 160 c 1
 686 70 l 1
EndSplineSet
MinimumDistance: x32,-1 
EndChar
StartChar: b
Encoding: 67 98
OldEncoding: 98
Width: 821
VWidth: 1000
Flags: W
HStem: 596 127<559 639>
DStem: 332 874 530 1051 166 100 446 651 332 874 414 498 166 100 334 125
Fore
664 322 m 0
 672 358 677 392 678 422 c 0
 679 452 677 479 670 504 c 0
 653 565 616 596 559 596 c 0
 528 596 498 587 471 569 c 0
 438 547 419 524 414 498 c 2
 334 125 l 1
 332 115 335 107 342 100 c 0
 349 94 358 88 369 83 c 0
 380 78 392 75 406 73 c 0
 419 71 431 70 440 70 c 0
 555 70 629 154 664 322 c 0
848 375 m 0
 838 331 822 288 799 247 c 0
 776 205 746 166 711 129 c 0
 625 36 518 -10 391 -10 c 0
 365 -10 340 -9 316 -6 c 0
 293 -3 270 3 250 14 c 0
 220 29 198 43 183 54 c 0
 169 66 163 81 166 100 c 1
 332 874 l 2
 339 906 341 923 338 926 c 0
 332 933 324 936 311 936 c 2
 248 930 l 1
 258 987 l 1
 283 994 317 1004 362 1017 c 0
 408 1030 456 1044 508 1059 c 1
 530 1051 l 1
 446 651 l 1
 474 673 505 691 541 703 c 0
 576 716 609 723 639 723 c 0
 732 723 795 685 829 610 c 0
 844 576 854 540 857 501 c 0
 861 462 857 420 848 375 c 0
EndSplineSet
MinimumDistance: x26,-1 
EndChar
StartChar: c
Encoding: 68 99
OldEncoding: 99
Width: 688
VWidth: 1000
Flags: W
HStem: -10 137<334 424> 635 76<500 541>
Fore
698 242 m 1
 586 74 465 -10 334 -10 c 0
 290 -10 252 -2 218 15 c 0
 185 32 158 60 139 98 c 0
 124 130 114 165 109 204 c 0
 103 243 106 286 117 334 c 0
 137 436 186 524 264 598 c 0
 346 673 438 711 541 711 c 0
 601 711 648 698 682 674 c 0
 707 659 723 640 732 616 c 0
 741 593 743 570 739 547 c 0
 734 524 722 504 702 487 c 0
 683 471 661 463 635 463 c 0
 613 463 596 471 584 486 c 0
 571 502 565 522 563 545 c 0
 560 578 556 601 550 614 c 0
 544 628 527 635 500 635 c 0
 448 635 400 608 356 555 c 0
 317 507 291 453 279 391 c 0
 262 317 267 257 293 209 c 0
 320 154 364 127 424 127 c 0
 466 127 507 140 545 166 c 0
 572 182 609 218 655 272 c 1
 698 242 l 1
EndSplineSet
EndChar
StartChar: d
Encoding: 69 100
OldEncoding: 100
Width: 784
VWidth: 1000
Flags: W
HStem: -10 108<307 391> 647 76<479 502>
DStem: 590 514 866 1051 518 174 684 188 668 874 866 1051 627 682 684 188
Fore
590 514 m 1
 595 555 588 589 567 616 c 0
 558 627 546 635 531 640 c 0
 517 645 502 647 485 647 c 0
 454 647 426 639 401 623 c 0
 377 606 356 585 338 560 c 0
 320 535 305 507 294 477 c 0
 282 447 274 418 268 391 c 0
 261 358 257 325 256 290 c 0
 255 255 258 224 266 196 c 0
 274 168 288 144 308 126 c 0
 328 108 356 98 391 98 c 0
 451 98 494 124 518 174 c 1
 590 514 l 1
756 68 m 1
 506 -12 l 1
 481 2 l 1
 492 49 l 1
 437 10 375 -10 307 -10 c 0
 247 -10 194 8 147 43 c 0
 116 68 96 105 87 157 c 0
 78 208 81 268 96 338 c 0
 118 442 164 529 233 600 c 0
 314 682 403 723 500 723 c 0
 546 723 588 709 627 682 c 1
 668 874 l 1
 674 902 677 918 674 922 c 0
 668 930 659 934 645 934 c 2
 582 928 l 1
 594 987 l 1
 632 998 664 1007 690 1014 c 0
 716 1021 738 1027 756 1032 c 0
 773 1038 788 1042 801 1047 c 0
 813 1051 825 1055 838 1059 c 1
 866 1051 l 1
 684 188 l 1
 677 161 676 143 681 134 c 0
 686 125 699 121 721 121 c 2
 768 125 l 1
 756 68 l 1
EndSplineSet
EndChar
StartChar: e
Encoding: 70 101
OldEncoding: 101
Width: 704
VWidth: 1000
Flags: W
HStem: -10 133<334 424> 408 84<297 551> 625 86<463 512>
Fore
463 625 m 0
 393 625 338 580 297 492 c 1
 551 492 l 1
 556 580 527 625 463 625 c 0
721 258 m 1
 707 231 690 203 670 176 c 0
 649 149 625 123 598 98 c 0
 516 26 428 -10 334 -10 c 0
 252 -10 192 14 154 62 c 0
 115 111 99 176 104 258 c 0
 106 268 108 279 110 291 c 0
 112 303 115 317 119 334 c 0
 139 435 182 520 248 590 c 0
 324 670 412 711 512 711 c 0
 599 711 661 684 696 630 c 0
 732 576 739 502 719 408 c 1
 270 408 l 1
 236 218 287 123 424 123 c 0
 464 123 504 137 545 164 c 0
 586 191 630 231 678 285 c 1
 721 258 l 1
EndSplineSet
EndChar
StartChar: f
Encoding: 71 102
OldEncoding: 102
Width: 618
VWidth: 1000
Flags: W
HStem: 0 21G<29 442> 627 82<181 283 459 616>
DStem: 283 627 442 627 186 172 346 172
Fore
793 948 m 0
 788 925 778 906 761 891 c 0
 744 876 721 868 692 868 c 0
 680 868 668 872 656 881 c 0
 645 889 636 902 629 920 c 0
 616 959 601 979 584 979 c 0
 539 979 507 940 489 862 c 1
 459 709 l 1
 635 709 l 1
 616 627 l 1
 442 627 l 1
 346 172 l 1
 335 126 333 96 340 84 c 0
 350 66 388 57 455 57 c 1
 442 0 l 1
 29 0 l 1
 41 57 l 1
 83 60 111 63 125 67 c 0
 139 70 147 73 150 76 c 0
 163 92 175 124 186 172 c 1
 283 627 l 1
 164 627 l 1
 182 709 l 1
 301 709 l 1
 354 942 471 1059 651 1059 c 0
 670 1059 687 1057 702 1055 c 0
 717 1052 733 1046 748 1036 c 0
 765 1025 778 1012 786 996 c 0
 795 981 797 965 793 948 c 0
EndSplineSet
MinimumDistance: x10,-1 
EndChar
StartChar: g
Encoding: 72 103
OldEncoding: 103
Width: 735
VWidth: 1000
Flags: W
HStem: -276 116<244 332> 244 69<415 442> 584 92<709 817> 645 76<472 508>
Fore
549 434 m 0
 557 475 558 516 553 557 c 0
 545 616 518 645 473 645 c 0
 417 645 381 608 365 535 c 0
 335 387 360 313 442 313 c 0
 497 313 532 354 549 434 c 0
596 -39 m 0
 599 -28 596 -18 588 -10 c 0
 580 -2 568 4 553 8 c 0
 534 15 512 19 487 20 c 0
 463 22 439 23 416 23 c 2
 289 23 l 2
 270 23 253 25 238 29 c 1
 190 -22 164 -57 160 -78 c 0
 147 -132 205 -160 332 -160 c 0
 358 -160 384 -157 410 -152 c 0
 436 -146 461 -139 487 -131 c 0
 552 -111 588 -80 596 -39 c 0
817 584 m 1
 709 584 l 1
 714 547 713 509 705 471 c 0
 698 437 685 406 668 378 c 0
 650 350 628 326 602 306 c 0
 576 286 547 271 516 260 c 0
 485 249 451 244 416 244 c 0
 402 244 388 244 374 245 c 0
 359 245 348 247 340 250 c 2
 336 250 l 2
 330 250 325 247 318 242 c 0
 312 236 305 230 297 223 c 0
 272 201 260 187 260 180 c 0
 257 169 287 162 350 158 c 2
 524 147 l 2
 578 145 619 129 648 99 c 0
 678 70 687 31 676 -18 c 0
 668 -61 647 -98 613 -130 c 0
 580 -162 542 -189 499 -211 c 0
 456 -233 411 -249 366 -260 c 0
 320 -271 279 -276 244 -276 c 0
 219 -276 192 -274 163 -269 c 0
 133 -265 107 -256 83 -244 c 0
 59 -231 40 -215 27 -196 c 0
 13 -176 9 -151 14 -121 c 0
 25 -72 78 -16 172 47 c 1
 156 61 143 73 135 85 c 0
 127 97 124 110 127 125 c 0
 135 160 183 211 270 276 c 1
 203 317 178 381 195 467 c 0
 203 504 217 538 237 569 c 0
 256 601 280 628 308 650 c 0
 336 673 367 690 401 702 c 0
 436 715 471 721 508 721 c 0
 543 721 588 710 643 688 c 0
 666 680 689 676 711 676 c 2
 836 676 l 1
 817 584 l 1
EndSplineSet
EndChar
StartChar: h
Encoding: 73 104
OldEncoding: 104
Width: 806
VWidth: 1000
Flags: W
HStem: 0 21G<49 403 440 786>
DStem: 338 920 526 1042 180 170 440 637 338 920 416 524 180 170 342 170 637 467 803 469 575 170 739 170
Fore
786 0 m 1
 440 0 l 1
 453 53 l 1
 476 56 495 59 509 63 c 0
 523 68 534 72 541 78 c 0
 547 83 554 94 559 111 c 0
 565 127 570 147 575 170 c 1
 637 467 l 1
 657 561 637 608 575 608 c 0
 533 608 480 580 416 524 c 1
 342 170 l 1
 337 147 333 127 331 111 c 0
 329 94 331 83 338 76 c 0
 341 72 366 63 414 51 c 1
 403 0 l 1
 49 0 l 1
 61 53 l 1
 86 56 106 61 121 68 c 0
 136 74 146 81 152 88 c 0
 160 96 169 124 180 170 c 1
 338 920 l 1
 328 926 319 930 309 930 c 2
 248 926 l 1
 260 985 l 1
 506 1059 l 1
 526 1042 l 1
 440 637 l 1
 509 694 580 723 653 723 c 0
 787 723 837 638 803 469 c 1
 739 170 l 2
 730 126 726 99 729 88 c 0
 735 76 757 62 797 47 c 1
 786 0 l 1
EndSplineSet
MinimumDistance: x28,-1 
EndChar
StartChar: i
Encoding: 74 105
OldEncoding: 105
Width: 419
VWidth: 1000
Flags: W
HStem: 0 55<39.0626 65.3951> 870 191<391 432>
DStem: 246 518 444 719 170 168 326 168
Fore
395 0 m 1
 408 53 l 1
 354 61 326 70 322 78 c 0
 319 85 318 97 318 114 c 0
 319 131 322 149 326 168 c 2
 444 719 l 1
 422 727 l 1
 168 633 l 1
 156 582 l 1
 233 592 l 1
 253 591 257 566 246 518 c 1
 170 168 l 1
 162 124 150 95 133 79 c 0
 117 63 85 55 39 55 c 1
 27 0 l 1
 395 0 l 1
319 967 m 0
 314 939 318 916 331 898 c 0
 344 880 364 870 391 870 c 0
 417 870 441 880 462 898 c 0
 483 916 496 939 502 967 c 0
 509 994 505 1016 492 1034 c 0
 478 1052 458 1061 432 1061 c 0
 405 1061 381 1052 360 1034 c 0
 340 1016 326 994 319 967 c 0
EndSplineSet
EndChar
StartChar: j
Encoding: 75 106
OldEncoding: 106
Width: 475
VWidth: 1000
Flags: W
HStem: -326 179<43 80> 879 190<512 553>
DStem: 365 522 565 725 244 -45 412 4
Fore
565 725 m 1
 545 733 l 1
 285 639 l 1
 274 586 l 1
 354 596 l 1
 371 595 374 570 365 522 c 1
 244 -45 l 1
 227 -130 215 -179 207 -193 c 0
 200 -206 191 -217 181 -226 c 0
 171 -235 162 -240 154 -240 c 0
 150 -240 143 -236 134 -228 c 0
 125 -221 118 -210 113 -195 c 0
 106 -175 96 -163 84 -157 c 0
 72 -151 58 -147 43 -147 c 0
 40 -147 33 -149 20 -153 c 0
 8 -156 -1 -160 -8 -166 c 0
 -15 -173 -22 -181 -29 -190 c 0
 -35 -200 -40 -210 -43 -221 c 0
 -48 -248 -41 -273 -22 -294 c 0
 -2 -315 32 -326 80 -326 c 0
 165 -326 235 -298 292 -244 c 0
 349 -189 388 -106 412 4 c 2
 565 725 l 1
440 973 m 0
 433 945 437 923 452 905 c 0
 466 887 486 879 512 879 c 0
 538 879 561 887 583 905 c 0
 604 923 618 945 625 973 c 0
 631 1000 628 1023 613 1041 c 0
 599 1060 579 1069 553 1069 c 0
 527 1069 503 1060 482 1041 c 0
 461 1023 447 1000 440 973 c 0
EndSplineSet
EndChar
StartChar: k
Encoding: 76 107
OldEncoding: 107
Width: 829
VWidth: 1000
Flags: W
HStem: 0 21G<49 430 461 817> 647 62<592 615.883 896 916>
DStem: 338 860 543 1047 186 141 416 453 338 860 389 330 186 141 344 117 616 604 664 545 416 453 516 436
Fore
817 0 m 1
 461 0 l 1
 473 59 l 1
 510 59 l 2
 520 59 525 61 526 66 c 0
 526 67 526 68 525 70 c 0
 525 71 524 73 524 76 c 1
 389 330 l 1
 344 117 l 1
 339 84 356 66 395 61 c 2
 442 57 l 1
 430 0 l 1
 49 0 l 1
 61 57 l 1
 116 64 145 69 147 72 c 0
 157 79 165 87 171 97 c 0
 177 108 182 122 186 141 c 2
 338 860 l 1
 342 877 344 889 345 898 c 0
 346 907 345 913 344 915 c 0
 343 920 340 923 337 927 c 0
 333 930 326 932 315 932 c 2
 246 926 l 1
 258 981 l 1
 514 1055 l 1
 543 1047 l 1
 416 453 l 1
 616 604 l 2
 626 612 634 619 639 624 c 0
 644 628 648 633 649 637 c 0
 651 645 627 649 578 649 c 1
 592 709 l 1
 930 709 l 1
 915 647 l 1
 885 647 861 645 842 641 c 0
 823 637 806 631 791 625 c 0
 780 619 763 609 739 595 c 0
 716 581 691 564 664 545 c 2
 516 436 l 1
 676 160 l 2
 694 128 715 104 739 87 c 0
 764 70 794 61 829 59 c 1
 817 0 l 1
EndSplineSet
MinimumDistance: x37,-1 
EndChar
StartChar: l
Encoding: 77 108
OldEncoding: 108
Width: 428
VWidth: 1000
Flags: W
HStem: 0 21G<35 399>
DStem: 324 860 522 1067 172 147 326 145
Fore
399 0 m 1
 35 0 l 1
 47 53 l 1
 88 59 117 68 135 81 c 0
 153 94 165 116 172 147 c 2
 324 860 l 1
 332 894 335 914 332 920 c 0
 329 929 320 934 305 934 c 2
 227 928 l 1
 240 987 l 1
 252 990 272 995 299 1002 c 0
 326 1010 355 1018 384 1027 c 0
 413 1036 441 1044 467 1052 c 0
 493 1059 511 1064 522 1067 c 1
 326 145 l 1
 313 85 342 55 412 55 c 1
 399 0 l 1
EndSplineSet
EndChar
StartChar: m
Encoding: 78 109
OldEncoding: 109
Width: 1280
VWidth: 1000
Flags: W
HStem: 0 55<70.0626 89.6465 424 430 473.031 493.408 827 836 877.063 895.526 1224 1231> 691 20G<436 471>
DStem: 276 539 440 528 195 154 360 154 662 463 840 524 596 154 762 154 1059 455 1221 430 995 154 1161 154
Fore
1231 0 m 1
 864 0 l 1
 877 55 l 1
 941 55 980 88 995 154 c 1
 1059 455 l 1
 1070 502 1073 537 1069 559 c 0
 1061 588 1038 602 1001 602 c 0
 943 602 889 576 840 524 c 1
 762 154 l 2
 755 122 757 98 768 81 c 0
 779 64 806 55 848 55 c 1
 836 0 l 1
 461 0 l 1
 473 55 l 1
 510 55 538 64 557 81 c 0
 576 98 589 122 596 154 c 2
 662 463 l 1
 682 556 664 602 606 602 c 0
 565 602 526 589 487 563 c 0
 474 554 463 546 454 541 c 0
 445 535 440 531 440 528 c 1
 360 154 l 2
 354 122 356 98 368 81 c 0
 379 64 404 55 442 55 c 1
 430 0 l 1
 57 0 l 1
 70 55 l 1
 138 55 180 88 195 154 c 1
 276 539 l 2
 279 550 281 558 281 565 c 0
 281 573 278 581 272 588 c 0
 271 589 267 590 260 590 c 0
 253 590 243 589 230 588 c 0
 217 586 202 584 184 582 c 1
 199 641 l 1
 236 652 266 661 291 668 c 0
 315 674 337 681 354 686 c 0
 372 692 387 696 399 699 c 0
 412 703 424 707 436 711 c 1
 471 711 l 1
 451 614 l 1
 500 642 536 661 560 673 c 0
 584 684 599 692 606 694 c 0
 623 701 637 706 649 708 c 0
 662 710 673 711 684 711 c 0
 760 711 809 676 829 606 c 1
 915 676 1001 711 1085 711 c 0
 1215 711 1260 617 1221 430 c 2
 1161 154 l 2
 1154 122 1157 98 1169 81 c 0
 1182 64 1206 55 1243 55 c 1
 1231 0 l 1
EndSplineSet
MinimumDistance: x47,-1 x14,9 x17,6 
EndChar
StartChar: n
Encoding: 79 110
OldEncoding: 110
Width: 845
VWidth: 1000
Flags: W
HStem: 0 53<78.0078 96.9372> 689 20G<430 465>
DStem: 266 514 428 522 190 150 342 117 635 469 797 471 569 162 725 137
Fore
782 0 m 1
 444 0 l 1
 457 53 l 1
 495 59 518 65 526 72 c 0
 544 81 558 111 569 162 c 2
 635 469 l 1
 651 551 629 592 569 592 c 0
 535 592 488 569 428 522 c 1
 342 117 l 1
 337 83 364 61 424 53 c 1
 412 0 l 1
 66 0 l 1
 78 53 l 1
 87 53 97 54 108 55 c 0
 118 57 128 59 137 63 c 0
 160 73 178 102 190 150 c 1
 266 514 l 1
 274 547 276 569 272 580 c 0
 272 582 269 584 263 585 c 0
 257 585 250 586 242 586 c 0
 236 586 228 584 216 582 c 0
 204 579 194 576 184 573 c 1
 199 641 l 1
 215 645 234 650 256 655 c 0
 278 661 300 667 323 674 c 0
 345 681 366 687 385 693 c 0
 404 699 419 705 430 709 c 1
 465 709 l 1
 444 614 l 1
 461 629 476 642 489 651 c 0
 503 661 515 669 526 676 c 0
 548 688 570 697 592 701 c 0
 614 706 636 709 659 709 c 0
 784 709 829 629 797 471 c 1
 725 137 l 1
 722 121 720 107 719 96 c 0
 717 85 719 77 723 72 c 0
 730 66 753 59 793 51 c 1
 782 0 l 1
EndSplineSet
MinimumDistance: x33,-1 
EndChar
StartChar: o
Encoding: 80 111
OldEncoding: 111
Width: 772
VWidth: 1000
Flags: W
HStem: -10 69<379 399> 635 76<509 535>
Fore
119 350 m 0
 109 301 108 255 115 211 c 0
 122 167 136 129 159 96 c 0
 181 63 211 38 249 18 c 0
 286 -1 330 -10 381 -10 c 0
 431 -10 480 -1 525 18 c 0
 571 38 612 63 649 96 c 0
 686 129 718 167 744 211 c 0
 771 255 789 301 799 350 c 0
 810 399 811 446 804 489 c 0
 796 533 781 571 758 604 c 0
 735 637 704 663 667 682 c 0
 629 701 585 711 535 711 c 0
 484 711 436 701 391 682 c 0
 346 663 305 637 268 604 c 0
 231 571 200 533 174 489 c 0
 148 446 130 399 119 350 c 0
287 348 m 0
 295 388 306 425 321 459 c 0
 335 493 352 523 372 550 c 0
 392 577 414 597 438 612 c 0
 463 627 489 635 518 635 c 0
 548 635 572 627 590 612 c 0
 608 597 621 577 629 550 c 0
 637 523 641 493 640 459 c 0
 639 425 635 388 627 348 c 0
 618 309 608 271 594 237 c 0
 580 202 564 171 544 144 c 0
 524 118 502 97 477 82 c 0
 453 67 425 59 395 59 c 0
 367 59 343 67 326 82 c 0
 308 97 295 118 286 144 c 0
 277 171 273 202 273 237 c 0
 274 271 279 309 287 348 c 0
EndSplineSet
EndChar
StartChar: p
Encoding: 81 112
OldEncoding: 112
Width: 780
VWidth: 1000
Flags: W
HStem: -299 59<-13.9686 11.722> -10 80<425 446>
DStem: 248 520 406 514 102 -164 330 150 248 520 303 29 102 -164 264 -152
Fore
264 -152 m 2
 303 29 l 1
 337 3 378 -10 426 -10 c 0
 478 -10 526 1 571 23 c 0
 616 44 657 74 692 111 c 0
 728 147 757 189 781 237 c 0
 805 284 823 332 834 383 c 0
 842 424 845 465 844 505 c 0
 842 545 835 581 820 613 c 0
 806 645 784 671 756 691 c 0
 727 711 691 721 647 721 c 0
 609 721 572 714 536 701 c 0
 499 688 464 668 428 639 c 1
 431 654 433 669 435 683 c 0
 437 697 440 712 442 727 c 1
 355 697 267 668 178 641 c 1
 166 588 l 1
 231 592 l 2
 246 592 255 587 256 578 c 0
 256 567 253 547 248 520 c 2
 102 -164 l 1
 96 -191 84 -211 69 -222 c 0
 53 -234 25 -240 -14 -240 c 1
 -27 -299 l 1
 360 -299 l 1
 375 -236 l 1
 315 -236 280 -231 270 -221 c 0
 258 -212 256 -188 264 -152 c 2
662 336 m 0
 645 264 621 203 588 156 c 0
 550 98 502 70 444 70 c 0
 421 70 395 78 367 94 c 0
 338 109 326 128 330 150 c 2
 406 514 l 1
 416 537 437 557 466 572 c 0
 495 588 524 596 551 596 c 0
 581 596 605 588 623 572 c 0
 640 557 653 536 660 511 c 0
 668 486 672 457 672 426 c 0
 672 396 668 366 662 336 c 0
EndSplineSet
MinimumDistance: x32,-1 
EndChar
StartChar: q
Encoding: 82 113
OldEncoding: 113
Width: 780
VWidth: 1000
Flags: W
HStem: -317 63<303.125 329.053>
DStem: 504 68 797 707 457 -158 606 -190 600 516 797 707 535 213 606 -190
Fore
674 -317 m 1
 686 -260 l 1
 625 -249 598 -226 606 -190 c 1
 797 707 l 1
 784 723 l 1
 764 719 l 1
 680 672 l 1
 653 689 626 702 601 710 c 0
 576 717 550 721 524 721 c 0
 471 721 421 711 375 690 c 0
 328 670 286 642 249 606 c 0
 211 571 180 529 154 482 c 0
 128 435 109 386 98 334 c 0
 89 290 84 247 84 205 c 0
 84 164 91 127 105 95 c 0
 120 63 141 38 170 18 c 0
 199 -1 237 -10 285 -10 c 0
 304 -10 327 -8 354 -2 c 0
 382 3 408 12 432 25 c 0
 457 37 481 51 504 68 c 1
 457 -158 l 2
 443 -222 392 -254 303 -254 c 1
 289 -317 l 1
 674 -317 l 1
512 156 m 1
 482 127 439 113 383 113 c 0
 353 113 329 121 310 137 c 0
 292 154 279 174 271 200 c 0
 264 225 260 253 261 285 c 0
 262 316 265 346 270 375 c 0
 277 406 287 438 299 470 c 0
 311 502 327 531 346 557 c 0
 365 583 388 604 414 621 c 0
 440 637 469 645 502 645 c 0
 585 645 618 602 600 516 c 1
 535 213 l 1
 512 156 l 1
EndSplineSet
EndChar
StartChar: r
Encoding: 83 114
OldEncoding: 114
Width: 587
VWidth: 1000
Flags: W
HStem: 0 21G<43 424> 691 20G<428 455>
DStem: 252 510 406 481 174 141 336 152
Fore
686 614 m 0
 679 587 667 567 650 553 c 0
 633 539 614 532 594 532 c 0
 568 532 547 542 532 561 c 0
 528 567 526 572 524 578 c 0
 523 583 518 586 510 586 c 0
 494 586 473 573 449 549 c 0
 424 524 410 502 406 481 c 2
 336 152 l 1
 321 87 354 55 436 55 c 1
 424 0 l 1
 43 0 l 1
 53 51 l 1
 79 57 100 61 117 66 c 0
 133 70 144 73 150 76 c 0
 152 79 156 86 161 98 c 0
 166 111 170 125 174 141 c 1
 252 510 l 1
 260 556 257 580 242 580 c 2
 170 573 l 1
 180 627 l 1
 228 643 274 658 319 673 c 0
 365 687 401 700 428 711 c 1
 455 711 l 1
 434 616 l 1
 497 679 556 711 610 711 c 0
 673 711 698 679 686 614 c 0
EndSplineSet
MinimumDistance: x7,-1 
EndChar
StartChar: s
Encoding: 84 115
OldEncoding: 115
Width: 579
VWidth: 1000
Flags: W
HStem: -10 63<282 308> 0 21G<59 104> 16 244<127 129> 680 20G<569 616>
Fore
559 193 m 0
 545 127 513 77 462 42 c 0
 411 7 354 -10 291 -10 c 0
 269 -10 238 -6 199 2 c 2
 129 16 l 2
 124 16 115 11 104 0 c 1
 59 0 l 1
 115 260 l 1
 176 260 l 1
 175 226 175 200 177 183 c 0
 179 166 183 144 188 117 c 0
 194 94 207 77 226 68 c 0
 246 58 269 53 295 53 c 0
 360 53 399 83 412 141 c 0
 418 180 403 211 367 236 c 0
 334 260 308 280 288 295 c 0
 268 310 252 323 240 333 c 0
 227 343 218 351 212 357 c 0
 206 364 201 369 197 375 c 0
 184 394 175 414 168 436 c 0
 161 458 161 484 168 514 c 0
 175 544 187 571 204 595 c 0
 221 619 241 639 265 656 c 0
 289 673 315 687 344 696 c 0
 373 706 401 711 430 711 c 0
 455 711 473 709 486 707 c 0
 499 704 507 701 510 698 c 2
 555 680 l 2
 556 681 558 683 559 686 c 0
 560 689 564 694 569 700 c 1
 616 700 l 1
 573 463 l 1
 514 463 l 1
 514 583 480 643 412 643 c 0
 386 643 363 637 343 624 c 0
 323 611 310 590 303 561 c 0
 299 539 300 522 305 510 c 0
 311 498 321 486 336 475 c 2
 473 381 l 2
 492 367 508 355 519 343 c 0
 531 331 540 320 547 309 c 0
 558 293 564 275 565 257 c 0
 567 239 565 217 559 193 c 0
EndSplineSet
EndChar
StartChar: t
Encoding: 85 116
OldEncoding: 116
Width: 460
VWidth: 1000
Flags: W
HStem: 621 84<410 535>
DStem: 240 621 391 621 150 193 305 215
Fore
465 121 m 1
 440 84 407 53 366 28 c 0
 324 2 285 -10 250 -10 c 0
 154 -10 121 57 150 193 c 2
 240 621 l 1
 168 621 l 1
 162 653 l 1
 177 664 191 675 206 686 c 0
 220 697 235 709 250 721 c 0
 279 745 307 773 336 805 c 0
 365 836 397 874 434 920 c 1
 442 856 l 1
 410 705 l 1
 553 705 l 1
 535 621 l 1
 391 621 l 1
 305 215 l 2
 289 137 298 98 334 98 c 0
 357 98 390 119 434 160 c 1
 465 121 l 1
EndSplineSet
MinimumDistance: x15,-1 
EndChar
StartChar: u
Encoding: 86 117
OldEncoding: 117
Width: 811
VWidth: 1000
Flags: W
HStem: 676 20G<188 438 553 825>
DStem: 252 565 438 696 172 195 334 203 633 563 825 696 559 215 715 176
Fore
778 55 m 1
 765 53 748 49 729 46 c 0
 710 43 691 38 672 31 c 2
 524 -16 l 1
 541 86 l 1
 504 55 l 2
 475 33 446 17 418 6 c 0
 389 -5 358 -10 326 -10 c 0
 302 -10 280 -7 259 -1 c 0
 238 5 220 14 205 27 c 0
 182 43 169 66 166 96 c 0
 163 126 165 159 172 195 c 1
 252 565 l 1
 257 595 255 616 244 627 c 0
 238 632 231 636 221 639 c 0
 212 642 197 643 178 643 c 1
 188 696 l 1
 438 696 l 1
 334 203 l 1
 331 186 331 170 335 153 c 0
 338 136 347 124 360 117 c 0
 367 114 375 112 384 111 c 0
 393 109 401 109 410 109 c 0
 430 109 451 113 472 122 c 0
 493 131 515 143 537 158 c 0
 546 165 554 184 559 215 c 1
 633 563 l 2
 640 595 636 615 623 624 c 0
 609 632 582 637 541 637 c 1
 553 696 l 1
 825 696 l 1
 715 176 l 2
 709 149 711 131 720 123 c 0
 729 115 752 111 788 111 c 1
 778 55 l 1
EndSplineSet
EndChar
StartChar: v
Encoding: 87 118
OldEncoding: 118
Width: 747
VWidth: 1000
Flags: W
HStem: 638 58<165 171 631 662.99 844.061 861>
DStem: 229 594 406 575 350 8 469 238 678 582 788 608 469 238 399 -27
Fore
860 639 m 1
 847 639 833 637 819 632 c 0
 806 627 795 619 788 608 c 2
 399 -27 l 1
 350 8 l 1
 229 594 l 1
 227 598 224 603 222 609 c 0
 220 615 217 620 213 623 c 0
 206 629 199 634 190 636 c 0
 182 638 170 639 154 639 c 1
 166 696 l 1
 489 696 l 1
 479 641 l 1
 464 640 452 638 441 637 c 0
 431 636 422 631 414 625 c 0
 410 622 406 616 403 606 c 0
 402 599 403 589 406 575 c 2
 469 238 l 1
 678 582 l 2
 683 590 686 596 686 600 c 0
 689 611 687 620 682 627 c 0
 678 634 671 637 663 638 c 0
 654 639 639 639 618 639 c 1
 631 696 l 1
 872 696 l 1
 860 639 l 1
EndSplineSet
EndChar
StartChar: w
Encoding: 88 119
OldEncoding: 119
Width: 1107
VWidth: 1000
Flags: W
HStem: 676 20G<182 487 537 879 999 1219>
DStem: 219 602 408 510 332 20 457 231 625 477 651 373 457 231 385 -23 997 510 1130 573 825 231 764 -23
Fore
1208 643 m 1
 1181 636 1155 613 1130 573 c 2
 764 -23 l 1
 719 20 l 1
 651 373 l 1
 385 -23 l 1
 332 20 l 1
 219 602 l 2
 215 624 199 637 172 641 c 1
 182 696 l 1
 487 696 l 1
 477 641 l 1
 429 637 403 626 399 608 c 0
 398 601 398 590 399 574 c 0
 401 559 403 537 408 510 c 1
 457 231 l 1
 625 477 l 1
 604 602 l 1
 603 614 594 624 579 631 c 0
 563 638 545 641 526 641 c 1
 537 696 l 1
 879 696 l 1
 868 643 l 1
 788 625 l 1
 782 619 776 612 772 602 c 0
 772 597 776 566 784 510 c 2
 825 231 l 1
 997 510 l 2
 1004 521 1011 534 1017 549 c 0
 1023 564 1027 577 1030 588 c 0
 1038 623 1025 641 989 641 c 1
 999 696 l 1
 1219 696 l 1
 1208 643 l 1
EndSplineSet
EndChar
StartChar: x
Encoding: 89 120
OldEncoding: 120
Width: 815
VWidth: 1000
Flags: W
HStem: 0 21G<53 303 434 768> 639 57<514 541 577 590 820 834>
DStem: 399 358 428 272 190 125 295 117 428 272 549 416 498 115 674 135
Fore
768 0 m 1
 434 0 l 1
 444 51 l 1
 494 59 l 2
 500 62 504 68 506 78 c 0
 509 83 506 96 498 115 c 2
 428 272 l 1
 295 117 l 2
 285 106 278 96 271 87 c 0
 265 78 261 70 258 63 c 0
 255 59 259 56 269 54 c 0
 280 52 294 51 313 51 c 1
 303 0 l 1
 53 0 l 1
 63 51 l 1
 81 54 95 57 104 59 c 0
 114 62 121 65 125 68 c 0
 145 79 167 98 190 125 c 2
 399 358 l 1
 313 559 l 2
 307 574 300 589 293 604 c 0
 286 619 276 628 262 631 c 2
 199 639 l 1
 211 696 l 1
 553 696 l 1
 541 639 l 1
 498 639 477 634 475 623 c 0
 471 610 485 568 516 496 c 1
 547 531 572 559 590 581 c 0
 608 602 618 616 621 623 c 0
 622 634 603 639 565 639 c 1
 578 696 l 1
 846 696 l 1
 834 639 l 1
 778 639 734 621 702 584 c 1
 549 416 l 1
 674 135 l 2
 696 85 730 57 778 51 c 1
 768 0 l 1
EndSplineSet
MinimumDistance: x36,-1 
EndChar
StartChar: y
Encoding: 90 121
OldEncoding: 121
Width: 780
VWidth: 1000
Flags: W
HStem: -334 193<121 129> 651 58<508 535 681 685 894.475 908>
DStem: 262 614 444 588 397 39 524 244
Fore
467 -14 m 1
 823 596 l 2
 833 614 845 627 860 637 c 0
 875 646 891 651 907 651 c 1
 920 709 l 1
 682 709 l 1
 670 651 l 1
 696 651 714 648 725 641 c 0
 728 638 730 635 731 630 c 0
 733 625 733 621 731 618 c 2
 524 244 l 1
 444 588 l 1
 440 600 440 612 442 625 c 0
 446 642 477 651 535 651 c 1
 547 709 l 1
 207 709 l 1
 195 651 l 1
 233 643 255 631 262 614 c 1
 397 39 l 1
 332 -72 l 2
 313 -104 294 -129 275 -145 c 0
 257 -162 241 -170 227 -170 c 0
 222 -170 216 -169 210 -166 c 0
 204 -163 198 -160 193 -158 c 0
 182 -152 171 -148 162 -145 c 0
 152 -143 141 -141 127 -141 c 0
 96 -141 70 -151 51 -171 c 0
 32 -191 20 -212 16 -236 c 0
 10 -264 15 -288 32 -306 c 0
 49 -325 79 -334 123 -334 c 0
 224 -334 339 -227 467 -14 c 1
EndSplineSet
MinimumDistance: x10,-1 
EndChar
StartChar: z
Encoding: 91 122
OldEncoding: 122
Width: 718
VWidth: 1000
Flags: W
HStem: 0 80<279 472> 614 82<374 559>
DStem: 559 614 778 651 63 41 279 80
Fore
707 225 m 1
 639 0 l 1
 55 0 l 1
 63 41 l 1
 559 614 l 1
 389 614 l 2
 350 614 321 602 302 578 c 0
 284 553 269 522 258 485 c 1
 188 485 l 1
 242 696 l 1
 786 696 l 1
 778 651 l 1
 279 80 l 1
 444 80 l 2
 500 80 543 91 571 115 c 0
 600 138 626 181 649 244 c 1
 707 225 l 1
EndSplineSet
EndChar
StartChar: braceleft
Encoding: 92 123
OldEncoding: 123
Width: 440
VWidth: 1000
Flags: W
DStem: 205 207 334 186 154 -35 287 -43 326 772 461 778 272 522 412 545
Fore
358 -248 m 1
 315 -248 278 -245 249 -240 c 0
 219 -234 197 -224 182 -209 c 0
 147 -176 137 -118 154 -35 c 1
 205 207 l 2
 214 251 211 283 194 305 c 0
 176 327 140 347 84 367 c 1
 145 383 190 403 218 426 c 0
 246 449 264 481 272 522 c 1
 326 772 l 1
 335 813 348 848 364 876 c 0
 379 904 401 926 428 942 c 0
 468 969 532 983 621 983 c 1
 610 934 l 1
 563 923 528 906 507 883 c 0
 486 859 470 825 461 778 c 2
 412 545 l 1
 399 490 382 447 360 416 c 1
 340 393 316 376 289 367 c 1
 319 349 337 327 342 302 c 0
 347 277 345 238 334 186 c 2
 287 -43 l 1
 276 -89 276 -124 289 -146 c 0
 301 -169 328 -187 369 -201 c 1
 358 -248 l 1
EndSplineSet
EndChar
StartChar: bar
Encoding: 93 124
OldEncoding: 124
Width: 137
VWidth: 1000
Flags: W
DStem: 231 977 303 977 -27 -240 45 -240
Fore
45 -240 m 1
 -27 -240 l 1
 231 977 l 1
 303 977 l 1
 45 -240 l 1
EndSplineSet
EndChar
StartChar: braceright
Encoding: 94 125
OldEncoding: 125
Width: 385
VWidth: 1000
Flags: W
DStem: 180 186 313 207 133 -43 262 -35 307 778 434 770 258 545 381 522
Fore
442 348 m 1
 403 337 374 322 355 301 c 0
 337 281 323 249 313 207 c 1
 262 -35 l 1
 246 -115 213 -173 164 -209 c 0
 145 -223 119 -232 86 -239 c 0
 53 -245 14 -248 -31 -248 c 1
 -20 -201 l 1
 64 -179 115 -126 133 -43 c 1
 180 186 l 1
 193 242 209 284 229 311 c 2
 227 309 l 2
 244 332 268 351 299 365 c 1
 270 381 254 402 249 429 c 0
 244 456 247 494 258 545 c 2
 307 778 l 2
 317 823 315 858 303 882 c 0
 291 906 264 923 221 934 c 1
 231 983 l 1
 324 983 384 969 412 942 c 0
 444 911 452 853 434 770 c 2
 381 522 l 2
 366 450 389 403 451 383 c 1
 442 348 l 1
EndSplineSet
EndChar
StartChar: asciitilde
Encoding: 95 126
OldEncoding: 126
Width: 753
VWidth: 1000
Flags: W
Fore
784 346 m 1
 727 293 l 1
 690 264 l 2
 656 240 616 227 569 227 c 0
 553 227 533 230 509 237 c 0
 485 243 457 253 426 268 c 0
 373 294 328 307 293 307 c 0
 259 307 214 274 160 207 c 1
 106 297 l 1
 171 378 242 418 322 418 c 0
 357 418 406 403 467 375 c 0
 494 362 519 353 541 347 c 0
 563 341 580 337 594 336 c 0
 625 336 671 369 731 436 c 1
 784 346 l 1
EndSplineSet
EndChar
StartChar: uni0E01
Encoding: 97 3585
OldEncoding: 3585
Width: 813
VWidth: 1000
Flags: W
HStem: 0 21G<117 266 551 700>
DStem: 201 395 356 422 117 0 266 0 662 524 811 524 551 0 700 0
Fore
700 0 m 1
 551 0 l 1
 662 524 l 2
 672 575 664 615 637 644 c 0
 610 673 572 688 524 688 c 0
 455 688 394 670 342 635 c 1
 394 624 436 588 467 528 c 1
 438 519 414 505 394 487 c 0
 374 470 362 448 356 422 c 2
 266 0 l 1
 117 0 l 1
 201 395 l 1
 217 468 257 520 322 553 c 1
 305 560 285 565 262 568 c 0
 239 572 213 573 184 573 c 1
 203 610 228 642 257 668 c 0
 286 694 320 717 358 737 c 0
 421 771 484 788 547 788 c 0
 640 788 709 767 756 725 c 1
 813 679 831 612 811 524 c 1
 700 0 l 1
EndSplineSet
MinimumDistance: x19,-1 
EndChar
StartChar: uni0E02
Encoding: 98 3586
OldEncoding: 3586
Width: 739
VWidth: 1000
Flags: W
HStem: 0 72<118 193 342 441> 463 41<255 267> 693 20G<365 381> 750 20G<631 780>
DStem: 254 360 406 362 193 72 342 72 631 770 780 770 494 125 643 125
Fore
643 125 m 2
 780 770 l 1
 631 770 l 1
 494 125 l 1
 485 89 466 72 434 72 c 2
 342 72 l 1
 406 362 l 2
 408 375 418 394 435 419 c 0
 452 444 470 467 487 487 c 0
 512 519 530 544 542 564 c 0
 553 584 560 601 563 616 c 0
 574 670 564 712 531 742 c 0
 499 773 455 788 397 788 c 0
 343 788 295 770 255 734 c 0
 215 698 189 652 178 596 c 0
 173 566 176 536 189 507 c 0
 202 478 224 463 254 463 c 0
 285 463 313 477 337 506 c 0
 361 535 376 565 383 596 c 0
 386 612 387 628 388 644 c 0
 389 660 386 674 379 686 c 0
 375 697 370 706 365 713 c 1
 381 713 l 2
 401 713 419 707 434 695 c 0
 449 684 455 667 451 645 c 0
 446 626 440 610 430 597 c 0
 421 584 402 563 375 535 c 0
 343 500 317 470 296 442 c 0
 275 415 261 388 254 360 c 1
 193 72 l 1
 119 72 l 1
 104 0 l 1
 510 0 l 2
 581 0 625 42 643 125 c 2
238 584 m 0
 242 607 250 626 261 642 c 0
 273 658 285 666 299 666 c 0
 313 666 322 658 328 642 c 0
 333 626 334 607 330 584 c 0
 324 560 315 541 303 526 c 0
 291 511 278 504 264 504 c 0
 251 504 241 511 237 526 c 0
 232 541 232 560 238 584 c 0
EndSplineSet
EndChar
StartChar: uni0E03
Encoding: 99 3587
OldEncoding: 3587
Width: 778
VWidth: 1000
Flags: W
HStem: 0 72<173 244 393 497> 457 51<235 250> 713 75<329 352 498 504> 752 20G<690 840>
DStem: 305 358 455 360 244 72 393 72 690 772 840 772 553 125 702 125
Fore
702 125 m 1
 840 772 l 1
 690 772 l 1
 553 125 l 2
 550 113 542 101 527 89 c 0
 513 77 500 72 487 72 c 2
 393 72 l 1
 455 360 l 1
 457 375 465 395 478 418 c 0
 491 441 509 466 530 494 c 0
 554 521 573 549 590 577 c 0
 606 605 616 624 618 635 c 0
 629 683 625 720 604 748 c 0
 584 775 554 788 514 788 c 0
 484 788 456 777 430 754 c 1
 423 765 414 773 403 779 c 0
 393 785 375 788 352 788 c 0
 328 788 304 783 283 772 c 0
 261 761 241 746 224 728 c 0
 207 710 193 688 181 665 c 0
 170 641 161 616 156 590 c 0
 147 550 152 518 169 494 c 0
 186 469 208 457 236 457 c 0
 268 457 296 470 318 498 c 0
 341 525 356 556 362 590 c 0
 369 625 370 654 365 675 c 0
 359 696 347 709 330 713 c 1
 357 713 373 703 377 685 c 0
 381 667 381 646 377 625 c 1
 432 625 l 1
 444 683 466 713 498 713 c 0
 521 713 529 696 522 662 c 0
 520 651 511 638 497 623 c 0
 482 608 463 587 438 561 c 0
 400 519 370 481 348 449 c 0
 326 416 312 386 305 358 c 1
 244 72 l 1
 174 72 l 1
 160 0 l 1
 573 0 l 2
 605 0 634 14 659 43 c 0
 670 54 680 67 687 81 c 0
 695 95 700 110 702 125 c 1
217 586 m 0
 221 609 229 628 242 643 c 0
 254 658 267 666 281 666 c 0
 294 666 304 658 309 643 c 0
 315 628 315 609 311 586 c 0
 306 563 297 544 286 529 c 0
 274 515 261 508 248 508 c 0
 234 508 224 515 218 529 c 0
 212 544 212 563 217 586 c 0
EndSplineSet
EndChar
StartChar: uni0E04
Encoding: 100 3588
OldEncoding: 3588
Width: 782
VWidth: 1000
Flags: W
HStem: 0 21G<156 305 530 680> 301 51<416 440> 514 61<464 481>
DStem: 649 557 799 557 530 0 680 0
Fore
416 301 m 0
 433 301 450 305 466 313 c 0
 482 322 496 332 509 345 c 0
 522 358 533 372 542 388 c 0
 551 404 556 420 559 436 c 0
 567 474 564 507 548 535 c 0
 532 562 505 575 467 575 c 0
 429 575 393 560 358 529 c 0
 324 499 299 459 283 412 c 1
 276 428 271 444 268 460 c 0
 266 475 266 493 270 512 c 0
 283 568 310 612 352 643 c 0
 395 674 451 690 520 690 c 0
 564 690 598 676 623 648 c 0
 647 620 656 590 649 557 c 2
 530 0 l 1
 680 0 l 1
 799 557 l 2
 807 597 805 632 792 663 c 0
 779 693 758 719 731 739 c 0
 686 772 623 788 543 788 c 0
 443 788 362 767 299 723 c 1
 261 700 229 670 203 634 c 0
 177 598 159 556 150 508 c 0
 145 490 145 467 147 437 c 0
 150 408 158 370 170 324 c 0
 181 281 187 241 189 203 c 0
 191 165 189 130 182 98 c 2
 178 78 l 1
 156 0 l 1
 305 0 l 1
 312 15 318 31 323 49 c 0
 327 67 331 84 334 100 c 0
 338 115 342 138 345 169 c 0
 349 200 352 225 356 244 c 0
 359 257 362 269 367 279 c 0
 371 288 375 299 379 311 c 1
 390 304 402 301 416 301 c 0
406 432 m 0
 411 455 420 475 432 490 c 0
 444 506 458 514 473 514 c 0
 488 514 499 506 506 490 c 0
 513 475 513 455 508 432 c 0
 502 409 494 390 481 375 c 0
 469 360 455 352 440 352 c 0
 425 352 414 360 408 375 c 0
 401 390 400 409 406 432 c 0
EndSplineSet
EndChar
StartChar: uni0E05
Encoding: 101 3589
OldEncoding: 3589
Width: 798
VWidth: 1000
Flags: W
HStem: 0 21G<160 309 547 696> 301 51<420 444> 514 61<468 485> 694 94<403 422 618 645>
DStem: 674 598 823 594 547 0 696 0
Fore
420 301 m 0
 438 301 454 305 470 313 c 0
 486 322 500 332 513 345 c 0
 526 358 537 372 546 388 c 0
 555 404 560 420 563 436 c 0
 571 474 568 507 552 535 c 0
 536 562 509 575 471 575 c 0
 433 575 397 560 362 529 c 0
 328 499 303 459 287 412 c 1
 279 435 273 458 270 480 c 0
 268 503 269 526 274 549 c 0
 295 646 341 694 412 694 c 0
 446 694 463 664 463 604 c 1
 524 604 l 1
 546 664 578 694 618 694 c 0
 669 694 687 662 674 598 c 2
 547 0 l 1
 696 0 l 1
 823 594 l 2
 827 614 827 636 821 659 c 0
 816 683 806 704 791 723 c 0
 776 742 756 758 731 770 c 0
 707 782 678 788 645 788 c 0
 597 788 556 771 522 737 c 1
 503 771 468 788 418 788 c 0
 386 788 356 782 328 769 c 0
 299 756 273 739 251 717 c 0
 228 695 209 669 193 640 c 0
 176 611 165 580 158 547 c 0
 154 529 151 513 150 500 c 0
 148 486 148 472 150 457 c 0
 151 442 154 424 158 403 c 0
 162 383 167 357 172 326 c 0
 180 282 186 241 190 203 c 0
 195 165 193 130 186 98 c 2
 182 78 l 1
 160 0 l 1
 309 0 l 1
 316 15 322 31 327 49 c 0
 331 67 335 84 338 100 c 0
 342 115 346 138 349 169 c 0
 353 200 356 225 360 244 c 0
 363 257 367 269 371 279 c 0
 375 288 379 299 383 311 c 1
 394 304 406 301 420 301 c 0
410 432 m 0
 415 455 424 475 436 490 c 0
 449 506 462 514 477 514 c 0
 492 514 503 506 510 490 c 0
 517 475 517 455 512 432 c 0
 507 409 498 390 485 375 c 0
 473 360 459 352 444 352 c 0
 429 352 418 360 412 375 c 0
 405 390 404 409 410 432 c 0
EndSplineSet
EndChar
StartChar: uni0E06
Encoding: 102 3590
OldEncoding: 3590
Width: 874
VWidth: 1000
Flags: W
HStem: -6 108<253 276> 0 21G<616 772> 457 51<255 270> 713 75<350 373 518 535> 752 20G<784 936>
DStem: 784 772 936 772 672 238 772 0
Fore
481 360 m 2
 484 375 492 395 505 418 c 0
 518 441 535 466 557 494 c 0
 580 521 599 549 613 577 c 0
 628 605 636 624 639 635 c 0
 650 683 645 720 625 748 c 0
 604 775 574 788 535 788 c 0
 504 788 477 777 451 754 c 1
 444 765 435 773 424 779 c 0
 413 785 396 788 373 788 c 0
 348 788 325 783 303 772 c 0
 281 761 262 746 245 728 c 0
 228 710 213 688 202 665 c 0
 190 641 182 616 176 590 c 0
 168 550 172 518 189 494 c 0
 207 469 229 457 256 457 c 0
 289 457 316 470 339 498 c 0
 361 525 376 556 383 590 c 0
 390 625 390 654 385 675 c 0
 380 696 368 709 350 713 c 1
 378 713 393 703 397 685 c 0
 401 667 401 646 397 625 c 1
 453 625 l 1
 465 683 487 713 518 713 c 0
 541 713 550 696 543 662 c 0
 540 651 531 638 517 623 c 0
 503 608 483 587 459 561 c 0
 421 519 392 481 372 449 c 0
 352 416 339 386 332 358 c 2
 328 342 l 1
 285 334 247 313 214 280 c 0
 181 246 159 208 150 164 c 0
 139 115 145 74 169 42 c 0
 193 10 229 -6 276 -6 c 0
 317 -6 351 5 378 27 c 0
 404 48 423 81 432 125 c 2
 459 250 l 1
 507 239 543 212 568 168 c 0
 594 124 610 68 616 0 c 1
 772 0 l 1
 936 772 l 1
 784 772 l 1
 672 238 l 1
 651 268 623 293 588 312 c 0
 552 332 516 343 479 346 c 1
 481 360 l 2
238 586 m 0
 242 609 250 628 262 643 c 0
 274 658 287 666 301 666 c 0
 315 666 324 658 330 643 c 0
 335 628 336 609 332 586 c 0
 326 563 318 544 306 529 c 0
 295 515 282 508 268 508 c 0
 255 508 245 515 239 529 c 0
 232 544 232 563 238 586 c 0
309 250 m 1
 285 139 l 2
 283 131 281 123 276 115 c 0
 272 106 265 102 254 102 c 0
 242 102 232 108 225 118 c 0
 218 128 217 143 221 162 c 0
 227 186 238 206 256 221 c 0
 274 236 291 246 309 250 c 1
EndSplineSet
EndChar
StartChar: uni0E07
Encoding: 103 3591
OldEncoding: 3591
Width: 604
VWidth: 1000
Flags: W
HStem: 0 21G<362 502> 512 51<421 429>
DStem: 463 522 637 635 395 199 502 0
Fore
502 0 m 1
 637 635 l 2
 646 680 641 717 621 745 c 0
 600 774 567 788 520 788 c 0
 482 788 446 774 412 746 c 0
 378 719 356 683 346 639 c 0
 339 608 343 579 357 552 c 0
 372 525 395 512 426 512 c 0
 437 512 449 515 463 522 c 1
 395 199 l 1
 166 561 l 1
 109 512 l 1
 362 0 l 1
 502 0 l 1
397 639 m 0
 403 661 411 679 423 694 c 0
 435 709 446 717 459 717 c 0
 471 717 480 709 486 694 c 0
 493 679 493 661 487 639 c 0
 483 617 475 599 463 585 c 0
 451 570 438 563 426 563 c 0
 414 563 405 570 399 585 c 0
 394 599 393 617 397 639 c 0
EndSplineSet
EndChar
StartChar: uni0E08
Encoding: 104 3592
OldEncoding: 3592
Width: 638
VWidth: 1000
Flags: W
HStem: 0 21G<387 537> 276 52<268 282> 688 100<383 438>
Fore
537 0 m 1
 657 565 l 2
 664 598 664 628 657 655 c 0
 651 683 636 707 612 729 c 0
 591 748 564 763 532 773 c 0
 501 783 470 788 438 788 c 0
 321 788 215 724 121 594 c 1
 166 563 l 1
 241 646 313 688 383 688 c 0
 425 688 459 675 483 649 c 0
 508 623 515 588 506 545 c 2
 485 451 l 1
 458 519 413 553 350 553 c 0
 312 553 279 539 251 510 c 0
 223 481 205 448 199 410 c 0
 190 371 193 340 207 314 c 0
 221 289 242 276 270 276 c 0
 300 276 326 288 348 311 c 0
 370 335 386 364 395 399 c 1
 399 391 401 384 401 377 c 0
 408 333 412 280 413 218 c 0
 413 156 405 83 387 0 c 1
 537 0 l 1
250 410 m 0
 254 433 262 452 273 468 c 0
 285 484 297 492 309 492 c 0
 322 492 330 484 336 468 c 0
 341 452 342 433 338 410 c 0
 332 386 324 367 311 351 c 0
 299 336 287 328 274 328 c 0
 262 328 254 336 249 351 c 0
 244 367 244 386 250 410 c 0
EndSplineSet
EndChar
StartChar: uni0E09
Encoding: 105 3593
OldEncoding: 3593
Width: 921
VWidth: 1000
Flags: W
HStem: 0 21G<193 342> 274 52<211 219>
DStem: 657 520 811 541 621 346 768 342
Fore
426 397 m 1
 437 442 431 479 410 508 c 0
 388 537 354 551 307 551 c 0
 269 551 233 537 201 509 c 0
 168 481 147 445 137 401 c 0
 130 370 134 341 147 314 c 0
 161 288 184 274 215 274 c 0
 225 274 238 278 254 285 c 1
 193 0 l 1
 342 0 l 1
 378 70 418 126 463 169 c 0
 508 212 554 240 600 254 c 1
 573 125 l 2
 564 81 569 48 589 27 c 0
 609 5 638 -6 676 -6 c 0
 770 -6 829 51 854 166 c 0
 876 264 847 323 768 342 c 1
 811 541 l 2
 821 584 821 622 812 654 c 0
 803 686 782 713 750 735 c 0
 698 771 627 788 539 788 c 0
 507 788 475 784 441 774 c 0
 408 765 375 751 344 733 c 0
 313 715 284 694 257 669 c 0
 230 643 208 616 190 586 c 1
 236 557 l 1
 319 644 411 688 512 688 c 0
 567 688 607 674 634 646 c 0
 660 618 668 576 657 520 c 1
 621 346 l 1
 530 331 455 295 393 238 c 1
 426 397 l 1
188 401 m 0
 193 423 201 442 213 457 c 0
 225 472 238 479 250 479 c 0
 262 479 271 472 276 457 c 0
 282 442 283 423 279 401 c 0
 273 380 265 361 253 347 c 0
 241 333 229 326 217 326 c 0
 205 326 196 333 189 347 c 0
 183 361 183 380 188 401 c 0
780 158 m 0
 778 143 773 130 766 119 c 0
 759 108 752 102 743 102 c 0
 738 102 733 104 728 109 c 0
 723 113 722 120 725 131 c 1
 750 250 l 1
 767 246 778 234 781 214 c 0
 785 194 784 175 780 158 c 0
EndSplineSet
MinimumDistance: x17,-1 
EndChar
StartChar: uni0E0A
Encoding: 106 3594
OldEncoding: 3594
Width: 733
VWidth: 1000
Flags: W
HStem: 0 72<118 193 336 441> 463 41<255 267> 693 20G<365 381>
DStem: 254 360 399 362 193 72 336 72 553 430 702 430 487 125 637 125
Fore
637 125 m 2
 702 430 l 1
 712 479 708 521 690 555 c 1
 692 555 l 1
 687 567 681 578 676 588 c 0
 670 597 664 606 655 612 c 1
 691 627 718 650 736 680 c 0
 755 710 769 748 778 795 c 1
 788 836 l 1
 631 836 l 1
 621 795 l 1
 610 736 589 696 559 674 c 1
 555 709 538 737 509 758 c 0
 480 778 442 788 397 788 c 0
 343 788 295 770 255 734 c 0
 215 698 189 652 178 596 c 0
 173 566 176 536 189 507 c 0
 202 478 224 463 254 463 c 0
 285 463 313 477 337 506 c 0
 361 535 376 565 383 596 c 0
 386 612 387 628 388 644 c 0
 389 660 386 674 379 686 c 0
 375 697 370 706 365 713 c 1
 381 713 l 2
 401 713 419 707 434 695 c 0
 449 684 455 667 451 645 c 0
 446 626 440 610 430 597 c 0
 421 584 402 563 375 535 c 0
 343 500 317 470 296 442 c 0
 275 415 261 388 254 360 c 1
 193 72 l 1
 119 72 l 1
 104 0 l 1
 500 0 l 2
 534 0 563 10 587 31 c 0
 611 51 627 83 637 125 c 2
553 430 m 2
 487 125 l 1
 479 89 459 72 428 72 c 2
 336 72 l 1
 399 362 l 2
 402 375 412 394 429 419 c 0
 446 444 464 467 481 487 c 0
 498 509 513 530 526 551 c 1
 540 540 550 525 555 505 c 0
 560 485 560 460 553 430 c 2
238 584 m 0
 242 607 250 626 261 642 c 0
 273 658 285 666 299 666 c 0
 313 666 322 658 328 642 c 0
 333 626 334 607 330 584 c 0
 324 560 315 541 303 526 c 0
 291 511 278 504 264 504 c 0
 251 504 241 511 237 526 c 0
 232 541 232 560 238 584 c 0
EndSplineSet
MinimumDistance: x1,-1 
EndChar
StartChar: uni0E0B
Encoding: 107 3595
OldEncoding: 3595
Width: 784
VWidth: 1000
Flags: W
HStem: 0 72<179 250 399 504> 457 51<235 250> 713 75<329 352 498 518>
DStem: 311 358 461 360 250 72 399 72 625 434 774 434 559 125 709 125
Fore
709 125 m 2
 774 434 l 2
 795 532 781 596 733 625 c 1
 793 653 833 711 852 799 c 2
 860 838 l 1
 700 838 l 1
 692 799 l 2
 685 767 677 739 666 714 c 0
 655 688 642 672 629 664 c 1
 633 703 624 734 603 756 c 0
 582 778 554 788 518 788 c 0
 485 788 456 777 430 754 c 1
 423 765 414 773 403 779 c 0
 393 785 375 788 352 788 c 0
 328 788 304 783 283 772 c 0
 261 761 241 746 224 728 c 0
 207 710 193 688 181 665 c 0
 170 641 161 616 156 590 c 0
 147 550 152 518 169 494 c 0
 186 469 208 457 236 457 c 0
 268 457 296 470 318 498 c 0
 341 525 356 556 362 590 c 0
 369 625 370 654 365 675 c 0
 359 696 347 709 330 713 c 1
 357 713 373 703 377 685 c 0
 381 667 381 646 377 625 c 1
 432 625 l 1
 444 683 466 713 498 713 c 0
 521 713 529 696 522 662 c 0
 520 651 511 638 497 623 c 0
 482 608 463 587 438 561 c 0
 400 519 371 481 351 449 c 0
 331 416 318 386 311 358 c 1
 250 72 l 1
 180 72 l 1
 166 0 l 1
 575 0 l 2
 611 0 641 12 666 37 c 0
 677 48 686 61 693 78 c 0
 701 94 706 110 709 125 c 2
625 434 m 2
 559 125 l 2
 556 113 548 101 534 89 c 0
 519 77 506 72 494 72 c 2
 399 72 l 1
 461 360 l 1
 464 375 471 395 484 418 c 0
 497 441 515 466 537 494 c 0
 547 506 558 519 567 532 c 0
 577 546 585 559 592 571 c 1
 611 563 623 547 628 522 c 0
 632 498 631 468 625 434 c 2
217 586 m 0
 221 609 229 628 242 643 c 0
 254 658 267 666 281 666 c 0
 294 666 304 658 309 643 c 0
 315 628 315 609 311 586 c 0
 306 563 297 544 286 529 c 0
 274 515 261 508 248 508 c 0
 234 508 224 515 218 529 c 0
 212 544 212 563 217 586 c 0
EndSplineSet
MinimumDistance: x1,-1 
EndChar
StartChar: uni0E0C
Encoding: 108 3596
OldEncoding: 3596
Width: 1107
VWidth: 1000
Flags: W
HStem: 0 21G<850 1006> 211 51<344 356> 690 98<519 549> 752 20G<1020 1169>
DStem: 190 395 346 422 135 139 309 254 674 520 823 520 635 338 784 342 1020 772 1169 772 915 283 1006 0
Fore
1006 0 m 1
 1169 772 l 1
 1020 772 l 1
 915 283 l 1
 884 314 840 334 784 342 c 1
 823 520 l 1
 834 567 833 607 820 641 c 0
 807 675 786 704 758 727 c 0
 713 768 642 788 547 788 c 0
 515 788 483 784 449 776 c 0
 414 768 382 755 350 737 c 0
 274 699 218 644 184 573 c 1
 251 573 300 567 330 555 c 1
 294 540 264 520 240 494 c 0
 215 468 199 435 190 395 c 2
 135 139 l 1
 126 91 133 54 158 28 c 0
 182 1 218 -12 266 -12 c 0
 355 -12 409 32 428 121 c 0
 432 137 434 154 433 171 c 0
 432 188 429 203 424 217 c 0
 418 231 410 242 398 250 c 0
 387 258 371 262 352 262 c 0
 345 262 338 261 331 260 c 0
 323 259 316 257 309 254 c 1
 346 422 l 1
 353 449 367 472 389 489 c 0
 411 507 438 520 469 528 c 1
 438 588 394 625 338 637 c 1
 393 672 455 690 526 690 c 0
 577 690 617 675 646 644 c 0
 675 613 685 572 674 520 c 2
 635 338 l 1
 534 308 473 248 453 158 c 0
 442 109 447 68 469 36 c 0
 491 4 528 -12 580 -12 c 0
 666 -12 719 32 739 121 c 1
 766 248 l 1
 785 241 799 231 807 217 c 0
 815 203 823 188 831 170 c 0
 841 151 849 127 854 98 c 0
 859 70 858 37 850 0 c 1
 1006 0 l 1
283 129 m 0
 288 152 297 172 309 187 c 0
 322 203 335 211 348 211 c 0
 362 211 371 203 377 187 c 0
 382 172 382 152 377 129 c 0
 373 106 365 87 352 72 c 0
 340 57 327 49 313 49 c 0
 300 49 290 57 285 72 c 0
 279 87 279 106 283 129 c 0
616 246 m 1
 596 150 l 2
 592 130 585 117 577 109 c 0
 568 100 558 96 549 96 c 0
 541 96 533 100 526 109 c 0
 520 117 519 130 524 150 c 0
 531 181 544 204 562 219 c 0
 581 234 599 243 616 246 c 1
EndSplineSet
EndChar
StartChar: uni0E0D
Encoding: 109 3597
OldEncoding: 3597
Width: 1101
VWidth: 1000
Flags: W
HStem: -387 74<664 696> -104 51<658 676> 0 74<721 828> 211 51<344 356> 690 98<524 547> 752 20G<1014 1163>
DStem: 190 395 346 422 135 139 309 254 666 520 815 520 555 0 721 74 1014 772 1163 772 877 127 1026 127
Fore
1026 127 m 2
 1163 772 l 1
 1014 772 l 1
 877 127 l 1
 874 109 867 96 855 87 c 0
 843 78 830 74 815 74 c 2
 721 74 l 1
 815 520 l 1
 836 613 819 682 764 727 c 0
 741 748 711 763 674 773 c 0
 637 783 595 788 547 788 c 0
 483 788 419 771 356 737 c 0
 317 717 283 693 254 667 c 0
 225 640 202 609 184 573 c 1
 247 573 294 567 324 555 c 1
 288 540 259 520 237 494 c 0
 214 468 199 435 190 395 c 2
 135 139 l 1
 126 91 133 54 158 28 c 0
 182 1 218 -12 266 -12 c 0
 355 -12 409 32 428 121 c 0
 432 137 434 154 433 171 c 0
 432 188 429 203 424 217 c 0
 418 231 410 242 398 250 c 0
 387 258 371 262 352 262 c 0
 345 262 338 261 331 260 c 0
 323 259 316 257 309 254 c 1
 346 422 l 1
 353 449 367 472 389 489 c 0
 411 507 438 520 469 528 c 1
 438 588 394 625 338 637 c 1
 393 672 455 690 526 690 c 0
 577 690 615 675 642 644 c 0
 669 613 677 572 666 520 c 2
 555 0 l 1
 889 0 l 2
 963 0 1008 42 1026 127 c 2
987 -53 m 1
 838 -53 l 1
 825 -145 l 1
 821 -165 815 -184 808 -203 c 0
 800 -222 792 -237 782 -248 c 0
 771 -264 758 -279 741 -293 c 0
 725 -307 710 -313 696 -313 c 0
 679 -313 664 -309 651 -301 c 1
 674 -294 695 -279 714 -256 c 0
 732 -233 744 -208 750 -180 c 0
 756 -147 753 -118 739 -92 c 0
 726 -66 703 -53 672 -53 c 0
 632 -53 597 -67 566 -93 c 0
 536 -120 516 -154 508 -195 c 0
 496 -251 504 -297 535 -333 c 0
 565 -369 608 -387 664 -387 c 0
 745 -387 814 -359 869 -304 c 0
 925 -249 964 -165 987 -53 c 1
283 129 m 0
 288 152 297 172 309 187 c 0
 322 203 335 211 348 211 c 0
 362 211 371 203 377 187 c 0
 382 172 382 152 377 129 c 0
 373 106 365 87 352 72 c 0
 340 57 327 49 313 49 c 0
 300 49 290 57 285 72 c 0
 279 87 279 106 283 129 c 0
606 -172 m 0
 610 -153 618 -137 630 -124 c 0
 641 -111 654 -104 668 -104 c 0
 681 -104 691 -111 697 -124 c 0
 703 -137 705 -153 700 -172 c 0
 696 -191 688 -208 677 -221 c 0
 665 -235 653 -242 639 -242 c 0
 625 -242 615 -235 609 -221 c 0
 603 -208 602 -191 606 -172 c 0
EndSplineSet
EndChar
StartChar: uni0E0E
Encoding: 110 3598
OldEncoding: 3598
Width: 864
VWidth: 1000
Flags: W
HStem: -319 21G<545 694> -301 61<242 271> -90 72<287 338> -12 61<149 176> 215 51<184 211>
DStem: 274 401 428 428 244 256 371 154 725 528 874 528 586 -123 694 -319
Fore
694 -319 m 1
 874 528 l 2
 884 573 884 614 873 649 c 0
 863 685 844 715 817 741 c 0
 794 765 768 780 740 787 c 0
 712 795 676 799 631 799 c 0
 599 799 567 795 532 786 c 0
 498 778 466 765 434 748 c 0
 396 727 362 703 332 677 c 0
 302 650 276 618 256 582 c 1
 286 582 313 580 337 577 c 0
 361 573 381 568 397 561 c 1
 366 545 340 524 318 498 c 0
 297 472 283 440 274 401 c 2
 244 256 l 1
 230 263 219 266 211 266 c 0
 175 266 145 252 119 223 c 0
 93 195 76 162 68 125 c 0
 57 79 61 44 82 22 c 0
 102 -1 134 -12 176 -12 c 0
 203 -12 228 -7 251 4 c 0
 273 15 293 29 309 45 c 0
 326 61 339 79 349 98 c 0
 359 117 367 136 371 154 c 2
 428 428 l 1
 435 454 450 476 472 495 c 0
 495 513 520 526 549 535 c 1
 534 565 515 589 492 607 c 0
 468 626 444 638 418 645 c 1
 472 681 535 698 606 698 c 0
 655 698 690 683 711 652 c 0
 731 622 736 580 725 528 c 2
 586 -123 l 1
 575 -112 566 -103 558 -97 c 0
 551 -91 542 -85 532 -78 c 1
 537 -67 542 -51 549 -30 c 0
 556 -9 562 13 567 35 c 1
 469 35 l 1
 459 -3 453 -27 449 -37 c 1
 431 -31 413 -27 394 -24 c 0
 376 -20 357 -18 338 -18 c 0
 290 -18 245 -32 202 -58 c 0
 159 -85 132 -122 121 -170 c 0
 117 -193 118 -213 124 -230 c 0
 130 -247 140 -261 154 -271 c 0
 167 -282 184 -289 204 -294 c 0
 224 -299 244 -301 264 -301 c 0
 276 -301 288 -300 298 -299 c 0
 308 -298 318 -296 328 -293 c 0
 366 -283 397 -269 420 -250 c 0
 443 -231 461 -212 473 -195 c 1
 487 -210 499 -227 511 -248 c 0
 523 -268 534 -292 545 -319 c 1
 694 -319 l 1
346 -215 m 0
 338 -222 324 -228 304 -232 c 0
 284 -237 270 -240 262 -240 c 0
 231 -240 209 -233 196 -220 c 0
 183 -207 178 -190 182 -170 c 0
 188 -150 202 -131 224 -115 c 0
 247 -98 268 -90 287 -90 c 0
 319 -90 345 -95 362 -104 c 0
 380 -114 396 -124 410 -135 c 1
 403 -153 395 -168 385 -180 c 0
 375 -193 362 -204 346 -215 c 0
121 131 m 0
 125 154 133 174 145 190 c 0
 158 207 171 215 184 215 c 0
 198 215 208 207 214 190 c 0
 220 174 221 154 217 131 c 0
 212 108 202 88 189 73 c 0
 176 57 163 49 150 49 c 0
 136 49 126 57 121 73 c 0
 115 88 115 108 121 131 c 0
EndSplineSet
EndChar
StartChar: uni0E0F
Encoding: 111 3599
OldEncoding: 3599
Width: 864
VWidth: 1000
Flags: W
HStem: -322 21G<375 451 559 694> -285 52<209 227> -94 71<244 283> -12 61<150 176> 215 51<184 211>
DStem: 274 401 428 428 244 256 371 154 725 528 874 528 594 -90 694 -322
Fore
559 4 m 1
 469 -135 l 1
 458 -117 445 -103 430 -92 c 1
 437 -81 444 -63 453 -37 c 0
 461 -11 466 9 469 23 c 1
 473 35 l 1
 383 35 l 1
 367 -43 l 1
 353 -36 340 -31 329 -28 c 0
 317 -24 302 -23 283 -23 c 0
 242 -23 203 -35 166 -59 c 0
 129 -84 106 -116 98 -156 c 0
 89 -198 96 -230 119 -252 c 0
 142 -274 173 -285 213 -285 c 0
 244 -285 273 -278 298 -263 c 0
 323 -249 345 -229 365 -205 c 1
 369 -221 372 -240 375 -260 c 0
 378 -281 378 -301 375 -322 c 1
 451 -322 l 1
 520 -209 l 1
 559 -322 l 1
 694 -322 l 1
 874 528 l 2
 884 573 884 614 876 650 c 0
 867 686 848 717 819 741 c 0
 795 762 768 777 740 785 c 0
 712 794 676 799 631 799 c 0
 599 799 567 795 532 786 c 0
 498 778 466 765 434 748 c 0
 396 727 362 703 332 677 c 0
 302 650 276 618 256 582 c 1
 286 582 313 580 337 577 c 0
 361 573 381 568 397 561 c 1
 366 545 340 524 318 498 c 0
 297 472 283 440 274 401 c 2
 244 256 l 1
 230 263 219 266 211 266 c 0
 175 266 145 252 119 223 c 0
 93 195 76 162 68 125 c 0
 57 79 61 44 82 22 c 0
 102 -1 134 -12 176 -12 c 0
 203 -12 228 -7 251 4 c 0
 273 15 293 29 309 45 c 0
 326 61 339 79 349 98 c 0
 359 117 367 136 371 154 c 2
 428 428 l 1
 435 454 450 476 472 495 c 0
 495 513 520 526 549 535 c 1
 534 565 515 589 492 607 c 0
 468 626 444 638 418 645 c 1
 472 681 535 698 606 698 c 0
 655 698 690 683 711 652 c 0
 731 622 736 580 725 528 c 2
 594 -90 l 1
 559 4 l 1
121 131 m 0
 125 154 133 174 145 190 c 0
 158 207 171 215 184 215 c 0
 198 215 208 207 214 190 c 0
 220 174 221 154 217 131 c 0
 212 108 202 88 189 73 c 0
 176 57 163 49 150 49 c 0
 136 49 126 57 121 73 c 0
 115 88 115 108 121 131 c 0
225 -233 m 0
 202 -233 182 -227 165 -215 c 0
 148 -203 143 -183 150 -156 c 0
 152 -139 163 -125 181 -113 c 0
 200 -100 221 -94 244 -94 c 0
 266 -94 284 -99 298 -108 c 0
 312 -116 323 -126 330 -137 c 1
 327 -145 322 -155 315 -166 c 0
 309 -177 301 -187 292 -198 c 0
 283 -208 273 -216 261 -223 c 0
 250 -230 238 -233 225 -233 c 0
EndSplineSet
EndChar
StartChar: uni0E10
Encoding: 112 3600
OldEncoding: 3600
Width: 735
VWidth: 1000
Flags: W
HStem: -393 51<52 68> -393 389<355.494 384> -256 61<77 100> 0 21G<375 518> 211 51<254 264> 771 20G<723 801>
Fore
375 0 m 1
 518 0 l 1
 606 410 l 1
 613 446 610 480 596 510 c 0
 582 540 560 565 528 586 c 0
 504 602 475 614 442 621 c 0
 410 627 373 631 334 631 c 2
 289 631 l 1
 317 662 357 678 408 678 c 0
 413 678 422 676 434 672 c 0
 446 668 460 663 475 657 c 0
 478 656 482 655 486 653 c 0
 491 652 495 651 498 649 c 0
 521 642 541 637 557 634 c 0
 573 630 588 629 600 629 c 0
 682 629 749 683 801 791 c 1
 723 791 l 1
 709 771 696 755 684 741 c 0
 672 728 658 721 643 721 c 0
 636 721 626 725 613 734 c 0
 600 743 588 752 575 760 c 2
 547 774 l 2
 529 785 511 792 494 796 c 0
 476 799 457 801 438 801 c 0
 410 801 381 794 352 781 c 0
 324 768 297 751 272 728 c 0
 248 706 226 680 207 650 c 0
 188 621 172 589 160 555 c 1
 257 555 329 547 377 532 c 0
 438 512 465 471 457 410 c 1
 429 452 388 473 334 473 c 0
 291 473 258 460 232 435 c 0
 207 410 190 378 182 340 c 0
 175 310 179 281 193 253 c 0
 206 225 227 211 256 211 c 0
 283 211 309 221 332 242 c 0
 355 262 371 287 381 315 c 1
 392 283 397 241 395 190 c 0
 394 140 386 80 371 10 c 1
 375 0 l 1
276 -238 m 1
 227 -291 l 1
 226 -287 225 -283 223 -281 c 0
 222 -278 221 -275 219 -272 c 1
 252 -231 l 1
 195 -195 l 1
 174 -223 l 1
 165 -215 154 -208 141 -203 c 0
 129 -197 115 -195 100 -195 c 0
 73 -195 47 -204 24 -224 c 0
 -0 -244 -16 -268 -23 -297 c 0
 -28 -324 -24 -347 -9 -366 c 0
 5 -384 26 -393 53 -393 c 0
 71 -393 89 -389 108 -382 c 0
 126 -374 143 -362 160 -344 c 1
 164 -350 l 1
 164 -361 162 -375 158 -393 c 1
 227 -393 l 1
 276 -348 l 1
 313 -393 l 1
 434 -393 l 1
 487 -145 l 1
 494 -117 493 -94 483 -77 c 0
 474 -60 466 -46 459 -37 c 0
 451 -26 439 -18 423 -12 c 0
 407 -7 390 -4 371 -4 c 0
 341 -4 313 -15 287 -37 c 0
 261 -59 244 -87 238 -121 c 0
 235 -132 233 -143 232 -155 c 0
 232 -166 233 -177 236 -188 c 0
 238 -199 243 -209 250 -218 c 0
 257 -227 266 -233 276 -238 c 1
233 336 m 0
 238 356 246 374 258 389 c 0
 270 404 283 412 295 412 c 0
 307 412 316 404 322 389 c 0
 327 374 328 356 324 336 c 0
 319 315 311 298 299 284 c 0
 287 269 274 262 262 262 c 0
 250 262 241 269 236 284 c 0
 230 298 229 315 233 336 c 0
289 -129 m 0
 291 -110 298 -94 308 -82 c 0
 318 -70 329 -63 340 -63 c 0
 351 -63 359 -70 365 -82 c 0
 370 -94 371 -110 369 -129 c 0
 365 -148 357 -164 346 -176 c 0
 335 -188 324 -195 313 -195 c 0
 302 -195 295 -188 290 -176 c 0
 285 -164 285 -148 289 -129 c 0
66 -342 m 0
 52 -342 42 -338 35 -329 c 0
 28 -320 26 -309 29 -297 c 0
 31 -285 38 -275 48 -267 c 0
 58 -260 68 -256 78 -256 c 0
 105 -256 124 -266 133 -285 c 1
 125 -298 115 -311 104 -324 c 0
 94 -336 81 -342 66 -342 c 0
344 -240 m 1
 338 -270 l 1
 317 -246 l 1
 324 -244 329 -243 333 -243 c 0
 336 -242 340 -241 344 -240 c 1
EndSplineSet
EndChar
StartChar: uni0E11
Encoding: 113 3601
OldEncoding: 3601
Width: 917
VWidth: 1000
Flags: W
HStem: 0 21G<236 383 666 815> 457 51<235 250> 713 75<329 352 498 504>
DStem: 672 662 737 635 438 252 383 0 799 631 954 653 666 0 815 0
Fore
461 360 m 2
 464 375 471 395 484 418 c 0
 497 441 515 466 537 494 c 0
 560 521 580 549 596 577 c 0
 612 605 622 624 625 635 c 0
 636 683 630 720 607 748 c 0
 585 775 554 788 514 788 c 0
 484 788 456 777 430 754 c 1
 423 765 414 773 403 779 c 0
 393 785 375 788 352 788 c 0
 328 788 304 783 283 772 c 0
 261 761 241 746 224 728 c 0
 207 710 193 688 181 665 c 0
 170 641 161 616 156 590 c 0
 147 550 152 518 169 494 c 0
 186 469 208 457 236 457 c 0
 268 457 296 470 318 498 c 0
 341 525 356 556 362 590 c 0
 369 625 370 654 365 675 c 0
 359 696 347 709 330 713 c 1
 357 713 373 703 377 685 c 0
 381 667 381 646 377 625 c 1
 432 625 l 1
 444 683 466 713 498 713 c 0
 521 713 529 696 522 662 c 0
 520 651 511 638 497 623 c 0
 482 608 463 587 438 561 c 0
 400 519 371 481 351 449 c 0
 331 416 318 386 311 358 c 1
 236 0 l 1
 383 0 l 1
 737 635 l 2
 745 650 753 659 760 662 c 0
 767 664 774 666 782 666 c 0
 800 666 806 654 799 631 c 1
 666 0 l 1
 815 0 l 1
 954 653 l 1
 961 689 954 720 934 748 c 0
 913 775 885 788 848 788 c 0
 778 788 720 746 672 662 c 2
 438 252 l 1
 461 360 l 2
217 586 m 0
 221 609 229 628 242 643 c 0
 254 658 267 666 281 666 c 0
 294 666 304 658 309 643 c 0
 315 628 315 609 311 586 c 0
 306 563 297 544 286 529 c 0
 274 515 261 508 248 508 c 0
 234 508 224 515 218 529 c 0
 212 544 212 563 217 586 c 0
EndSplineSet
EndChar
StartChar: uni0E12
Encoding: 114 3602
OldEncoding: 3602
Width: 1069
VWidth: 1000
Flags: W
HStem: 0 21G<141 291 811 967> 516 51<419 444> 692 96<374 393 598 641> 752 20G<981 1130>
DStem: 649 600 799 598 598 352 748 356 981 772 1130 772 881 301 967 0
Fore
967 0 m 1
 1130 772 l 1
 981 772 l 1
 881 301 l 1
 864 313 844 324 821 333 c 0
 798 342 773 350 748 356 c 1
 799 598 l 2
 811 655 803 701 774 736 c 0
 745 771 701 788 641 788 c 0
 584 788 536 769 498 731 c 1
 472 769 436 788 391 788 c 0
 356 788 326 780 301 764 c 0
 276 748 251 722 225 688 c 0
 205 661 189 632 177 601 c 0
 166 570 156 539 150 508 c 0
 137 459 134 397 141 322 c 0
 150 246 153 183 153 130 c 0
 152 77 148 34 141 0 c 1
 291 0 l 1
 298 34 309 66 325 96 c 0
 340 126 360 157 383 188 c 0
 435 255 472 306 496 340 c 0
 519 374 533 402 539 424 c 0
 547 462 544 496 530 524 c 0
 517 553 488 567 444 567 c 0
 409 567 377 554 349 527 c 0
 321 501 303 468 295 430 c 0
 288 403 290 376 302 350 c 0
 314 324 331 307 354 297 c 1
 301 240 l 1
 272 354 l 2
 264 386 259 415 256 441 c 0
 253 468 255 493 260 516 c 0
 268 563 283 601 303 633 c 0
 326 672 354 692 385 692 c 0
 426 692 444 662 438 602 c 1
 504 602 l 1
 524 662 556 692 598 692 c 0
 618 692 634 685 644 670 c 0
 654 655 656 631 649 600 c 2
 598 352 l 1
 556 341 518 320 484 289 c 0
 451 257 429 219 420 174 c 0
 394 51 434 -10 541 -10 c 0
 625 -10 678 33 698 121 c 1
 727 260 l 1
 767 242 794 212 810 169 c 0
 826 126 826 70 811 0 c 1
 967 0 l 1
346 436 m 0
 352 459 361 479 376 494 c 0
 390 509 405 516 420 516 c 0
 435 516 446 509 455 494 c 0
 463 479 464 459 459 436 c 0
 455 413 445 394 430 379 c 0
 415 364 400 356 385 356 c 0
 370 356 359 364 351 379 c 0
 344 394 342 413 346 436 c 0
578 260 m 1
 549 125 l 1
 546 115 541 109 535 104 c 0
 528 100 521 98 514 98 c 0
 503 98 495 103 490 113 c 0
 486 122 486 140 492 166 c 0
 498 193 510 215 527 231 c 0
 544 248 561 257 578 260 c 1
EndSplineSet
EndChar
StartChar: uni0E13
Encoding: 115 3603
OldEncoding: 3603
Width: 1191
VWidth: 1000
Flags: W
HStem: 211 51<344 356> 690 98<514 541> 752 20G<1008 1157>
DStem: 190 395 346 422 135 139 309 254 666 520 815 520 555 2 766 291 1008 772 1157 772 920 358 1069 354
Fore
815 520 m 1
 836 612 817 681 760 727 c 0
 737 748 706 763 669 773 c 0
 631 783 588 788 541 788 c 0
 477 788 413 771 350 737 c 0
 274 699 218 644 184 573 c 1
 247 573 294 567 324 555 c 1
 288 540 259 520 237 494 c 0
 214 468 199 435 190 395 c 2
 135 139 l 1
 126 91 133 54 158 28 c 0
 182 1 218 -12 266 -12 c 0
 355 -12 409 32 428 121 c 0
 432 137 434 154 433 171 c 0
 432 188 429 203 424 217 c 0
 418 231 410 242 398 250 c 0
 387 258 371 262 352 262 c 0
 345 262 338 261 331 260 c 0
 323 259 316 257 309 254 c 1
 346 422 l 1
 353 449 366 472 386 489 c 0
 406 507 431 520 463 528 c 1
 431 588 388 625 332 637 c 1
 386 672 449 690 520 690 c 0
 571 690 610 675 639 644 c 0
 668 613 677 572 666 520 c 2
 555 2 l 1
 709 2 l 1
 725 72 749 130 780 176 c 0
 795 197 813 214 835 228 c 0
 856 243 877 254 899 262 c 1
 870 123 l 2
 851 33 885 -12 973 -12 c 0
 1021 -12 1062 4 1098 36 c 0
 1133 68 1157 115 1169 176 c 0
 1180 221 1175 259 1154 289 c 0
 1133 319 1105 341 1069 354 c 1
 1157 772 l 1
 1008 772 l 1
 920 358 l 1
 894 352 867 343 841 332 c 0
 814 321 789 307 766 291 c 1
 815 520 l 1
283 129 m 0
 288 152 297 172 309 187 c 0
 322 203 335 211 348 211 c 0
 362 211 371 203 377 187 c 0
 382 172 382 152 377 129 c 0
 373 106 365 87 352 72 c 0
 340 57 327 49 313 49 c 0
 300 49 290 57 285 72 c 0
 279 87 279 106 283 129 c 0
1096 168 m 0
 1090 143 1082 126 1070 115 c 0
 1058 104 1047 98 1036 98 c 0
 1021 98 1016 106 1020 121 c 1
 1049 262 l 1
 1068 255 1082 243 1091 226 c 0
 1099 209 1101 190 1096 168 c 0
EndSplineSet
MinimumDistance: x37,-1 
EndChar
StartChar: uni0E14
Encoding: 116 3604
OldEncoding: 3604
Width: 780
VWidth: 1000
Flags: W
HStem: 0 21G<158 307 528 678> 541 53<459 489> 690 98<494 526>
DStem: 641 535 791 535 528 0 678 0
Fore
678 0 m 1
 791 535 l 2
 808 616 789 681 733 727 c 0
 709 746 678 761 642 772 c 0
 606 783 567 788 526 788 c 0
 480 788 436 782 394 768 c 0
 353 754 315 735 282 709 c 0
 248 683 219 651 196 614 c 0
 172 578 155 536 145 489 c 0
 140 468 139 438 141 399 c 0
 144 361 149 313 156 256 c 0
 162 204 166 157 167 116 c 0
 168 74 165 35 158 0 c 1
 307 0 l 1
 314 30 324 61 337 94 c 0
 350 127 370 160 397 193 c 0
 455 258 496 310 522 349 c 0
 548 388 564 414 569 428 c 0
 572 432 574 437 574 441 c 0
 575 446 577 452 580 459 c 0
 582 474 583 489 582 506 c 0
 580 522 576 537 569 550 c 0
 563 563 553 573 540 582 c 0
 527 590 510 594 489 594 c 0
 451 594 418 581 390 554 c 0
 362 527 344 495 336 457 c 0
 330 429 332 402 342 376 c 0
 352 349 369 332 395 326 c 1
 313 244 l 1
 289 352 l 2
 281 386 276 417 275 444 c 0
 275 472 277 496 283 516 c 0
 295 578 321 622 359 649 c 0
 398 677 446 690 504 690 c 0
 526 690 546 687 565 680 c 0
 584 673 600 663 613 650 c 0
 626 637 636 621 641 602 c 0
 646 583 646 560 641 535 c 2
 528 0 l 1
 678 0 l 1
389 461 m 0
 395 484 404 503 417 518 c 0
 430 533 444 541 459 541 c 0
 474 541 485 533 494 518 c 0
 502 503 503 484 498 461 c 0
 492 438 483 418 469 403 c 0
 455 388 441 381 426 381 c 0
 411 381 400 388 392 403 c 0
 385 418 384 438 389 461 c 0
EndSplineSet
EndChar
StartChar: uni0E15
Encoding: 117 3605
OldEncoding: 3605
Width: 796
VWidth: 1000
Flags: W
HStem: 0 21G<164 313 545 694> 541 53<463 494> 692 96<397 424>
DStem: 668 580 817 578 545 0 694 0
Fore
694 0 m 1
 817 578 l 1
 831 639 825 689 799 729 c 0
 773 769 730 788 670 788 c 0
 614 788 567 769 528 731 c 1
 502 769 466 788 418 788 c 0
 385 788 352 781 318 766 c 0
 285 751 256 726 231 690 c 0
 212 663 196 635 181 606 c 0
 167 578 156 546 150 512 c 0
 144 487 142 463 142 438 c 0
 143 414 145 388 147 360 c 1
 150 362 l 1
 150 356 150 349 152 342 c 0
 153 335 154 328 154 322 c 1
 158 281 l 1
 163 216 167 162 170 117 c 0
 173 72 171 33 164 0 c 1
 313 0 l 1
 320 33 331 67 347 103 c 0
 363 140 382 169 403 193 c 0
 455 248 496 298 524 342 c 0
 553 386 569 414 573 428 c 0
 576 432 578 437 579 441 c 0
 579 446 581 452 584 459 c 0
 586 474 587 489 587 506 c 0
 586 522 582 537 575 550 c 0
 569 563 558 573 545 582 c 0
 531 590 514 594 494 594 c 0
 457 594 424 581 395 554 c 0
 367 527 348 495 340 457 c 0
 335 429 337 402 346 376 c 0
 356 349 373 332 399 326 c 1
 322 246 l 1
 320 251 319 257 318 262 c 0
 318 268 316 274 313 281 c 0
 309 293 305 307 301 324 c 0
 297 340 294 354 291 367 c 0
 285 394 280 420 275 445 c 0
 271 471 271 494 276 516 c 0
 279 532 284 551 292 570 c 0
 299 590 309 609 321 628 c 0
 332 646 345 662 360 674 c 0
 375 686 392 692 410 692 c 0
 456 692 477 663 473 604 c 1
 535 604 l 1
 556 663 586 692 625 692 c 0
 644 692 658 683 667 665 c 0
 675 646 676 618 668 580 c 2
 545 0 l 1
 694 0 l 1
393 461 m 0
 399 484 408 503 421 518 c 0
 434 533 448 541 463 541 c 0
 478 541 489 533 498 518 c 0
 506 503 507 484 502 461 c 0
 496 438 487 418 473 403 c 0
 459 388 445 381 430 381 c 0
 415 381 404 388 396 403 c 0
 389 418 388 438 393 461 c 0
EndSplineSet
EndChar
StartChar: uni0E16
Encoding: 118 3606
OldEncoding: 3606
Width: 798
VWidth: 1000
Flags: W
HStem: 0 21G<547 696> 211 51<346 360> 690 98<514 537>
DStem: 193 395 348 422 137 139 311 254 657 520 807 520 547 0 696 0
Fore
696 0 m 1
 807 520 l 1
 825 609 805 678 748 727 c 0
 702 768 632 788 537 788 c 0
 505 788 474 785 442 777 c 0
 411 770 380 756 348 737 c 0
 310 717 276 694 247 668 c 0
 217 642 193 610 174 573 c 1
 203 573 229 572 252 568 c 0
 275 565 296 560 313 555 c 1
 249 524 209 470 193 395 c 2
 137 139 l 1
 126 91 133 54 157 28 c 0
 181 1 218 -12 270 -12 c 0
 363 -12 419 35 438 129 c 0
 446 166 443 197 429 223 c 0
 415 249 391 262 358 262 c 0
 350 262 342 261 335 260 c 0
 327 259 319 257 311 254 c 1
 348 422 l 1
 354 449 366 472 385 489 c 0
 404 507 428 520 457 528 c 1
 425 588 384 625 332 637 c 1
 386 672 448 690 516 690 c 0
 564 690 602 675 631 644 c 0
 659 613 668 572 657 520 c 2
 547 0 l 1
 696 0 l 1
287 135 m 0
 291 156 299 173 312 188 c 0
 325 203 339 211 354 211 c 0
 369 211 380 203 386 188 c 0
 392 173 393 156 389 135 c 0
 385 115 376 97 364 82 c 0
 351 67 337 59 322 59 c 0
 307 59 296 67 290 82 c 0
 284 97 283 115 287 135 c 0
EndSplineSet
EndChar
StartChar: uni0E17
Encoding: 119 3607
OldEncoding: 3607
Width: 847
VWidth: 1000
Flags: W
HStem: 0 21G<182 332 596 745> 510 51<243 254>
DStem: 293 516 463 635 182 0 391 297 565 641 616 571 391 297 332 0 729 629 883 645 596 0 745 0
Fore
463 635 m 2
 472 681 468 719 450 746 c 0
 431 774 396 788 344 788 c 0
 295 788 255 774 225 746 c 0
 195 719 176 684 168 643 c 0
 160 605 164 573 180 548 c 0
 197 523 221 510 252 510 c 0
 266 510 279 512 293 516 c 1
 182 0 l 1
 332 0 l 1
 616 571 l 2
 637 611 654 638 667 651 c 0
 680 665 692 672 705 672 c 0
 714 672 721 668 726 660 c 0
 731 653 732 642 729 629 c 2
 596 0 l 1
 745 0 l 1
 883 645 l 1
 892 687 887 722 866 749 c 0
 846 775 814 788 772 788 c 0
 756 788 739 787 721 783 c 0
 703 780 685 773 668 763 c 0
 650 753 632 738 615 719 c 0
 598 700 582 674 565 641 c 2
 391 297 l 1
 463 635 l 2
219 643 m 0
 225 666 233 686 245 702 c 0
 256 719 270 727 285 727 c 0
 300 727 311 719 317 702 c 0
 324 686 325 666 319 643 c 0
 314 620 305 600 292 585 c 0
 279 569 265 561 250 561 c 0
 235 561 225 569 219 585 c 0
 214 600 214 620 219 643 c 0
EndSplineSet
EndChar
StartChar: uni0E18
Encoding: 120 3608
OldEncoding: 3608
Width: 737
VWidth: 1000
Flags: W
HStem: 0 72<93 143 293 393> 668 120<437 469> 758 20G<754 831>
DStem: 246 547 391 526 143 72 293 72 508 399 659 401 451 125 600 125
Fore
659 401 m 2
 668 441 663 475 644 504 c 0
 626 532 601 557 569 578 c 0
 545 594 515 606 479 612 c 0
 444 619 406 623 367 623 c 2
 332 623 l 1
 319 621 l 1
 348 652 388 668 438 668 c 0
 456 668 486 660 528 645 c 0
 573 630 608 623 631 623 c 0
 711 623 778 674 831 778 c 1
 754 778 l 1
 728 740 700 721 670 721 c 1
 578 764 l 2
 545 780 509 788 469 788 c 0
 440 788 411 782 381 769 c 0
 351 756 323 739 297 717 c 0
 271 695 248 669 227 640 c 0
 207 611 190 580 178 547 c 1
 246 547 l 1
 143 72 l 1
 94 72 l 1
 80 0 l 1
 471 0 l 2
 539 0 582 42 600 125 c 2
 659 401 l 2
451 125 m 2
 446 107 439 94 427 85 c 0
 415 76 402 72 387 72 c 2
 293 72 l 1
 391 526 l 1
 401 524 l 2
 438 516 467 501 487 479 c 0
 508 457 515 431 508 399 c 2
 451 125 l 2
EndSplineSet
MinimumDistance: x0,-1 
EndChar
StartChar: uni0E19
Encoding: 121 3609
OldEncoding: 3609
Width: 903
VWidth: 1000
Flags: W
HStem: 0 21G<186 334> 510 51<247 258> 754 20G<700 850>
DStem: 297 516 471 635 186 0 387 242 700 774 850 774 612 354 760 350
Fore
868 174 m 0
 878 216 871 254 849 286 c 0
 826 318 797 339 760 350 c 1
 850 774 l 1
 700 774 l 1
 612 354 l 1
 525 339 450 302 387 242 c 1
 471 635 l 2
 481 681 475 719 456 746 c 0
 436 774 400 788 348 788 c 0
 299 788 260 774 232 746 c 0
 204 719 186 684 178 643 c 0
 170 605 173 573 187 548 c 0
 202 523 225 510 256 510 c 0
 270 510 283 512 297 516 c 1
 186 0 l 1
 334 0 l 1
 371 72 411 130 456 173 c 0
 500 216 545 244 592 258 c 1
 563 121 l 2
 560 107 560 93 562 78 c 0
 564 63 569 49 578 36 c 0
 586 23 597 12 610 3 c 0
 624 -6 641 -10 662 -10 c 0
 715 -10 759 5 795 36 c 0
 830 67 855 113 868 174 c 0
223 643 m 0
 229 666 237 686 249 702 c 0
 260 719 274 727 289 727 c 0
 304 727 315 719 322 702 c 0
 328 686 329 666 324 643 c 0
 318 620 309 600 296 585 c 0
 283 569 269 561 254 561 c 0
 239 561 229 569 223 585 c 0
 218 600 218 620 223 643 c 0
782 164 m 0
 777 141 769 124 759 113 c 0
 749 102 738 96 727 96 c 0
 713 96 709 106 713 125 c 2
 741 256 l 1
 756 248 768 236 776 220 c 0
 784 204 786 186 782 164 c 0
EndSplineSet
MinimumDistance: x1,-1 
EndChar
StartChar: uni0E1A
Encoding: 122 3610
OldEncoding: 3610
Width: 825
VWidth: 1000
Flags: W
HStem: 0 72<126 197 346 530> 510 51<243 258> 752 20G<737 887>
DStem: 293 516 467 635 197 72 346 72 737 772 887 772 600 125 750 125
Fore
467 635 m 2
 477 681 472 719 453 746 c 0
 433 774 398 788 346 788 c 0
 297 788 257 774 226 746 c 0
 196 719 176 684 168 643 c 0
 160 605 164 573 180 548 c 0
 197 523 221 510 252 510 c 0
 266 510 279 512 293 516 c 1
 197 72 l 1
 127 72 l 1
 113 0 l 1
 612 0 l 2
 648 0 677 10 700 31 c 0
 724 51 740 83 750 125 c 1
 887 772 l 1
 737 772 l 1
 600 125 l 2
 596 107 586 94 570 85 c 0
 555 76 540 72 526 72 c 2
 346 72 l 1
 467 635 l 2
219 643 m 0
 225 666 233 686 245 702 c 0
 256 719 270 727 285 727 c 0
 300 727 311 719 317 702 c 0
 324 686 325 666 319 643 c 0
 314 620 305 600 292 585 c 0
 279 569 265 561 250 561 c 0
 235 561 225 569 219 585 c 0
 214 600 214 620 219 643 c 0
EndSplineSet
EndChar
StartChar: uni0E1B
Encoding: 123 3611
OldEncoding: 3611
Width: 823
VWidth: 1000
Flags: W
HStem: 0 72<126 197 346 534> 510 51<243 258>
DStem: 293 516 467 635 197 72 346 72 807 1110 956 1110 598 125 748 125
Fore
467 635 m 2
 477 681 472 719 453 746 c 0
 433 774 398 788 346 788 c 0
 297 788 257 774 226 746 c 0
 196 719 176 684 168 643 c 0
 160 605 164 573 180 548 c 0
 197 523 221 510 252 510 c 0
 266 510 279 512 293 516 c 1
 197 72 l 1
 127 72 l 1
 113 0 l 1
 604 0 l 2
 640 0 670 10 695 31 c 0
 721 51 738 83 748 125 c 1
 956 1110 l 1
 807 1110 l 1
 598 125 l 2
 594 107 585 94 572 85 c 0
 559 76 546 72 532 72 c 2
 346 72 l 1
 467 635 l 2
219 643 m 0
 225 666 233 686 245 702 c 0
 256 719 270 727 285 727 c 0
 300 727 311 719 317 702 c 0
 324 686 325 666 319 643 c 0
 314 620 305 600 292 585 c 0
 279 569 265 561 250 561 c 0
 235 561 225 569 219 585 c 0
 214 600 214 620 219 643 c 0
EndSplineSet
EndChar
StartChar: uni0E1C
Encoding: 124 3612
OldEncoding: 3612
Width: 817
VWidth: 1000
Flags: W
HStem: 0 21G<61 213 565 715> 510 51<361 381> 727 61<389 416> 752 20G<729 879>
DStem: 197 635 322 516 61 0 250 184 453 315 489 494 565 0 606 193 489 494 453 315 250 184 213 0 729 772 879 772 606 193 715 0
Fore
715 0 m 1
 879 772 l 1
 729 772 l 1
 606 193 l 1
 489 494 l 1
 250 184 l 1
 322 516 l 1
 334 512 347 510 362 510 c 0
 394 510 423 523 451 548 c 0
 478 573 496 604 504 641 c 0
 512 682 507 717 489 745 c 0
 472 774 438 788 389 788 c 0
 337 788 295 774 261 745 c 0
 228 717 206 680 197 635 c 2
 61 0 l 1
 213 0 l 1
 453 315 l 1
 565 0 l 1
 715 0 l 1
348 643 m 0
 354 666 362 686 375 702 c 0
 387 719 401 727 416 727 c 0
 431 727 442 719 450 702 c 0
 457 686 458 666 453 643 c 0
 447 620 438 600 424 585 c 0
 410 569 396 561 381 561 c 0
 366 561 355 569 349 585 c 0
 343 600 343 620 348 643 c 0
EndSplineSet
EndChar
StartChar: uni0E1D
Encoding: 125 3613
OldEncoding: 3613
Width: 817
VWidth: 1000
Flags: W
HStem: 0 21G<61 213 565 715> 510 51<361 381> 727 61<389 416>
DStem: 197 635 322 516 61 0 250 184 453 315 489 494 565 0 606 193 489 494 453 315 250 184 213 0 801 1110 950 1110 606 193 715 0
Fore
715 0 m 1
 950 1110 l 1
 801 1110 l 1
 606 193 l 1
 489 494 l 1
 250 184 l 1
 322 516 l 1
 334 512 347 510 362 510 c 0
 394 510 423 523 451 548 c 0
 478 573 496 604 504 641 c 0
 512 682 507 717 489 745 c 0
 472 774 438 788 389 788 c 0
 337 788 295 774 261 745 c 0
 228 717 206 680 197 635 c 2
 61 0 l 1
 213 0 l 1
 453 315 l 1
 565 0 l 1
 715 0 l 1
348 643 m 0
 354 666 362 686 375 702 c 0
 387 719 401 727 416 727 c 0
 431 727 442 719 450 702 c 0
 457 686 458 666 453 643 c 0
 447 620 438 600 424 585 c 0
 410 569 396 561 381 561 c 0
 366 561 355 569 349 585 c 0
 343 600 343 620 348 643 c 0
EndSplineSet
EndChar
StartChar: uni0E1E
Encoding: 126 3614
OldEncoding: 3614
Width: 899
VWidth: 1000
Flags: W
HStem: 0 21G<182 342 633 797> 510 51<243 254> 752 20G<811 961>
DStem: 293 516 467 635 182 0 393 287 588 465 657 788 633 0 709 287 657 788 588 465 393 287 342 0 811 772 961 772 709 287 797 0
Fore
467 635 m 2
 477 681 471 719 452 746 c 0
 432 774 396 788 344 788 c 0
 295 788 255 774 225 746 c 0
 195 719 176 684 168 643 c 0
 160 605 164 573 180 548 c 0
 197 523 221 510 252 510 c 0
 266 510 279 512 293 516 c 1
 182 0 l 1
 342 0 l 1
 588 465 l 1
 633 0 l 1
 797 0 l 1
 961 772 l 1
 811 772 l 1
 709 287 l 1
 657 788 l 1
 393 287 l 1
 467 635 l 2
219 643 m 0
 225 666 233 686 245 702 c 0
 256 719 270 727 285 727 c 0
 300 727 311 719 317 702 c 0
 324 686 325 666 319 643 c 0
 314 620 305 600 292 585 c 0
 279 569 265 561 250 561 c 0
 235 561 225 569 219 585 c 0
 214 600 214 620 219 643 c 0
EndSplineSet
EndChar
StartChar: uni0E1F
Encoding: 127 3615
OldEncoding: 3615
Width: 899
VWidth: 1000
Flags: W
HStem: 0 21G<182 342 633 797> 510 51<243 254>
DStem: 293 516 467 635 182 0 393 287 588 465 657 788 633 0 709 287 657 788 588 465 393 287 342 0 883 1110 1032 1110 709 287 797 0
Fore
467 635 m 2
 477 681 471 719 452 746 c 0
 432 774 396 788 344 788 c 0
 295 788 255 774 225 746 c 0
 195 719 176 684 168 643 c 0
 160 605 164 573 180 548 c 0
 197 523 221 510 252 510 c 0
 266 510 279 512 293 516 c 1
 182 0 l 1
 342 0 l 1
 588 465 l 1
 633 0 l 1
 797 0 l 1
 1032 1110 l 1
 883 1110 l 1
 709 287 l 1
 657 788 l 1
 393 287 l 1
 467 635 l 2
219 643 m 0
 225 666 233 686 245 702 c 0
 256 719 270 727 285 727 c 0
 300 727 311 719 317 702 c 0
 324 686 325 666 319 643 c 0
 314 620 305 600 292 585 c 0
 279 569 265 561 250 561 c 0
 235 561 225 569 219 585 c 0
 214 600 214 620 219 643 c 0
EndSplineSet
EndChar
StartChar: uni0E20
Encoding: 128 3616
OldEncoding: 3616
Width: 851
VWidth: 1000
Flags: W
HStem: -12 61<150 178> 0 21G<600 750> 215 51<184 211>
DStem: 711 518 860 518 600 0 750 0
Fore
860 518 m 2
 879 610 859 681 801 731 c 0
 776 752 751 766 724 775 c 0
 697 784 662 788 616 788 c 0
 552 788 489 771 426 737 c 0
 388 717 354 693 324 667 c 0
 294 640 268 608 248 571 c 1
 304 571 351 565 389 551 c 1
 325 517 286 464 272 391 c 1
 244 256 l 1
 230 263 219 266 211 266 c 0
 175 266 145 252 119 223 c 0
 93 195 76 162 68 125 c 0
 57 79 62 44 83 22 c 0
 104 -1 136 -12 178 -12 c 0
 205 -12 230 -7 253 4 c 0
 275 15 295 29 311 45 c 0
 328 61 341 79 350 98 c 0
 360 117 367 136 371 154 c 2
 426 418 l 1
 433 444 447 466 470 484 c 0
 493 503 518 516 547 524 c 1
 532 554 512 579 486 597 c 0
 461 615 436 628 410 635 c 1
 464 670 525 688 592 688 c 0
 641 688 676 673 696 642 c 0
 717 611 722 570 711 518 c 2
 600 0 l 1
 750 0 l 1
 860 518 l 2
121 131 m 0
 125 154 133 174 145 190 c 0
 158 207 171 215 184 215 c 0
 198 215 208 207 214 190 c 0
 220 174 221 154 217 131 c 0
 212 108 202 88 189 73 c 0
 176 57 163 49 150 49 c 0
 136 49 126 57 121 73 c 0
 115 88 115 108 121 131 c 0
EndSplineSet
EndChar
StartChar: uni0E21
Encoding: 129 3617
OldEncoding: 3617
Width: 827
VWidth: 1000
Flags: W
HStem: -12 108<201 231> 0 21G<573 725> 510 51<273 289> 752 20G<739 889>
DStem: 324 516 498 635 287 350 438 354 739 772 889 772 625 236 725 0
Fore
498 635 m 2
 507 681 502 719 483 746 c 0
 464 774 429 788 377 788 c 0
 328 788 288 774 257 746 c 0
 226 719 207 684 199 643 c 0
 190 605 195 573 211 548 c 0
 227 523 251 510 283 510 c 0
 296 510 310 512 324 516 c 1
 287 350 l 1
 238 335 198 311 169 279 c 0
 140 246 120 206 111 160 c 0
 100 112 105 71 127 38 c 0
 149 4 184 -12 231 -12 c 0
 316 -12 369 32 389 121 c 1
 418 260 l 1
 459 245 493 216 521 173 c 0
 549 130 567 72 573 0 c 1
 725 0 l 1
 889 772 l 1
 739 772 l 1
 625 236 l 1
 604 268 578 295 545 314 c 0
 512 334 477 347 438 354 c 1
 498 635 l 2
250 643 m 0
 255 666 264 686 275 702 c 0
 287 719 300 727 315 727 c 0
 330 727 341 719 348 702 c 0
 355 686 356 666 350 643 c 0
 345 620 336 600 323 585 c 0
 310 569 296 561 281 561 c 0
 266 561 255 569 250 585 c 0
 244 600 244 620 250 643 c 0
244 145 m 2
 237 113 223 96 201 96 c 0
 188 96 181 103 179 117 c 0
 177 130 178 145 182 160 c 0
 186 180 196 200 211 219 c 0
 226 238 245 251 268 258 c 1
 244 145 l 2
EndSplineSet
EndChar
StartChar: uni0E22
Encoding: 130 3618
OldEncoding: 3618
Width: 745
VWidth: 1000
Flags: W
HStem: -12 78<356 386> 512 51<375 397> 727 61<406 432> 752 20G<657 807>
DStem: 657 772 807 772 528 168 678 168
Fore
678 168 m 2
 807 772 l 1
 657 772 l 1
 528 168 l 2
 522 137 502 112 470 93 c 0
 438 75 406 66 373 66 c 0
 341 66 314 75 291 93 c 0
 268 112 259 137 266 168 c 2
 287 260 l 2
 303 335 345 377 414 385 c 0
 425 388 433 393 439 400 c 0
 445 408 450 415 453 422 c 0
 453 441 441 451 418 451 c 0
 399 451 382 457 368 469 c 0
 353 481 345 497 342 516 c 1
 353 513 364 512 375 512 c 0
 406 512 435 524 462 549 c 0
 488 573 506 605 514 643 c 0
 522 684 518 719 503 746 c 0
 487 774 455 788 406 788 c 0
 355 788 313 774 281 746 c 0
 248 719 227 681 217 635 c 2
 201 559 l 2
 186 489 208 440 266 412 c 1
 231 395 202 374 180 349 c 0
 158 324 144 293 137 256 c 1
 117 168 l 1
 104 109 129 61 190 25 c 0
 211 14 236 5 266 -2 c 0
 296 -9 327 -12 358 -12 c 0
 390 -12 421 -9 451 -2 c 0
 481 5 510 14 539 25 c 0
 577 44 608 65 632 88 c 0
 656 111 671 138 678 168 c 2
369 645 m 0
 374 668 383 688 394 703 c 0
 406 719 418 727 432 727 c 0
 446 727 456 719 462 703 c 0
 468 688 468 668 463 645 c 0
 457 622 449 602 436 587 c 0
 424 571 411 563 397 563 c 0
 384 563 374 571 369 587 c 0
 363 602 363 622 369 645 c 0
EndSplineSet
EndChar
StartChar: uni0E23
Encoding: 131 3619
OldEncoding: 3619
Width: 681
VWidth: 1000
Flags: W
HStem: -12 61<288 317> 211 51<323 342> 668 120<387 414> 760 20G<688 766>
Fore
342 262 m 0
 309 262 281 248 256 221 c 0
 231 194 215 162 207 125 c 0
 197 84 201 51 219 26 c 0
 237 0 270 -12 317 -12 c 0
 369 -12 411 1 442 28 c 0
 474 54 495 91 506 139 c 2
 563 401 l 2
 571 441 570 475 560 504 c 0
 550 532 529 557 498 578 c 0
 473 593 444 604 411 611 c 0
 377 619 341 623 301 623 c 2
 279 623 l 1
 266 621 l 1
 295 652 335 668 387 668 c 0
 397 668 407 666 417 663 c 0
 427 659 442 654 463 647 c 0
 507 631 541 623 565 623 c 0
 647 623 714 675 766 780 c 1
 688 780 l 1
 661 741 633 721 604 721 c 1
 512 764 l 2
 496 773 480 780 465 783 c 0
 450 787 433 788 414 788 c 0
 385 788 356 782 328 768 c 0
 299 754 272 736 248 713 c 0
 223 689 201 663 182 632 c 0
 163 601 147 569 135 537 c 1
 184 537 225 536 256 535 c 0
 287 533 315 529 338 522 c 0
 401 500 425 459 412 399 c 1
 383 256 l 1
 371 260 357 262 342 262 c 0
258 129 m 0
 264 152 272 172 285 187 c 0
 297 203 310 211 324 211 c 0
 337 211 347 203 353 187 c 0
 359 172 360 152 354 129 c 0
 350 106 342 87 329 72 c 0
 316 57 302 49 289 49 c 0
 275 49 266 57 260 72 c 0
 255 87 254 106 258 129 c 0
EndSplineSet
EndChar
StartChar: uni0E24
Encoding: 132 3620
OldEncoding: 3620
Width: 808
VWidth: 1000
Flags: W
HStem: -317 21G<489 639> 211 51<356 374> 690 98<524 547>
DStem: 203 395 358 422 147 139 322 254 668 520 817 520 489 -317 639 -317
Fore
639 -317 m 1
 817 520 l 1
 835 609 815 678 758 727 c 0
 713 768 642 788 547 788 c 0
 515 788 484 785 453 777 c 0
 421 770 390 756 358 737 c 0
 320 717 286 694 257 668 c 0
 228 642 203 610 184 573 c 1
 213 573 239 572 262 568 c 0
 285 565 306 560 324 555 c 1
 259 524 219 470 203 395 c 2
 147 139 l 1
 137 91 143 54 167 28 c 0
 191 1 229 -12 281 -12 c 0
 373 -12 429 35 449 129 c 0
 457 166 454 197 439 223 c 0
 425 249 401 262 369 262 c 0
 360 262 353 261 345 260 c 0
 338 259 330 257 322 254 c 1
 358 422 l 1
 364 449 376 472 395 489 c 0
 414 507 438 520 467 528 c 1
 436 588 394 625 342 637 c 1
 397 672 458 690 526 690 c 0
 574 690 612 675 641 644 c 0
 670 613 679 572 668 520 c 2
 489 -317 l 1
 639 -317 l 1
297 135 m 0
 301 156 310 173 323 188 c 0
 336 203 350 211 365 211 c 0
 380 211 390 203 396 188 c 0
 402 173 403 156 399 135 c 0
 395 115 387 97 374 82 c 0
 361 67 347 59 332 59 c 0
 317 59 306 67 300 82 c 0
 294 97 293 115 297 135 c 0
EndSplineSet
EndChar
StartChar: uni0E25
Encoding: 133 3621
OldEncoding: 3621
Width: 780
VWidth: 1000
Flags: W
HStem: 0 21G<528 678> 215 51<365 375> 463 92<449 471>
DStem: 596 313 793 541 528 0 678 0
Fore
678 0 m 1
 793 541 l 2
 810 625 791 689 735 733 c 0
 713 752 686 766 652 775 c 0
 619 784 580 788 537 788 c 0
 407 788 297 720 207 584 c 1
 258 561 l 1
 336 646 420 688 510 688 c 0
 562 688 600 676 624 651 c 0
 648 627 654 588 643 537 c 1
 631 485 l 1
 593 532 537 555 465 555 c 0
 399 555 342 537 294 500 c 0
 245 463 214 411 199 344 c 1
 156 143 l 1
 145 96 150 58 170 30 c 0
 190 2 227 -12 279 -12 c 0
 373 -12 429 35 449 129 c 0
 455 162 452 193 439 222 c 0
 426 252 403 266 369 266 c 0
 354 266 341 263 330 256 c 1
 350 354 l 2
 365 427 404 463 467 463 c 0
 507 463 538 450 560 425 c 0
 583 400 595 362 596 313 c 1
 528 0 l 1
 678 0 l 1
303 131 m 0
 307 154 315 174 328 190 c 0
 340 207 353 215 367 215 c 0
 380 215 390 207 396 190 c 0
 402 174 403 154 399 131 c 0
 394 108 385 88 372 73 c 0
 359 57 345 49 332 49 c 0
 318 49 309 57 303 73 c 0
 298 88 298 108 303 131 c 0
EndSplineSet
EndChar
StartChar: uni0E26
Encoding: 134 3622
OldEncoding: 3622
Width: 858
VWidth: 1000
Flags: W
HStem: -317 21G<539 688> -12 61<150 176> 215 51<184 211>
DStem: 717 518 866 518 539 -317 688 -317
Fore
866 518 m 2
 885 610 866 681 807 731 c 0
 782 752 757 766 730 775 c 0
 703 784 668 788 623 788 c 0
 558 788 495 771 432 737 c 0
 394 717 360 693 330 667 c 0
 300 640 274 608 254 571 c 1
 310 571 357 565 395 551 c 1
 364 535 337 513 315 487 c 0
 294 461 279 429 272 391 c 1
 244 256 l 1
 230 263 219 266 211 266 c 0
 175 266 145 252 119 223 c 0
 93 195 76 162 68 125 c 0
 57 79 61 44 82 22 c 0
 102 -1 134 -12 176 -12 c 0
 203 -12 228 -7 251 4 c 0
 273 15 293 29 309 45 c 0
 326 61 339 79 349 98 c 0
 359 117 367 136 371 154 c 2
 426 418 l 1
 433 444 449 466 473 484 c 0
 498 503 524 516 553 524 c 1
 538 554 518 579 493 597 c 0
 467 615 442 628 416 635 c 1
 470 670 531 688 598 688 c 0
 647 688 682 673 702 642 c 0
 723 611 728 570 717 518 c 2
 539 -317 l 1
 688 -317 l 1
 866 518 l 2
121 131 m 0
 125 154 133 174 145 190 c 0
 158 207 171 215 184 215 c 0
 198 215 208 207 214 190 c 0
 220 174 221 154 217 131 c 0
 212 108 202 88 189 73 c 0
 176 57 163 49 150 49 c 0
 136 49 126 57 121 73 c 0
 115 88 115 108 121 131 c 0
EndSplineSet
EndChar
StartChar: uni0E27
Encoding: 135 3623
OldEncoding: 3623
Width: 661
VWidth: 1000
Flags: W
HStem: -12 61<373 399> 211 51<408 424> 690 98<393 453>
DStem: 526 545 680 565 463 252 588 139
Fore
424 262 m 0
 394 262 366 249 341 222 c 0
 316 196 299 163 291 125 c 0
 281 84 285 51 302 26 c 0
 319 0 352 -12 399 -12 c 0
 451 -12 493 1 524 28 c 0
 556 54 577 91 588 139 c 1
 680 565 l 2
 695 634 677 689 627 731 c 0
 603 750 577 765 546 774 c 0
 515 784 484 788 453 788 c 0
 326 788 217 724 127 596 c 1
 166 561 l 1
 203 605 241 637 280 658 c 0
 318 680 356 690 393 690 c 0
 437 690 472 677 500 650 c 0
 527 624 536 588 526 545 c 2
 463 252 l 1
 459 255 453 257 445 259 c 0
 438 261 431 262 424 262 c 0
342 129 m 0
 347 152 356 172 369 187 c 0
 381 203 394 211 408 211 c 0
 421 211 431 203 436 187 c 0
 442 172 442 152 436 129 c 0
 432 106 424 87 412 72 c 0
 399 57 386 49 373 49 c 0
 359 49 350 57 344 72 c 0
 339 87 338 106 342 129 c 0
EndSplineSet
EndChar
StartChar: uni0E28
Encoding: 136 3624
OldEncoding: 3624
Width: 819
VWidth: 1000
Flags: W
HStem: 0 21G<156 305 530 668> 301 51<416 440> 514 61<464 481>
DStem: 649 557 786 557 530 0 668 0
Fore
893 831 m 1
 729 831 l 1
 726 815 723 801 720 788 c 0
 716 776 711 765 705 754 c 1
 662 777 608 788 543 788 c 0
 495 788 449 783 406 772 c 0
 362 761 324 745 293 723 c 0
 216 675 169 603 150 508 c 0
 145 490 145 467 147 437 c 0
 150 408 158 370 170 324 c 0
 181 281 187 241 189 203 c 0
 191 165 189 130 182 98 c 2
 178 78 l 1
 156 0 l 1
 305 0 l 1
 312 15 318 31 323 49 c 0
 327 67 331 84 334 100 c 0
 338 115 342 138 345 169 c 0
 349 200 352 225 356 244 c 0
 359 257 362 269 367 279 c 0
 371 288 375 299 379 311 c 1
 390 304 402 301 416 301 c 0
 433 301 450 305 466 313 c 0
 482 322 496 332 509 345 c 0
 522 358 533 372 542 388 c 0
 551 404 556 420 559 436 c 0
 567 474 564 507 548 535 c 0
 532 562 505 575 467 575 c 0
 429 575 393 560 358 529 c 0
 324 499 299 459 283 412 c 1
 276 428 271 444 268 460 c 0
 266 475 266 493 270 512 c 0
 283 569 310 613 351 643 c 0
 393 673 449 688 518 688 c 0
 558 688 592 678 621 656 c 0
 649 635 659 602 649 557 c 2
 530 0 l 1
 668 0 l 1
 786 557 l 2
 795 594 795 627 786 655 c 1
 803 677 820 702 838 730 c 0
 855 758 874 792 893 831 c 1
406 432 m 0
 411 455 420 475 432 490 c 0
 444 506 458 514 473 514 c 0
 488 514 499 506 506 490 c 0
 513 475 513 455 508 432 c 0
 502 409 494 390 481 375 c 0
 469 360 455 352 440 352 c 0
 425 352 414 360 408 375 c 0
 401 390 400 409 406 432 c 0
EndSplineSet
MinimumDistance: x38,-1 
EndChar
StartChar: uni0E29
Encoding: 137 3625
OldEncoding: 3625
Width: 983
VWidth: 1000
Flags: W
HStem: 0 72<124 197 346 592> 285 75<638 669> 510 51<243 256> 559 51<606 623> 750 20G<780 930>
DStem: 293 516 467 635 197 72 346 72 678 285 838 342 643 125 793 125 780 770 930 770 694 367 893 598
Fore
467 635 m 2
 477 681 472 719 453 746 c 0
 433 774 398 788 346 788 c 0
 297 788 257 774 226 746 c 0
 196 719 176 684 168 643 c 0
 160 605 164 573 180 548 c 0
 197 523 221 510 252 510 c 0
 266 510 279 512 293 516 c 1
 197 72 l 1
 125 72 l 1
 111 0 l 1
 674 0 l 2
 686 0 700 4 715 11 c 0
 730 19 743 29 756 43 c 0
 768 57 777 70 781 84 c 0
 786 98 790 111 793 125 c 2
 838 342 l 1
 929 409 986 498 1010 610 c 1
 899 610 l 1
 899 602 897 598 893 598 c 1
 930 770 l 1
 780 770 l 1
 694 367 l 1
 686 364 678 362 669 361 c 0
 660 361 653 360 647 360 c 0
 629 360 613 363 598 369 c 1
 624 375 646 390 664 413 c 0
 681 435 694 460 700 487 c 0
 707 519 704 547 690 572 c 0
 677 598 653 610 621 610 c 0
 530 610 477 566 459 477 c 0
 453 451 453 427 459 403 c 0
 464 380 474 360 488 342 c 0
 503 324 521 310 542 300 c 0
 563 290 586 285 610 285 c 2
 678 285 l 1
 643 125 l 2
 635 89 615 72 584 72 c 2
 346 72 l 1
 467 635 l 2
219 643 m 0
 225 666 233 686 245 702 c 0
 256 719 270 727 285 727 c 0
 300 727 311 719 317 702 c 0
 324 686 325 666 319 643 c 0
 314 620 305 600 292 585 c 0
 279 569 265 561 250 561 c 0
 235 561 225 569 219 585 c 0
 214 600 214 620 219 643 c 0
553 494 m 0
 557 513 565 528 577 541 c 0
 588 553 601 559 614 559 c 0
 628 559 638 553 645 541 c 0
 652 528 653 513 649 494 c 0
 645 474 637 459 625 446 c 0
 612 434 599 428 586 428 c 0
 572 428 562 434 556 446 c 0
 550 459 549 474 553 494 c 0
EndSplineSet
MinimumDistance: x20,-1 
EndChar
StartChar: uni0E2A
Encoding: 138 3626
OldEncoding: 3626
Width: 815
VWidth: 1000
Flags: W
HStem: 0 21G<508 657> 215 51<344 354> 463 92<428 450>
DStem: 575 313 772 541 508 0 657 0
Fore
778 641 m 1
 797 664 816 692 834 723 c 0
 851 754 870 790 889 829 c 1
 715 829 l 1
 711 814 706 800 701 786 c 0
 697 773 692 760 688 750 c 1
 646 776 588 788 516 788 c 0
 386 788 276 720 186 584 c 1
 238 561 l 1
 315 646 399 688 489 688 c 0
 541 688 579 676 603 651 c 0
 627 627 634 588 623 537 c 1
 610 485 l 1
 572 532 517 555 444 555 c 0
 379 555 322 537 273 500 c 0
 225 463 193 411 178 344 c 1
 135 143 l 1
 124 96 129 58 151 30 c 0
 172 2 208 -12 260 -12 c 0
 353 -12 409 35 428 129 c 0
 435 162 432 193 419 222 c 0
 406 252 382 266 348 266 c 0
 333 266 320 263 309 256 c 1
 330 354 l 2
 345 427 384 463 446 463 c 0
 486 463 517 450 540 425 c 0
 562 400 574 362 575 313 c 1
 508 0 l 1
 657 0 l 1
 772 541 l 2
 780 580 782 614 776 641 c 1
 778 641 l 1
283 131 m 0
 287 154 295 174 307 190 c 0
 319 207 332 215 346 215 c 0
 360 215 370 207 376 190 c 0
 382 174 383 154 379 131 c 0
 373 108 364 88 351 73 c 0
 338 57 325 49 311 49 c 0
 298 49 288 57 283 73 c 0
 277 88 277 108 283 131 c 0
EndSplineSet
MinimumDistance: x29,-1 
EndChar
StartChar: uni0E2B
Encoding: 139 3627
OldEncoding: 3627
Width: 876
VWidth: 1000
Flags: W
HStem: 0 21G<182 332 616 766> 510 51<243 254> 717 71<777 801>
DStem: 293 516 467 635 182 0 383 244 463 383 541 362 383 244 332 0 711 446 858 438 616 0 766 0
Fore
467 635 m 2
 477 681 471 719 452 746 c 0
 432 774 396 788 344 788 c 0
 295 788 255 774 225 746 c 0
 195 719 176 684 168 643 c 0
 160 605 164 573 180 548 c 0
 197 523 221 510 252 510 c 0
 266 510 279 512 293 516 c 1
 182 0 l 1
 332 0 l 1
 541 362 l 2
 565 406 593 436 623 453 c 0
 653 469 679 481 702 487 c 1
 708 485 711 479 713 470 c 0
 714 461 713 453 711 446 c 1
 616 0 l 1
 766 0 l 1
 858 438 l 1
 865 464 865 485 857 501 c 0
 850 516 842 529 836 539 c 1
 853 550 869 565 884 585 c 0
 898 605 907 626 911 649 c 0
 922 697 916 732 894 755 c 0
 871 777 840 788 801 788 c 0
 763 788 729 774 701 744 c 0
 673 715 656 683 649 649 c 0
 646 634 645 618 645 600 c 0
 645 584 651 569 662 555 c 1
 623 543 588 524 556 499 c 0
 524 473 493 435 463 383 c 2
 383 244 l 1
 467 635 l 2
219 643 m 0
 225 666 233 686 245 702 c 0
 256 719 270 727 285 727 c 0
 300 727 311 719 317 702 c 0
 324 686 325 666 319 643 c 0
 314 620 305 600 292 585 c 0
 279 569 265 561 250 561 c 0
 235 561 225 569 219 585 c 0
 214 600 214 620 219 643 c 0
815 651 m 0
 811 634 803 620 793 610 c 0
 782 601 771 594 760 590 c 1
 750 593 741 599 731 610 c 0
 722 621 718 634 721 649 c 0
 726 670 734 686 743 698 c 0
 753 711 765 717 778 717 c 0
 796 717 808 711 813 698 c 0
 819 686 819 670 815 651 c 0
EndSplineSet
MinimumDistance: x17,-1 
EndChar
StartChar: uni0E2C
Encoding: 140 3628
OldEncoding: 3628
Width: 1046
VWidth: 1000
Flags: W
HStem: 0 21G<182 338 639 803> 510 51<243 254>
DStem: 293 516 467 635 182 0 391 276 586 457 655 768 639 0 713 279 655 768 586 457 391 276 338 0 803 705 958 735 713 279 803 0
Fore
467 635 m 2
 477 681 472 719 453 746 c 0
 433 774 398 788 346 788 c 0
 297 788 257 774 226 746 c 0
 196 719 176 684 168 643 c 0
 160 605 164 573 180 548 c 0
 197 523 221 510 252 510 c 0
 266 510 279 512 293 516 c 1
 182 0 l 1
 338 0 l 1
 586 457 l 1
 639 0 l 1
 803 0 l 1
 958 735 l 1
 1064 788 1128 868 1151 973 c 1
 1022 973 l 1
 1016 942 l 1
 1008 911 997 883 983 860 c 1
 987 896 977 923 953 943 c 0
 929 963 898 973 858 973 c 0
 769 973 715 928 696 840 c 0
 688 800 695 769 716 745 c 0
 737 722 766 709 803 705 c 1
 713 279 l 1
 655 768 l 1
 391 276 l 1
 467 635 l 2
219 643 m 0
 225 666 233 686 245 702 c 0
 256 719 270 727 285 727 c 0
 300 727 311 719 317 702 c 0
 324 686 325 666 319 643 c 0
 314 620 305 600 292 585 c 0
 279 569 265 561 250 561 c 0
 235 561 225 569 219 585 c 0
 214 600 214 620 219 643 c 0
758 840 m 0
 762 856 767 872 774 888 c 0
 781 904 795 911 815 911 c 0
 829 911 836 906 838 894 c 0
 839 882 838 872 836 862 c 1
 819 784 l 1
 803 784 788 790 774 801 c 0
 760 812 755 825 758 840 c 0
EndSplineSet
MinimumDistance: x13,-1 
EndChar
StartChar: uni0E2D
Encoding: 141 3629
OldEncoding: 3629
Width: 768
VWidth: 1000
Flags: W
HStem: -10 78<379 405> 274 52<342 365> 492 61<367 399> 688 100<485 514>
DStem: 631 541 784 559 553 170 700 168
Fore
180 391 m 1
 131 168 l 2
 124 138 128 111 142 87 c 0
 157 63 180 42 211 25 c 0
 231 14 257 5 288 -1 c 0
 318 -7 350 -10 381 -10 c 0
 408 -10 438 -7 470 -1 c 0
 502 5 532 15 561 29 c 0
 601 48 632 69 656 92 c 0
 680 115 695 141 700 168 c 2
 784 559 l 2
 794 601 792 637 778 667 c 0
 765 696 743 721 713 741 c 0
 666 773 600 788 514 788 c 0
 380 788 271 721 186 586 c 1
 236 559 l 1
 315 645 398 688 485 688 c 0
 536 688 575 676 604 651 c 0
 633 627 642 590 631 541 c 1
 553 170 l 2
 546 139 526 114 493 95 c 0
 459 77 426 68 393 68 c 0
 360 68 332 77 308 95 c 0
 284 114 276 139 283 170 c 2
 305 281 l 1
 312 278 318 276 323 275 c 0
 327 275 334 274 342 274 c 0
 373 274 402 287 429 312 c 0
 456 338 473 369 481 406 c 0
 491 446 486 481 468 510 c 0
 450 539 416 553 367 553 c 0
 326 553 287 538 250 507 c 0
 213 476 190 438 180 391 c 1
332 408 m 0
 337 431 346 451 359 467 c 0
 372 483 386 492 399 492 c 0
 413 492 423 483 429 467 c 0
 435 451 436 431 430 408 c 0
 425 384 416 365 403 349 c 0
 391 333 378 326 365 326 c 0
 351 326 341 333 334 349 c 0
 327 365 326 384 332 408 c 0
EndSplineSet
EndChar
StartChar: uni0E2E
Encoding: 142 3630
OldEncoding: 3630
Width: 782
VWidth: 1000
Flags: W
HStem: -10 78<379 401> 246 51<337 358> 463 61<362 393> 535 69<331 368>
DStem: 631 543 786 561 553 170 702 168
Fore
174 362 m 1
 131 168 l 2
 124 138 128 111 143 87 c 0
 158 63 182 42 213 25 c 0
 232 14 257 5 288 -1 c 0
 318 -7 350 -10 381 -10 c 0
 408 -10 438 -7 470 -1 c 0
 502 5 532 15 561 29 c 0
 601 48 633 69 657 92 c 0
 682 115 697 141 702 168 c 2
 786 561 l 1
 793 588 793 613 784 634 c 0
 776 655 767 674 756 692 c 1
 772 710 791 733 812 761 c 0
 833 789 849 819 860 850 c 1
 721 850 l 1
 711 817 697 787 678 760 c 1
 637 780 584 791 518 791 c 0
 479 791 439 785 399 775 c 0
 360 765 327 752 301 737 c 0
 278 722 256 706 234 688 c 0
 213 670 200 651 195 629 c 1
 195 602 l 1
 201 575 218 557 246 548 c 0
 273 539 302 535 332 535 c 0
 363 535 392 537 418 541 c 0
 451 545 484 552 519 563 c 0
 554 574 591 588 631 606 c 1
 638 588 638 567 631 543 c 1
 553 170 l 2
 546 139 526 114 494 95 c 0
 461 77 427 68 393 68 c 0
 360 68 332 77 308 95 c 0
 284 114 276 139 283 170 c 2
 299 252 l 1
 311 248 324 246 338 246 c 0
 369 246 398 258 424 284 c 0
 450 309 467 340 475 377 c 0
 485 418 481 453 463 481 c 0
 445 510 412 524 362 524 c 0
 320 524 281 509 244 478 c 0
 207 447 184 409 174 362 c 1
434 612 m 0
 425 610 413 608 399 606 c 0
 386 605 371 604 356 604 c 0
 341 604 326 606 309 608 c 0
 293 611 286 616 289 623 c 0
 291 636 304 649 326 659 c 0
 354 674 383 684 413 687 c 0
 442 691 469 692 494 692 c 0
 528 692 556 685 580 670 c 1
 556 656 533 645 509 636 c 0
 485 627 460 619 434 612 c 0
326 379 m 0
 331 402 340 422 353 438 c 0
 366 455 380 463 393 463 c 0
 407 463 417 455 423 438 c 0
 429 422 429 402 424 379 c 0
 418 356 410 336 397 321 c 0
 385 305 372 297 358 297 c 0
 345 297 335 305 328 321 c 0
 321 336 320 356 326 379 c 0
EndSplineSet
EndChar
StartChar: uni0E2F
Encoding: 143 3631
OldEncoding: 3631
Width: 751
VWidth: 1000
Flags: W
HStem: 0 21G<475 625> 461 133<362 373> 737 51<394 405>
DStem: 610 635 764 653 475 0 625 0
Fore
764 653 m 1
 768 677 768 696 765 713 c 0
 762 729 755 743 746 755 c 0
 738 766 727 775 716 780 c 0
 704 786 693 788 682 788 c 0
 634 788 595 772 565 739 c 0
 556 731 546 719 536 701 c 0
 525 684 515 667 504 649 c 0
 485 612 467 586 451 571 c 0
 434 556 421 549 412 549 c 1
 428 557 443 571 456 591 c 0
 469 611 478 632 483 655 c 0
 490 691 487 722 475 749 c 0
 463 775 439 788 403 788 c 0
 364 788 329 775 300 749 c 0
 271 722 251 685 240 637 c 0
 230 592 237 551 259 515 c 0
 282 479 319 461 371 461 c 0
 394 461 414 464 431 471 c 0
 448 478 465 487 481 498 c 0
 488 503 499 513 513 527 c 0
 527 542 542 560 557 584 c 0
 582 625 597 645 604 645 c 0
 611 645 613 642 610 635 c 1
 475 0 l 1
 625 0 l 1
 764 653 l 1
328 666 m 0
 332 685 341 701 354 716 c 0
 368 730 382 737 397 737 c 0
 412 737 423 730 430 716 c 0
 437 701 438 685 434 666 c 0
 430 646 422 630 409 615 c 0
 396 601 382 594 367 594 c 0
 352 594 340 601 333 615 c 0
 325 630 324 646 328 666 c 0
EndSplineSet
EndChar
StartChar: uni0E30
Encoding: 144 3632
OldEncoding: 3632
Width: 641
VWidth: 1000
Flags: W
HStem: 12 78<216 246> 293 51<207 225> 446 78<308 338> 727 51<298 317>
Fore
668 778 m 1
 532 778 l 1
 526 743 516 711 504 684 c 0
 492 657 478 630 463 604 c 1
 425 551 383 524 338 524 c 0
 327 524 315 527 301 532 c 1
 324 541 344 556 361 579 c 0
 379 601 390 626 397 653 c 0
 404 685 400 713 385 739 c 0
 370 765 347 778 315 778 c 0
 273 778 238 765 210 737 c 0
 182 710 164 677 156 637 c 0
 145 584 154 539 184 502 c 0
 214 465 256 446 309 446 c 0
 394 446 470 477 537 539 c 0
 568 570 595 606 617 645 c 0
 640 685 657 729 668 778 c 1
242 657 m 0
 246 677 254 693 266 707 c 0
 279 720 292 727 307 727 c 0
 322 727 333 720 341 707 c 0
 349 693 350 677 346 657 c 0
 342 638 333 622 321 609 c 0
 308 596 294 590 279 590 c 0
 264 590 253 596 246 609 c 0
 239 622 238 638 242 657 c 0
575 344 m 1
 440 344 l 1
 432 309 422 277 411 250 c 0
 399 223 386 196 371 170 c 1
 332 117 291 90 246 90 c 0
 235 90 223 93 209 98 c 1
 232 106 252 122 269 144 c 0
 286 167 298 192 305 219 c 0
 312 251 308 279 293 305 c 0
 278 331 255 344 223 344 c 0
 181 344 146 330 118 303 c 0
 90 276 72 242 63 203 c 0
 53 150 62 104 92 68 c 0
 122 31 164 12 217 12 c 0
 302 12 378 43 444 104 c 0
 476 136 503 171 525 211 c 0
 548 251 565 295 575 344 c 1
150 223 m 0
 154 242 162 259 174 272 c 0
 186 286 200 293 215 293 c 0
 230 293 241 286 249 272 c 0
 256 259 258 242 254 223 c 0
 250 204 241 188 228 175 c 0
 215 162 201 156 186 156 c 0
 171 156 160 162 154 175 c 0
 147 188 145 204 150 223 c 0
EndSplineSet
EndChar
StartChar: uni0E31
Encoding: 145 3633
OldEncoding: 3633
Width: 0
VWidth: 1000
Flags: W
HStem: 858 76<-102 -76> 1128 52<-161 -147>
Fore
293 1180 m 1
 158 1180 l 1
 151 1146 142 1115 130 1087 c 0
 118 1060 103 1036 84 1014 c 0
 63 988 38 968 6 954 c 0
 -25 941 -53 934 -78 934 c 0
 -109 934 -136 938 -158 946 c 1
 -134 953 -115 968 -99 990 c 0
 -84 1013 -73 1036 -68 1059 c 0
 -59 1100 -64 1130 -82 1150 c 0
 -100 1170 -124 1180 -156 1180 c 0
 -191 1180 -224 1168 -254 1146 c 0
 -284 1123 -304 1090 -315 1044 c 0
 -328 987 -313 941 -270 905 c 0
 -251 890 -226 879 -194 870 c 0
 -161 862 -130 858 -100 858 c 0
 -55 858 -9 866 39 881 c 0
 87 896 128 918 162 948 c 0
 195 977 222 1011 245 1050 c 0
 267 1089 283 1132 293 1180 c 1
-211 1061 m 0
 -207 1080 -199 1096 -187 1109 c 0
 -176 1122 -165 1128 -154 1128 c 0
 -143 1128 -134 1122 -129 1109 c 0
 -124 1096 -123 1080 -127 1061 c 0
 -131 1042 -139 1026 -150 1013 c 0
 -160 1000 -171 993 -182 993 c 0
 -193 993 -202 1000 -208 1013 c 0
 -214 1026 -215 1042 -211 1061 c 0
EndSplineSet
EndChar
StartChar: uni0E32
Encoding: 146 3634
OldEncoding: 3634
Width: 567
VWidth: 1000
Flags: W
HStem: 0 21G<295 444>
DStem: 422 598 571 600 295 0 444 0
Fore
444 0 m 1
 295 0 l 1
 422 598 l 1
 429 625 424 647 407 664 c 0
 389 680 368 688 342 688 c 0
 290 688 236 651 180 578 c 1
 129 610 l 1
 165 670 207 715 255 744 c 0
 303 774 356 788 414 788 c 0
 471 788 515 772 546 739 c 0
 577 707 585 660 571 600 c 1
 444 0 l 1
EndSplineSet
EndChar
StartChar: uni0E33
Encoding: 147 3635
OldEncoding: 3635
Width: 571
VWidth: 1000
Flags: W
HStem: 0 21G<287 436> 924 94<-6 14> 1092 94<28 49>
DStem: 416 608 565 610 287 0 436 0
Fore
51 1055 m 0
 57 1079 49 1092 29 1092 c 0
 8 1092 -5 1079 -10 1055 c 0
 -14 1030 -6 1018 14 1018 c 0
 35 1018 47 1030 51 1055 c 0
145 1055 m 0
 139 1019 120 989 91 963 c 0
 62 937 29 924 -6 924 c 0
 -42 924 -69 937 -87 963 c 0
 -105 989 -111 1019 -104 1055 c 0
 -96 1092 -78 1123 -49 1148 c 0
 -20 1173 12 1186 49 1186 c 0
 85 1186 112 1173 130 1147 c 0
 148 1121 154 1090 145 1055 c 0
436 0 m 1
 287 0 l 1
 416 608 l 1
 423 636 416 657 396 674 c 0
 376 690 354 698 328 698 c 0
 272 698 216 661 160 586 c 1
 106 621 l 1
 142 682 185 727 234 757 c 0
 284 786 340 801 401 801 c 0
 459 801 504 784 537 751 c 0
 569 717 579 670 565 610 c 1
 436 0 l 1
EndSplineSet
MinimumDistance: x22,-1 
EndChar
StartChar: uni0E34
Encoding: 148 3636
OldEncoding: 3636
Width: 0
VWidth: 1000
Flags: W
HStem: 911 83<-344 -285> 1042 99<-255 -227>
Fore
-166 977 m 0
 -129 969 -95 958 -63 944 c 1
 -83 969 -109 991 -141 1012 c 0
 -174 1032 -209 1042 -246 1042 c 0
 -266 1042 -289 1040 -315 1035 c 0
 -341 1030 -356 1020 -360 1004 c 0
 -362 998 -356 995 -344 994 c 0
 -332 994 -319 993 -305 993 c 0
 -278 993 -253 992 -230 988 c 0
 -208 985 -186 981 -166 977 c 0
0 821 m 1
 -19 836 -43 850 -71 861 c 0
 -99 873 -128 883 -160 891 c 0
 -179 896 -203 901 -231 905 c 0
 -260 909 -286 911 -309 911 c 0
 -319 911 -332 911 -348 911 c 0
 -365 911 -378 911 -389 909 c 0
 -414 907 -434 907 -450 911 c 0
 -465 915 -479 922 -489 932 c 0
 -496 937 -502 945 -506 955 c 0
 -510 966 -511 976 -508 985 c 0
 -505 997 -500 1010 -492 1022 c 0
 -483 1034 -473 1046 -462 1057 c 0
 -450 1068 -438 1078 -426 1086 c 0
 -414 1095 -403 1103 -393 1108 c 0
 -373 1119 -349 1127 -321 1133 c 0
 -293 1138 -265 1141 -238 1141 c 0
 -203 1141 -168 1133 -132 1117 c 0
 -96 1101 -64 1080 -36 1053 c 0
 -8 1025 13 993 28 955 c 0
 42 918 44 877 35 834 c 1
 0 821 l 1
EndSplineSet
EndChar
StartChar: uni0E35
Encoding: 149 3637
OldEncoding: 3637
Width: 0
VWidth: 1000
Flags: W
HStem: 925 86<-348 -281> 1061 98<-251 -224>
DStem: -35 1227 78 1227 -61 1098 27 983
Fore
78 1227 m 1
 -35 1227 l 1
 -61 1098 l 1
 -113 1139 -171 1159 -233 1159 c 0
 -261 1159 -288 1156 -316 1151 c 0
 -344 1146 -369 1137 -389 1126 c 0
 -399 1121 -410 1114 -422 1105 c 0
 -434 1096 -446 1086 -458 1074 c 0
 -469 1063 -479 1051 -487 1038 c 0
 -496 1026 -501 1014 -504 1001 c 0
 -507 992 -506 982 -503 971 c 0
 -499 960 -494 952 -487 946 c 0
 -467 931 -433 924 -385 924 c 0
 -375 924 -362 924 -346 925 c 0
 -330 925 -317 926 -307 926 c 0
 -284 926 -258 924 -228 920 c 0
 -199 915 -175 911 -156 905 c 0
 -127 897 -96 885 -62 869 c 0
 -29 854 1 835 29 813 c 1
 45 887 44 943 27 983 c 1
 78 1227 l 1
-162 993 m 0
 -182 997 -204 1001 -226 1005 c 0
 -249 1008 -274 1010 -301 1010 c 0
 -315 1010 -328 1010 -340 1011 c 0
 -352 1011 -358 1015 -356 1022 c 0
 -355 1030 -350 1037 -342 1041 c 0
 -334 1046 -324 1050 -312 1053 c 0
 -301 1055 -289 1057 -276 1059 c 0
 -264 1060 -253 1061 -242 1061 c 0
 -205 1061 -170 1050 -137 1029 c 0
 -104 1008 -79 984 -61 958 c 1
 -76 967 -93 973 -110 979 c 0
 -127 984 -144 989 -162 993 c 0
EndSplineSet
EndChar
StartChar: uni0E36
Encoding: 150 3638
OldEncoding: 3638
Width: 0
VWidth: 1000
Flags: W
HStem: 928 87<-347 -281> 1065 98<-251 -225> 1157 82<-23 -4>
Fore
37 850 m 1
 44 881 45 911 40 939 c 0
 35 967 27 993 14 1016 c 1
 33 1027 51 1041 66 1059 c 0
 81 1077 90 1096 94 1118 c 0
 101 1151 95 1179 76 1203 c 0
 57 1227 30 1239 -4 1239 c 0
 -34 1239 -62 1230 -88 1212 c 0
 -114 1195 -133 1173 -145 1147 c 1
 -175 1158 -204 1163 -231 1163 c 0
 -259 1163 -286 1161 -314 1155 c 0
 -342 1150 -367 1141 -389 1130 c 0
 -399 1125 -410 1118 -422 1109 c 0
 -434 1100 -446 1090 -458 1078 c 0
 -469 1067 -479 1055 -487 1042 c 0
 -496 1030 -501 1018 -504 1006 c 0
 -507 996 -506 986 -502 976 c 0
 -498 966 -492 957 -485 950 c 0
 -474 941 -461 935 -445 932 c 0
 -430 929 -410 928 -385 928 c 2
 -307 928 l 2
 -284 928 -258 926 -228 922 c 0
 -199 918 -175 913 -156 909 c 0
 -124 902 -95 893 -67 880 c 0
 -39 867 -15 853 4 838 c 1
 37 850 l 1
-160 997 m 0
 -203 1008 -251 1014 -301 1014 c 0
 -315 1014 -328 1014 -340 1015 c 0
 -352 1015 -358 1019 -356 1024 c 0
 -352 1040 -337 1051 -310 1057 c 0
 -284 1062 -260 1065 -240 1065 c 0
 -203 1065 -168 1054 -136 1033 c 0
 -104 1012 -79 989 -59 963 c 1
 -76 969 -92 976 -109 982 c 0
 -125 988 -142 993 -160 997 c 0
-70 1118 m 0
 -67 1129 -61 1138 -52 1146 c 0
 -43 1153 -33 1157 -23 1157 c 0
 -12 1157 -3 1153 3 1146 c 0
 9 1138 11 1129 8 1118 c 0
 5 1107 -0 1098 -9 1091 c 0
 -18 1083 -28 1079 -39 1079 c 0
 -50 1079 -58 1083 -65 1091 c 0
 -71 1098 -72 1107 -70 1118 c 0
EndSplineSet
EndChar
StartChar: uni0E37
Encoding: 151 3639
OldEncoding: 3639
Width: 0
VWidth: 1000
Flags: W
HStem: 927 86<-348 -281> 1063 98<-251 -223>
DStem: -10 1227 86 1227 -39 1085 33 969
Fore
-231 1161 m 0
 -259 1161 -287 1159 -315 1154 c 0
 -344 1149 -369 1141 -389 1128 c 0
 -399 1123 -410 1115 -422 1106 c 0
 -434 1096 -446 1086 -458 1074 c 0
 -469 1063 -479 1051 -487 1039 c 0
 -496 1028 -501 1016 -504 1004 c 0
 -507 994 -506 984 -503 973 c 0
 -499 962 -494 954 -487 948 c 0
 -467 933 -433 926 -385 926 c 0
 -375 926 -362 926 -346 927 c 0
 -330 927 -317 928 -307 928 c 0
 -284 928 -258 926 -228 922 c 0
 -199 918 -175 913 -156 907 c 0
 -127 899 -96 887 -62 871 c 0
 -29 856 2 837 31 815 c 1
 36 842 39 870 40 898 c 0
 41 926 38 950 33 969 c 1
 86 1227 l 1
 -10 1227 l 1
 -39 1085 l 1
 -43 1088 -47 1091 -51 1095 c 0
 -55 1098 -60 1101 -66 1104 c 2
 -78 1110 l 1
 -53 1227 l 1
 -147 1227 l 1
 -162 1153 l 1
 -182 1158 -205 1161 -231 1161 c 0
-162 995 m 0
 -182 999 -204 1003 -226 1007 c 0
 -249 1010 -274 1012 -301 1012 c 0
 -315 1012 -328 1012 -340 1013 c 0
 -352 1013 -358 1017 -356 1024 c 0
 -355 1032 -350 1039 -342 1043 c 0
 -334 1048 -324 1052 -312 1055 c 0
 -301 1057 -289 1059 -276 1061 c 0
 -264 1062 -253 1063 -242 1063 c 0
 -205 1063 -170 1052 -137 1031 c 0
 -104 1010 -79 986 -59 961 c 1
 -76 969 -93 976 -110 981 c 0
 -127 986 -144 991 -162 995 c 0
EndSplineSet
EndChar
StartChar: uni0E38
Encoding: 152 3640
OldEncoding: 3640
Width: 0
VWidth: 1000
Flags: W
HStem: -283 52<-309 -301>
Fore
-180 -369 m 1
 -135 -156 l 1
 -128 -120 -134 -90 -153 -67 c 0
 -171 -43 -197 -31 -229 -31 c 0
 -269 -31 -301 -42 -326 -65 c 0
 -350 -87 -367 -119 -377 -160 c 0
 -380 -173 -381 -187 -381 -201 c 0
 -381 -216 -378 -229 -373 -240 c 0
 -366 -255 -357 -266 -345 -272 c 0
 -333 -279 -320 -283 -305 -283 c 0
 -302 -283 -296 -281 -285 -279 c 1
 -303 -369 l 1
 -180 -369 l 1
-326 -162 m 0
 -322 -143 -315 -126 -306 -113 c 0
 -297 -99 -288 -92 -279 -92 c 0
 -269 -92 -262 -99 -259 -113 c 0
 -256 -126 -256 -143 -260 -162 c 0
 -264 -181 -271 -197 -280 -211 c 0
 -288 -225 -298 -231 -307 -231 c 0
 -317 -231 -323 -225 -327 -211 c 0
 -330 -197 -330 -181 -326 -162 c 0
EndSplineSet
EndChar
StartChar: uni0E39
Encoding: 153 3641
OldEncoding: 3641
Width: 0
VWidth: 1000
Flags: W
HStem: -369 78<-327.058 -311> -283 52<-501 -491>
DStem: -244 -41 -111 -41 -291 -264 -156 -246
Fore
-313 -156 m 2
 -307 -120 -313 -90 -333 -67 c 0
 -353 -43 -380 -31 -416 -31 c 0
 -502 -31 -554 -74 -571 -160 c 0
 -575 -188 -573 -214 -565 -238 c 0
 -552 -268 -528 -283 -494 -283 c 0
 -484 -283 -475 -281 -467 -276 c 1
 -470 -338 -434 -369 -360 -369 c 2
 -311 -369 l 2
 -224 -369 -172 -328 -156 -246 c 1
 -111 -41 l 1
 -244 -41 l 1
 -291 -264 l 2
 -295 -282 -304 -291 -319 -291 c 0
 -335 -291 -340 -282 -336 -264 c 2
 -313 -156 l 2
-520 -162 m 0
 -516 -143 -509 -126 -499 -113 c 0
 -488 -99 -478 -92 -467 -92 c 0
 -456 -92 -448 -99 -443 -113 c 0
 -439 -126 -438 -143 -442 -162 c 0
 -446 -181 -454 -197 -464 -211 c 0
 -474 -225 -485 -231 -496 -231 c 0
 -507 -231 -514 -225 -519 -211 c 0
 -524 -197 -524 -181 -520 -162 c 0
EndSplineSet
EndChar
StartChar: uni0E3A
Encoding: 154 3642
OldEncoding: 3642
Width: 0
VWidth: 1000
Flags: W
Fore
-152 -113 m 0
 -157 -136 -169 -155 -187 -171 c 0
 -206 -187 -227 -195 -250 -195 c 0
 -273 -195 -291 -187 -304 -171 c 0
 -317 -155 -321 -136 -315 -113 c 0
 -310 -89 -297 -70 -278 -54 c 0
 -258 -39 -237 -31 -215 -31 c 0
 -192 -31 -174 -39 -162 -54 c 0
 -150 -70 -146 -89 -152 -113 c 0
EndSplineSet
EndChar
StartChar: uni0E3F
Encoding: 155 3647
OldEncoding: 3647
Width: 1019
VWidth: 1000
Flags: W
HStem: 0 61<123.063 152.585> 848 86<599 633>
DStem: 403 768 590 825 274 164 526 530 403 768 508 440 274 164 440 123 547 440 674 432 471 84 600 86 633 848 760 840 565 530 694 532
Fore
526 530 m 1
 565 530 l 1
 633 848 l 1
 602 848 l 2
 597 848 593 840 590 825 c 1
 526 530 l 1
471 84 m 1
 547 440 l 1
 508 440 l 1
 440 123 l 1
 436 109 436 99 438 92 c 1
 461 86 l 1
 457 86 l 1
 471 84 l 1
848 686 m 0
 856 726 852 760 836 788 c 0
 819 817 794 834 760 840 c 1
 694 532 l 1
 731 538 764 554 792 582 c 0
 820 609 838 644 848 686 c 0
782 258 m 0
 793 307 789 347 769 379 c 0
 749 410 717 428 674 432 c 1
 600 86 l 1
 644 90 682 108 716 139 c 0
 749 171 771 210 782 258 c 0
582 0 m 1
 567 -70 l 1
 438 -70 l 1
 453 0 l 1
 111 0 l 1
 123 61 l 1
 171 61 205 68 227 81 c 0
 249 94 265 122 274 164 c 1
 403 768 l 2
 412 808 410 836 399 852 c 0
 393 860 381 866 364 869 c 0
 346 873 324 874 297 874 c 1
 309 934 l 1
 651 934 l 1
 668 1016 l 1
 797 1016 l 1
 780 934 l 1
 854 931 913 912 956 877 c 1
 1018 833 1039 770 1020 688 c 0
 1001 595 948 531 862 496 c 1
 894 483 919 463 938 434 c 0
 973 382 984 322 969 254 c 0
 950 167 900 100 821 53 c 0
 790 37 755 24 718 14 c 0
 680 5 640 0 596 0 c 2
 582 0 l 1
EndSplineSet
MinimumDistance: x14,-1 
EndChar
StartChar: uni0E40
Encoding: 156 3648
OldEncoding: 3648
Width: 397
VWidth: 1000
Flags: W
HStem: 219 51<320 336> 750 20G<248.109 397.109>
DStem: 248.109 770 397.109 770 117.231 154 289.232 260
Fore
117.231 154 m 2
 113.231 136 112.232 117 115.231 98 c 0
 117.232 79 123.232 61 132.231 45 c 0
 141.232 29 154.232 15 171.231 4 c 0
 188.231 -7 210.232 -12 235.232 -12 c 0
 283.232 -12 321.232 0 350.232 26 c 0
 379.231 51 399.232 87 410.231 133 c 0
 416.232 166 414.231 197 402.231 226 c 0
 391.231 256 368.231 270 334.231 270 c 0
 320.231 270 305.231 267 289.232 260 c 1
 397.109 770 l 1
 248.109 770 l 1
 117.231 154 l 2
262.231 133 m 0
 268.231 156 276.231 176 289.231 194 c 0
 301.231 211 314.232 219 328.232 219 c 0
 341.232 219 351.231 211 357.231 194 c 0
 363.231 176 364.231 156 358.231 133 c 0
 353.231 110 344.232 90 331.231 74 c 0
 318.231 57 304.232 49 291.232 49 c 0
 277.232 49 268.231 57 262.231 74 c 0
 257.232 90 257.231 110 262.231 133 c 0
EndSplineSet
EndChar
StartChar: uni0E41
Encoding: 157 3649
OldEncoding: 3649
Width: 772
VWidth: 1000
Flags: W
HStem: 219 51<320 336 688 698> 750 20G<249.109 398.109 611.109 761.109>
DStem: 249.109 770 398.109 770 117.231 154 289.232 260 611.109 770 761.109 770 479.231 154 651.232 260
Fore
117.231 154 m 2
 113.231 136 112.232 117 115.231 98 c 0
 117.232 79 123.232 61 132.231 45 c 0
 141.232 29 154.232 15 171.231 4 c 0
 188.231 -7 210.232 -12 235.232 -12 c 0
 283.232 -12 321.232 0 350.232 26 c 0
 379.231 51 399.232 87 410.231 133 c 0
 416.232 166 414.231 197 402.231 226 c 0
 391.231 256 368.231 270 334.231 270 c 0
 320.231 270 305.231 267 289.232 260 c 1
 398.109 770 l 1
 249.109 770 l 1
 117.231 154 l 2
262.231 133 m 0
 268.231 156 276.231 176 289.231 194 c 0
 301.231 211 314.232 219 328.232 219 c 0
 341.232 219 351.231 211 357.231 194 c 0
 363.231 176 364.231 156 358.231 133 c 0
 353.231 110 344.232 90 331.231 74 c 0
 318.231 57 304.231 49 291.232 49 c 0
 277.232 49 268.231 57 262.231 74 c 0
 257.232 90 257.231 110 262.231 133 c 0
479.231 154 m 2
 475.231 136 474.232 117 477.231 98 c 0
 480.232 79 486.232 61 495.231 45 c 0
 503.232 29 516.232 15 533.231 4 c 0
 551.231 -7 572.232 -12 598.232 -12 c 0
 646.232 -12 684.232 0 713.232 26 c 0
 741.231 51 761.232 87 772.231 133 c 0
 779.232 166 776.231 197 765.231 226 c 0
 753.231 256 730.231 270 696.231 270 c 0
 683.231 270 668.231 267 651.232 260 c 1
 761.109 770 l 1
 611.109 770 l 1
 479.231 154 l 2
625.231 133 m 0
 630.231 156 639.231 176 651.231 194 c 0
 664.231 211 676.232 219 690.232 219 c 0
 704.232 219 714.231 211 720.231 194 c 0
 726.231 176 726.231 156 721.231 133 c 0
 715.231 110 706.232 90 693.231 74 c 0
 680.231 57 667.231 49 653.232 49 c 0
 640.232 49 630.231 57 625.231 74 c 0
 619.232 90 619.231 110 625.231 133 c 0
EndSplineSet
MinimumDistance: x30,-1 
EndChar
StartChar: uni0E42
Encoding: 158 3650
OldEncoding: 3650
Width: 471
VWidth: 1000
Flags: W
HStem: 219 51<391 401> 1327 121<382 408>
DStem: 373 1047 528 1077 182 154 354 260
Fore
182 154 m 2
 178 136 177 117 180 98 c 0
 183 79 189 61 199 45 c 0
 208 29 222 15 239 4 c 0
 256 -7 277 -12 303 -12 c 0
 351 -12 389 0 417 26 c 0
 445 51 464 87 475 133 c 0
 482 166 480 197 468 226 c 0
 456 256 433 270 399 270 c 0
 386 270 371 267 354 260 c 1
 528 1077 l 2
 538 1121 534 1160 515 1195 c 0
 497 1230 460 1255 406 1272 c 0
 388 1279 372 1283 357 1285 c 0
 343 1287 328 1290 313 1292 c 1
 339 1315 362 1327 383 1327 c 0
 402 1327 425 1320 451 1306 c 0
 477 1291 501 1277 524 1262 c 0
 532 1256 541 1251 551 1247 c 0
 560 1243 569 1239 575 1235 c 0
 591 1227 606 1222 621 1221 c 0
 636 1219 649 1219 659 1219 c 0
 733 1220 789 1259 827 1335 c 1
 750 1333 l 1
 739 1315 728 1306 719 1305 c 1
 700 1309 l 1
 547 1403 l 2
 521 1421 496 1433 473 1439 c 0
 450 1445 428 1448 408 1448 c 0
 331 1448 248 1377 160 1235 c 1
 167 1234 176 1232 187 1230 c 0
 199 1228 208 1226 213 1225 c 0
 228 1222 244 1219 261 1215 c 0
 278 1212 294 1208 307 1204 c 0
 343 1195 364 1175 372 1146 c 0
 379 1117 380 1083 373 1047 c 1
 182 154 l 2
328 133 m 0
 333 156 342 176 354 194 c 0
 367 211 380 219 393 219 c 0
 407 219 417 211 423 194 c 0
 429 176 429 156 424 133 c 0
 418 110 409 90 396 74 c 0
 383 57 370 49 356 49 c 0
 343 49 333 57 328 74 c 0
 322 90 322 110 328 133 c 0
EndSplineSet
EndChar
StartChar: uni0E43
Encoding: 159 3651
OldEncoding: 3651
Width: 495
VWidth: 1000
Flags: W
HStem: 219 51<421 437> 1034 72<288 305> 1337 119<383 434>
DStem: 430 1157 594 1225 217 154 389 260
Fore
217 154 m 2
 213 136 212 117 215 98 c 0
 218 79 224 61 233 45 c 0
 243 29 256 15 273 4 c 0
 290 -7 312 -12 338 -12 c 0
 386 -12 424 0 452 26 c 0
 480 51 499 87 510 133 c 0
 517 166 514 197 503 226 c 0
 491 256 468 270 434 270 c 0
 421 270 406 267 389 260 c 1
 594 1225 l 1
 609 1290 602 1345 573 1390 c 0
 545 1434 498 1456 434 1456 c 0
 407 1456 380 1450 353 1439 c 0
 327 1427 302 1411 281 1391 c 0
 259 1370 240 1347 224 1320 c 0
 209 1293 197 1265 190 1235 c 0
 177 1171 180 1121 200 1086 c 0
 219 1052 249 1034 289 1034 c 0
 322 1034 351 1047 377 1073 c 0
 403 1099 421 1127 430 1157 c 1
 217 154 l 2
362 133 m 0
 368 156 377 176 389 194 c 0
 401 211 414 219 428 219 c 0
 442 219 452 211 458 194 c 0
 464 176 464 156 459 133 c 0
 453 110 444 90 431 74 c 0
 418 57 405 49 391 49 c 0
 378 49 368 57 362 74 c 0
 357 90 357 110 362 133 c 0
383 1337 m 0
 410 1337 429 1327 439 1306 c 0
 450 1284 451 1257 444 1223 c 1
 434 1180 l 1
 441 1217 438 1246 425 1267 c 0
 412 1288 391 1298 362 1298 c 0
 343 1298 325 1292 306 1278 c 0
 288 1264 275 1245 268 1221 c 1
 275 1252 290 1279 312 1303 c 0
 335 1326 358 1337 383 1337 c 0
360 1167 m 0
 358 1150 351 1135 340 1123 c 0
 329 1112 317 1106 303 1106 c 0
 288 1106 276 1114 268 1132 c 0
 260 1149 258 1169 262 1192 c 1
 259 1171 262 1156 270 1147 c 0
 276 1140 282 1135 289 1132 c 0
 296 1128 301 1126 305 1126 c 2
 330 1126 l 1
 338 1165 l 1
 324 1165 l 2
 322 1167 322 1168 322 1169 c 0
 322 1171 321 1173 319 1176 c 0
 318 1178 318 1182 319 1187 c 0
 321 1192 322 1195 322 1198 c 0
 326 1220 335 1231 348 1231 c 0
 366 1231 370 1210 360 1167 c 0
EndSplineSet
EndChar
StartChar: uni0E44
Encoding: 160 3652
OldEncoding: 3652
Width: 522
VWidth: 1000
Flags: W
HStem: 219 51<443 459> 1020 438<281 296>
DStem: 412 1362 483 1325 348 1249 326 1051 489 1329 639 1333 240 154 412 260
Fore
240 154 m 2
 236 136 235 117 238 98 c 0
 240 79 246 61 256 45 c 0
 266 29 279 15 296 4 c 0
 313 -7 335 -12 360 -12 c 0
 408 -12 446 0 474 26 c 0
 502 51 522 87 532 133 c 0
 539 166 537 197 525 226 c 0
 514 256 491 270 457 270 c 0
 443 270 428 267 412 260 c 1
 639 1333 l 2
 646 1367 642 1397 628 1423 c 0
 613 1449 590 1462 557 1462 c 0
 498 1462 450 1429 412 1362 c 2
 348 1249 l 1
 324 1442 l 1
 319 1453 305 1458 281 1458 c 1
 252 1425 l 1
 256 1059 l 1
 256 1033 266 1020 287 1020 c 0
 304 1020 317 1030 326 1051 c 1
 483 1325 l 2
 485 1326 486 1328 487 1331 c 0
 489 1334 489 1335 489 1335 c 1
 489 1329 l 1
 240 154 l 2
385 133 m 0
 390 156 399 176 412 194 c 0
 424 211 437 219 451 219 c 0
 464 219 474 211 480 194 c 0
 486 176 487 156 481 133 c 0
 476 110 467 90 454 74 c 0
 441 57 427 49 414 49 c 0
 400 49 390 57 385 74 c 0
 380 90 380 110 385 133 c 0
EndSplineSet
EndChar
StartChar: uni0E45
Encoding: 161 3653
OldEncoding: 3653
Width: 415
VWidth: 1000
Flags: WO
HStem: 698 101<186 248>
DStem: 270 606 420 608 70 -334 219 -334
Fore
219 -334 m 1
 70 -334 l 1
 270 606 l 1
 277 634 271 656 252 673 c 0
 233 690 211 698 186 698 c 0
 137 698 84 661 27 586 c 1
 -23 618 l 1
 13 680 55 725 104 755 c 0
 154 784 201 799 248 799 c 0
 275 799 301 794 325 785 c 0
 349 777 369 764 385 748 c 0
 401 731 413 711 420 688 c 0
 427 665 427 638 420 608 c 2
 219 -334 l 1
EndSplineSet
EndChar
StartChar: uni0E46
Encoding: 162 3654
OldEncoding: 3654
Width: 788
VWidth: 1000
Flags: W
HStem: 356 62<236 256> 569 52<285 297> 719 82<346 363>
DStem: 348 -184 496 -205 229 -334 395 -334 565 659 707 616 414 -55 557 -90
Fore
557 -90 m 2
 707 616 l 2
 717 667 712 710 690 746 c 0
 668 783 634 801 586 801 c 0
 558 801 533 797 509 790 c 0
 485 782 464 770 446 754 c 1
 429 785 401 801 365 801 c 0
 337 801 312 796 290 785 c 0
 267 775 246 757 225 731 c 0
 191 690 168 644 156 592 c 0
 123 435 150 356 236 356 c 0
 270 356 299 371 323 399 c 0
 346 428 362 458 369 489 c 0
 375 521 373 551 361 579 c 0
 350 607 328 621 297 621 c 0
 279 621 264 616 252 606 c 1
 260 643 273 671 292 690 c 0
 310 709 331 719 354 719 c 0
 371 719 382 711 387 694 c 0
 393 678 392 656 385 629 c 1
 461 629 l 1
 468 656 478 678 492 694 c 0
 505 711 520 719 535 719 c 0
 550 719 559 713 564 701 c 0
 569 690 569 676 565 659 c 1
 414 -55 l 2
 412 -63 410 -73 408 -85 c 0
 405 -97 401 -106 395 -115 c 0
 388 -128 382 -140 375 -150 c 0
 368 -159 359 -171 348 -184 c 2
 229 -334 l 1
 395 -334 l 1
 496 -205 l 2
 515 -179 529 -156 539 -137 c 0
 548 -118 554 -102 557 -90 c 2
227 494 m 0
 231 514 240 532 252 547 c 0
 264 562 276 569 289 569 c 0
 301 569 310 562 315 547 c 0
 321 532 322 514 317 494 c 0
 313 473 305 455 293 440 c 0
 281 425 268 418 256 418 c 0
 244 418 235 425 229 440 c 0
 224 455 223 473 227 494 c 0
EndSplineSet
MinimumDistance: x1,-1 
EndChar
StartChar: uni0E47
Encoding: 163 3655
OldEncoding: 3655
Width: 0
VWidth: 1000
Flags: W
HStem: 899 70<-279 -266> 991 56<-117 -105> 1059 71<-95 -74> 1067 74<-213 -193>
Fore
-211 954 m 0
 -212 950 -213 947 -212 943 c 0
 -211 940 -211 936 -211 932 c 1
 -215 940 -223 948 -233 956 c 0
 -244 965 -255 969 -266 969 c 0
 -274 969 -282 967 -289 964 c 0
 -296 960 -302 956 -307 952 c 1
 -307 956 -308 961 -309 967 c 0
 -311 972 -311 978 -309 983 c 0
 -304 1008 -295 1025 -283 1036 c 0
 -270 1047 -259 1054 -248 1057 c 0
 -233 1064 -214 1067 -193 1067 c 0
 -161 1066 -139 1064 -125 1062 c 0
 -111 1060 -99 1059 -88 1059 c 0
 -66 1059 -49 1062 -37 1069 c 0
 22 1095 57 1141 70 1208 c 1
 -33 1196 l 1
 -41 1152 -57 1130 -82 1130 c 0
 -87 1130 -96 1131 -109 1133 c 0
 -121 1134 -133 1135 -145 1137 c 0
 -156 1138 -166 1139 -174 1140 c 0
 -182 1140 -190 1141 -197 1141 c 2
 -211 1141 l 2
 -256 1141 -297 1127 -334 1101 c 0
 -371 1074 -395 1035 -406 983 c 0
 -414 945 -407 911 -384 881 c 0
 -361 851 -329 832 -287 825 c 1
 -298 840 -300 857 -295 874 c 0
 -294 881 -292 887 -290 892 c 0
 -288 897 -284 899 -279 899 c 0
 -269 899 -261 893 -256 881 c 0
 -251 868 -246 859 -242 852 c 0
 -238 847 -230 841 -220 835 c 0
 -210 828 -195 825 -176 825 c 0
 -153 825 -132 830 -115 841 c 0
 -97 851 -83 862 -74 872 c 0
 -63 886 -54 898 -47 907 c 0
 -40 917 -35 931 -31 950 c 0
 -28 967 -28 980 -31 991 c 0
 -33 1002 -38 1011 -45 1018 c 0
 -60 1037 -81 1047 -106 1047 c 0
 -131 1047 -153 1038 -173 1020 c 0
 -193 1002 -205 980 -211 954 c 0
-145 956 m 0
 -143 966 -138 974 -132 981 c 0
 -126 988 -119 991 -113 991 c 0
 -104 991 -99 988 -95 981 c 0
 -92 974 -91 966 -94 956 c 0
 -96 948 -100 941 -106 935 c 0
 -113 929 -120 926 -127 926 c 0
 -134 926 -139 929 -142 935 c 0
 -146 941 -147 948 -145 956 c 0
EndSplineSet
EndChar
StartChar: uni0E48
Encoding: 164 3656
OldEncoding: 3656
Width: 0
VWidth: 1000
Flags: W
Fore
160 1569 m 1
 129 1452 l 1
 86 1317 l 1
 82 1307 75 1300 65 1294 c 0
 54 1289 46 1286 39 1286 c 0
 31 1286 23 1289 16 1294 c 0
 10 1300 7 1307 8 1317 c 1
 23 1454 l 1
 43 1569 l 1
 160 1569 l 1
EndSplineSet
EndChar
StartChar: uni0E49
Encoding: 165 3657
OldEncoding: 3657
Width: 0
VWidth: 1000
Flags: W
Fore
246 1583 m 1
 133 1583 l 1
 122 1531 105 1488 83 1452 c 0
 60 1417 32 1391 -2 1376 c 1
 21 1402 38 1434 47 1473 c 0
 53 1496 49 1518 37 1539 c 0
 25 1560 6 1571 -18 1571 c 0
 -44 1571 -67 1560 -87 1538 c 0
 -107 1516 -119 1494 -125 1470 c 0
 -136 1421 -125 1389 -92 1374 c 1
 -118 1363 -145 1356 -172 1354 c 1
 -184 1290 l 1
 -109 1290 l 2
 -89 1290 -70 1292 -50 1295 c 0
 -30 1299 -10 1304 10 1311 c 0
 36 1318 62 1330 87 1349 c 0
 112 1367 136 1389 158 1413 c 0
 180 1438 198 1465 214 1494 c 0
 230 1523 240 1553 246 1583 c 1
-68 1470 m 0
 -65 1484 -60 1496 -52 1505 c 0
 -45 1515 -37 1520 -29 1520 c 0
 -20 1520 -15 1515 -11 1505 c 0
 -8 1496 -8 1484 -10 1470 c 0
 -13 1457 -18 1446 -26 1437 c 0
 -33 1428 -41 1423 -49 1423 c 0
 -57 1423 -63 1428 -67 1437 c 0
 -70 1446 -70 1457 -68 1470 c 0
EndSplineSet
EndChar
StartChar: uni0E4A
Encoding: 166 3658
OldEncoding: 3658
Width: 0
VWidth: 1000
Flags: W
HStem: 1290 47<-216 -201>
Fore
231 1544 m 1
 121 1544 l 1
 115 1497 l 1
 104 1442 l 1
 111 1509 80 1542 10 1542 c 0
 -1 1542 -12 1539 -24 1533 c 0
 -35 1527 -46 1520 -55 1511 c 1
 -61 1520 -69 1527 -79 1533 c 0
 -89 1539 -102 1542 -117 1542 c 0
 -148 1542 -175 1534 -197 1519 c 0
 -218 1503 -237 1485 -252 1466 c 0
 -267 1443 -278 1418 -285 1391 c 0
 -290 1366 -286 1343 -272 1322 c 0
 -259 1301 -240 1290 -215 1290 c 0
 -184 1290 -159 1300 -142 1321 c 0
 -125 1341 -115 1361 -111 1380 c 0
 -104 1408 -103 1428 -108 1443 c 0
 -112 1457 -120 1468 -131 1475 c 1
 -101 1475 -91 1451 -100 1403 c 1
 -43 1403 l 1
 -33 1451 -19 1475 0 1475 c 0
 22 1475 29 1458 23 1425 c 0
 20 1409 9 1393 -10 1377 c 0
 -29 1362 -49 1351 -70 1346 c 1
 -84 1286 l 1
 91 1286 196 1372 231 1544 c 1
-231 1380 m 0
 -229 1394 -223 1405 -214 1414 c 0
 -205 1423 -195 1427 -184 1427 c 0
 -175 1427 -169 1423 -166 1414 c 0
 -163 1405 -163 1394 -166 1380 c 0
 -169 1368 -173 1358 -179 1350 c 0
 -185 1341 -193 1337 -203 1337 c 0
 -214 1337 -222 1341 -227 1350 c 0
 -233 1358 -234 1368 -231 1380 c 0
EndSplineSet
EndChar
StartChar: uni0E4B
Encoding: 167 3659
OldEncoding: 3659
Width: 0
VWidth: 1000
Flags: W
HStem: 1395 86<-89 -4 131 209>
Fore
29 1585 m 1
 10 1481 l 1
 -88 1481 l 1
 -106 1395 l 1
 -4 1395 l 1
 -25 1290 l 1
 84 1290 l 1
 109 1395 l 1
 209 1395 l 1
 227 1481 l 1
 131 1481 l 1
 156 1585 l 1
 29 1585 l 1
EndSplineSet
EndChar
StartChar: uni0E4C
Encoding: 168 3660
OldEncoding: 3660
Width: 0
VWidth: 1000
Flags: W
HStem: 1227 51<-116 -98>
Fore
63 1475 m 0
 99 1488 125 1503 142 1520 c 0
 159 1536 170 1554 174 1575 c 0
 178 1586 180 1600 180 1618 c 1
 70 1595 l 1
 70 1589 70 1582 71 1576 c 0
 71 1570 71 1563 70 1556 c 0
 67 1546 57 1537 40 1530 c 0
 23 1523 10 1518 0 1516 c 0
 -61 1501 -109 1479 -142 1452 c 0
 -176 1425 -197 1390 -207 1348 c 0
 -214 1313 -209 1285 -193 1262 c 0
 -176 1238 -150 1227 -115 1227 c 0
 -86 1227 -59 1238 -35 1261 c 0
 -10 1283 5 1311 12 1346 c 0
 22 1393 14 1427 -12 1446 c 1
 0 1451 13 1456 27 1461 c 0
 40 1466 53 1470 63 1475 c 0
-123 1337 m 0
 -120 1352 -114 1366 -104 1379 c 0
 -95 1392 -85 1399 -74 1399 c 0
 -63 1399 -55 1392 -50 1379 c 0
 -45 1366 -44 1352 -47 1337 c 0
 -51 1318 -58 1304 -68 1293 c 0
 -77 1283 -87 1278 -98 1278 c 0
 -123 1278 -131 1298 -123 1337 c 0
EndSplineSet
EndChar
StartChar: uni0E4D
Encoding: 169 3661
OldEncoding: 3661
Width: 0
VWidth: 1000
Flags: W
HStem: 846 76<-48 -31>
Fore
-141 963 m 0
 -148 930 -142 902 -123 880 c 0
 -104 857 -79 846 -47 846 c 0
 -16 846 14 857 42 880 c 0
 70 902 87 930 94 963 c 0
 101 995 95 1023 77 1047 c 0
 58 1070 33 1081 2 1081 c 0
 -29 1081 -59 1070 -88 1047 c 0
 -117 1023 -134 995 -141 963 c 0
-61 963 m 0
 -59 973 -53 983 -44 992 c 0
 -35 1001 -25 1006 -14 1006 c 0
 -3 1006 5 1001 11 992 c 0
 17 983 19 973 16 963 c 0
 14 952 8 942 -1 934 c 0
 -10 926 -20 922 -31 922 c 0
 -42 922 -50 926 -56 934 c 0
 -62 942 -64 952 -61 963 c 0
EndSplineSet
EndChar
StartChar: uni0E4E
Encoding: 170 3662
OldEncoding: 3662
Width: 0
VWidth: 1000
Flags: W
HStem: 1083 99<-95 -66> 1196 90<103 117>
Fore
201 1143 m 0
 198 1143 194 1144 187 1147 c 0
 181 1150 177 1154 174 1159 c 0
 170 1167 163 1176 155 1184 c 0
 146 1192 132 1196 115 1196 c 0
 100 1196 84 1191 69 1180 c 0
 53 1169 42 1152 37 1130 c 0
 35 1114 38 1100 43 1087 c 0
 46 1081 46 1072 43 1061 c 0
 40 1053 34 1046 26 1039 c 0
 17 1033 9 1030 2 1030 c 0
 -12 1030 -21 1037 -27 1051 c 0
 -33 1066 -41 1075 -50 1078 c 0
 -59 1082 -71 1083 -86 1083 c 0
 -101 1083 -116 1078 -130 1067 c 0
 -144 1056 -154 1041 -158 1022 c 0
 -160 1008 -159 996 -153 986 c 0
 -146 976 -138 971 -127 971 c 0
 -112 971 -100 974 -91 980 c 0
 -82 986 -74 993 -68 999 c 1
 -41 987 l 1
 -57 942 l 1
 -89 913 -126 899 -168 899 c 0
 -206 899 -234 912 -252 937 c 0
 -270 962 -274 993 -266 1028 c 0
 -261 1054 -250 1078 -233 1100 c 0
 -214 1126 -191 1146 -163 1160 c 0
 -135 1175 -107 1182 -80 1182 c 0
 -65 1182 -50 1179 -35 1174 c 1
 -28 1205 -11 1232 15 1253 c 0
 42 1275 72 1286 104 1286 c 0
 132 1286 156 1281 176 1271 c 0
 197 1261 212 1245 223 1223 c 0
 226 1216 229 1207 231 1196 c 0
 234 1185 234 1176 231 1169 c 0
 229 1152 218 1143 201 1143 c 0
EndSplineSet
EndChar
StartChar: uni0E4F
Encoding: 171 3663
OldEncoding: 3663
Width: 1118
VWidth: 1000
Flags: W
HStem: 0 82<551 576> 188 78<593 612> 522 78<662 680> 715 73<692 723>
Fore
244 393 m 0
 231 339 230 287 241 240 c 0
 251 192 270 150 298 115 c 0
 326 79 362 51 406 31 c 0
 449 10 498 0 553 0 c 0
 608 0 661 10 714 31 c 0
 766 51 814 79 857 115 c 0
 900 150 937 192 968 240 c 0
 998 287 1020 339 1032 393 c 0
 1044 448 1045 499 1034 547 c 0
 1023 595 1004 637 976 673 c 0
 948 709 912 737 868 758 c 0
 825 778 776 788 721 788 c 0
 666 788 613 778 560 758 c 0
 508 737 460 709 417 673 c 0
 374 637 337 595 307 547 c 0
 277 499 256 448 244 393 c 0
322 397 m 0
 331 441 348 482 373 520 c 0
 397 558 427 592 461 621 c 0
 495 649 533 672 574 689 c 0
 616 706 658 715 700 715 c 0
 744 715 783 706 817 689 c 0
 851 672 880 649 902 621 c 0
 925 592 940 558 948 520 c 0
 956 482 956 441 946 397 c 0
 937 354 920 313 895 274 c 0
 870 236 841 203 807 174 c 0
 773 145 735 123 694 106 c 0
 653 90 611 82 567 82 c 0
 525 82 486 90 452 106 c 0
 417 123 388 145 366 174 c 0
 343 203 328 236 319 274 c 0
 311 313 312 354 322 397 c 0
430 393 m 0
 418 336 427 287 459 248 c 0
 490 208 535 188 594 188 c 0
 623 188 651 194 678 205 c 0
 705 216 730 230 753 249 c 0
 775 267 795 289 811 313 c 0
 827 338 838 365 844 393 c 0
 856 451 847 499 815 540 c 0
 784 580 739 600 680 600 c 0
 651 600 623 595 596 584 c 0
 569 573 544 558 521 540 c 0
 499 521 480 499 464 474 c 0
 448 449 437 422 430 393 c 0
512 393 m 0
 519 429 537 459 566 484 c 0
 596 510 628 522 664 522 c 0
 699 522 726 510 744 484 c 0
 763 459 769 429 762 393 c 0
 755 358 737 328 708 303 c 0
 678 279 646 266 610 266 c 0
 575 266 548 279 529 303 c 0
 511 328 505 358 512 393 c 0
EndSplineSet
EndChar
StartChar: uni0E50
Encoding: 172 3664
OldEncoding: 3664
Width: 962
VWidth: 1000
Flags: W
HStem: -10 63<472 500> 520 74<578 604>
Fore
217 291 m 0
 209 248 209 209 218 173 c 0
 227 137 243 105 266 78 c 0
 289 51 319 29 354 13 c 0
 390 -2 430 -10 475 -10 c 0
 520 -10 564 -2 606 13 c 0
 649 29 687 51 722 78 c 0
 757 105 786 137 811 173 c 0
 836 209 852 248 860 291 c 0
 870 333 870 373 861 410 c 0
 852 446 836 479 813 506 c 0
 790 533 760 555 725 570 c 0
 689 586 649 594 604 594 c 0
 559 594 515 586 473 570 c 0
 431 555 392 533 357 506 c 0
 323 479 293 446 268 410 c 0
 244 373 227 333 217 291 c 0
362 285 m 0
 369 317 380 348 395 377 c 0
 410 406 428 430 449 452 c 0
 469 473 491 489 515 502 c 0
 539 514 563 520 588 520 c 0
 636 520 672 497 696 452 c 0
 721 406 726 350 713 285 c 0
 706 252 695 222 680 194 c 0
 665 166 647 141 627 121 c 0
 606 100 584 84 561 72 c 0
 538 59 514 53 489 53 c 0
 465 53 443 59 425 72 c 0
 407 84 392 100 380 121 c 0
 368 141 361 166 357 194 c 0
 354 222 356 252 362 285 c 0
EndSplineSet
EndChar
StartChar: uni0E51
Encoding: 173 3665
OldEncoding: 3665
Width: 962
VWidth: 1000
Flags: W
HStem: -12 80<403 446> 266 62<506 532> 520 76<582 602>
Fore
866 276 m 0
 876 323 876 366 866 404 c 0
 857 443 840 477 815 506 c 0
 791 535 760 557 723 572 c 0
 686 588 645 596 600 596 c 0
 558 596 516 588 474 573 c 0
 432 558 394 537 357 510 c 0
 321 483 290 450 265 413 c 0
 240 375 223 335 213 291 c 0
 206 255 205 219 209 183 c 0
 213 147 223 115 240 86 c 0
 256 57 278 34 305 15 c 0
 332 -3 365 -12 403 -12 c 0
 520 -12 591 53 616 184 c 0
 623 220 620 253 606 283 c 0
 593 313 568 328 532 328 c 0
 497 328 467 315 441 289 c 0
 416 263 399 232 391 197 c 0
 384 168 387 141 398 115 c 0
 410 89 429 73 457 68 c 1
 446 68 l 2
 406 68 377 93 360 143 c 0
 352 164 348 186 348 211 c 0
 348 236 352 261 358 289 c 0
 364 316 373 343 387 371 c 0
 401 398 417 423 437 445 c 0
 457 468 479 486 504 500 c 0
 528 513 555 520 584 520 c 0
 615 520 641 513 662 499 c 0
 682 484 698 466 709 443 c 0
 720 421 726 395 727 366 c 0
 728 336 726 306 719 274 c 0
 694 156 630 70 526 16 c 1
 541 -25 l 1
 579 -25 616 -15 652 5 c 0
 688 25 721 50 751 80 c 0
 780 110 805 143 825 178 c 0
 846 214 859 246 866 276 c 0
442 193 m 0
 446 213 455 230 467 245 c 0
 479 259 492 266 506 266 c 0
 520 266 529 259 535 245 c 0
 540 230 541 213 537 193 c 0
 532 172 524 155 512 140 c 0
 500 126 487 119 473 119 c 0
 459 119 450 126 444 140 c 0
 439 155 438 172 442 193 c 0
EndSplineSet
EndChar
StartChar: uni0E52
Encoding: 174 3666
OldEncoding: 3666
Width: 962
VWidth: 1000
Flags: W
HStem: -6 74<375 608> 383 51<531 543>
DStem: 274 639 395 553 203 303 324 211
Fore
922 326 m 0
 961 513 915 606 784 606 c 0
 750 606 719 592 690 563 c 1
 675 592 650 606 614 606 c 0
 586 606 558 600 532 587 c 0
 507 574 483 557 463 537 c 0
 442 516 425 493 410 466 c 0
 395 439 384 412 379 385 c 0
 373 360 370 337 370 313 c 0
 369 290 372 268 379 248 c 0
 387 219 401 199 420 186 c 0
 439 174 458 168 477 168 c 0
 515 168 547 183 571 213 c 0
 593 238 608 266 614 299 c 0
 621 335 618 366 606 393 c 0
 594 421 571 434 537 434 c 0
 526 434 515 432 504 428 c 1
 508 444 518 464 535 487 c 0
 555 520 577 537 600 537 c 0
 614 537 623 526 627 505 c 0
 631 484 631 455 629 420 c 1
 694 420 l 1
 722 498 747 537 770 537 c 0
 803 537 812 503 797 436 c 1
 750 209 l 2
 743 176 733 150 720 131 c 0
 707 112 693 96 678 82 c 0
 666 72 645 68 616 68 c 2
 389 68 l 2
 377 68 367 70 359 74 c 0
 352 78 347 82 344 86 c 0
 318 112 311 154 324 211 c 2
 395 553 l 1
 438 747 403 872 293 928 c 1
 236 881 l 1
 289 848 302 767 274 639 c 2
 203 303 l 2
 193 257 188 215 186 179 c 0
 185 143 190 113 201 88 c 0
 212 59 232 37 261 19 c 0
 290 2 329 -6 377 -6 c 2
 582 -6 l 2
 617 -6 653 -1 690 10 c 0
 727 21 760 38 788 61 c 0
 851 111 896 199 922 326 c 0
479 305 m 0
 483 327 491 345 503 360 c 0
 514 375 526 383 539 383 c 0
 551 383 559 375 564 360 c 0
 569 345 569 327 565 305 c 0
 560 283 552 265 541 251 c 0
 530 237 518 229 506 229 c 0
 494 229 485 237 479 251 c 0
 474 265 474 283 479 305 c 0
EndSplineSet
MinimumDistance: x32,-1 
EndChar
StartChar: uni0E53
Encoding: 175 3667
OldEncoding: 3667
Width: 962
VWidth: 1000
Flags: W
HStem: 201 51<448 459> 502 90<471 481 727 758>
Fore
922 311 m 0
 928 344 930 377 928 411 c 0
 925 444 917 474 903 501 c 0
 890 527 871 549 847 566 c 0
 823 583 793 592 758 592 c 0
 695 592 642 563 598 506 c 1
 575 565 538 594 487 594 c 0
 449 594 412 585 377 566 c 0
 341 548 310 524 282 495 c 0
 254 465 230 432 211 396 c 0
 192 360 178 324 170 289 c 0
 160 246 159 207 166 169 c 0
 173 131 186 98 205 68 c 0
 225 36 251 15 283 4 c 0
 314 -7 345 -12 377 -12 c 0
 414 -12 448 -0 479 24 c 0
 511 47 531 80 541 121 c 0
 547 154 543 184 528 211 c 0
 513 238 489 252 457 252 c 0
 423 252 393 239 369 212 c 0
 344 185 328 156 322 123 c 1
 313 142 310 165 310 193 c 0
 311 220 315 251 322 287 c 0
 326 304 332 326 340 350 c 0
 348 375 359 398 373 421 c 0
 386 443 401 463 418 478 c 0
 434 494 453 502 473 502 c 0
 506 502 530 462 545 383 c 1
 606 383 l 1
 649 462 689 502 727 502 c 0
 743 502 756 495 764 480 c 0
 772 466 778 449 780 428 c 0
 783 408 783 386 781 365 c 0
 779 343 777 324 774 309 c 0
 744 165 687 74 602 37 c 1
 633 -14 l 1
 668 -8 702 8 735 32 c 0
 768 56 797 83 822 115 c 0
 848 146 869 179 887 214 c 0
 905 249 916 281 922 311 c 0
383 125 m 0
 387 145 396 163 410 178 c 0
 423 193 438 201 453 201 c 0
 468 201 479 193 485 178 c 0
 492 163 494 145 489 125 c 0
 485 104 477 87 463 72 c 0
 449 57 435 49 420 49 c 0
 405 49 394 57 387 72 c 0
 380 87 379 104 383 125 c 0
EndSplineSet
EndChar
StartChar: uni0E54
Encoding: 176 3668
OldEncoding: 3668
Width: 962
VWidth: 1000
Flags: W
Fore
1065 940 m 1
 993 891 l 1
 987 829 l 1
 967 739 856 666 655 608 c 0
 526 573 427 535 360 494 c 0
 250 428 183 344 160 242 c 0
 143 167 158 106 203 61 c 0
 244 20 302 0 377 0 c 0
 388 0 402 1 419 3 c 0
 436 5 455 9 477 14 c 0
 565 29 622 37 649 37 c 0
 678 37 705 34 731 29 c 0
 757 23 782 13 805 -2 c 1
 870 27 l 1
 859 48 842 68 819 86 c 0
 796 104 767 119 731 131 c 1
 729 129 l 1
 710 136 694 143 680 152 c 0
 666 160 654 167 643 174 c 1
 670 181 694 197 714 221 c 0
 734 246 747 273 754 303 c 0
 760 335 757 364 743 392 c 0
 730 420 707 434 676 434 c 0
 631 434 592 418 560 386 c 0
 528 354 507 316 498 272 c 0
 494 252 492 231 494 211 c 0
 495 190 500 173 510 158 c 0
 517 147 524 138 530 130 c 0
 537 123 544 115 551 109 c 1
 526 104 504 102 485 102 c 0
 458 102 433 106 410 113 c 0
 386 119 366 128 348 139 c 0
 313 167 300 205 309 254 c 0
 326 328 379 388 469 436 c 0
 491 447 523 460 564 475 c 0
 606 490 657 507 719 526 c 0
 928 592 1045 686 1071 809 c 0
 1074 828 1075 849 1073 870 c 0
 1072 892 1069 915 1065 940 c 1
588 307 m 0
 592 328 601 345 615 360 c 0
 630 375 645 383 662 383 c 0
 678 383 690 375 698 360 c 0
 707 345 709 328 705 307 c 0
 700 287 691 269 676 255 c 0
 661 241 645 233 629 233 c 0
 612 233 600 241 593 255 c 0
 585 269 584 287 588 307 c 0
EndSplineSet
EndChar
StartChar: uni0E55
Encoding: 177 3669
OldEncoding: 3669
Width: 962
VWidth: 1000
Flags: W
Fore
1065 940 m 1
 991 891 l 1
 993 844 l 1
 991 825 l 1
 983 786 961 751 924 721 c 0
 887 691 837 664 774 641 c 1
 777 646 778 652 778 657 c 0
 786 693 781 723 761 746 c 0
 741 770 713 782 678 782 c 0
 640 782 606 770 577 746 c 0
 547 723 528 692 520 655 c 0
 517 639 517 624 519 609 c 0
 521 595 527 582 537 571 c 1
 444 540 371 507 319 471 c 0
 232 410 179 333 160 242 c 0
 143 167 158 106 203 61 c 0
 244 20 302 0 377 0 c 0
 388 0 402 1 419 3 c 0
 436 5 455 9 477 14 c 0
 565 29 622 37 649 37 c 0
 678 37 705 34 731 29 c 0
 757 23 782 13 805 -2 c 1
 870 27 l 1
 859 48 842 68 819 86 c 0
 796 104 767 119 731 131 c 1
 729 129 l 1
 710 136 694 143 680 152 c 0
 666 160 654 167 643 174 c 1
 670 181 694 197 714 221 c 0
 734 246 747 273 754 303 c 0
 760 335 757 364 743 392 c 0
 730 420 707 434 676 434 c 0
 582 434 522 380 498 272 c 0
 492 246 494 217 504 185 c 0
 513 153 529 128 551 109 c 1
 526 104 504 102 485 102 c 0
 458 102 433 106 410 113 c 0
 386 119 366 128 348 139 c 0
 313 167 300 205 309 254 c 0
 320 306 344 347 381 379 c 0
 396 391 420 407 454 425 c 0
 487 443 530 462 582 481 c 0
 598 488 614 494 631 500 c 0
 647 505 659 511 668 518 c 1
 672 518 l 2
 679 518 688 520 699 524 c 0
 711 528 721 532 729 537 c 0
 781 560 827 581 866 601 c 0
 906 621 940 641 968 662 c 0
 996 682 1018 704 1035 727 c 0
 1052 750 1064 777 1071 807 c 0
 1075 827 1077 849 1075 870 c 0
 1074 892 1070 915 1065 940 c 1
588 309 m 0
 592 330 601 347 615 361 c 0
 630 376 645 383 662 383 c 0
 678 383 690 376 698 361 c 0
 707 347 709 330 705 309 c 0
 700 289 691 272 677 258 c 0
 663 244 647 238 631 238 c 0
 614 238 602 244 594 258 c 0
 586 272 584 289 588 309 c 0
702 666 m 0
 700 656 694 645 686 634 c 0
 678 622 666 613 651 606 c 1
 628 606 612 612 602 624 c 0
 593 635 589 649 592 664 c 0
 596 683 605 698 617 710 c 0
 630 721 644 727 659 727 c 0
 696 727 711 707 702 666 c 0
EndSplineSet
EndChar
StartChar: uni0E56
Encoding: 178 3670
OldEncoding: 3670
Width: 962
VWidth: 1000
Flags: W
HStem: -10 73<491 523> 328 51<404 418> 526 80<601 627>
Fore
885 295 m 0
 894 341 895 384 887 422 c 0
 879 460 863 493 839 520 c 0
 815 547 785 569 749 584 c 0
 712 599 671 606 625 606 c 0
 574 606 525 596 477 575 c 1
 480 581 482 586 482 591 c 0
 483 596 484 600 485 604 c 0
 492 640 494 675 489 711 c 0
 485 746 474 780 455 813 c 1
 419 887 358 924 272 924 c 1
 252 866 l 1
 279 859 302 847 321 829 c 0
 339 812 353 789 362 762 c 0
 379 713 382 660 371 604 c 0
 367 588 361 570 353 551 c 0
 346 532 337 511 326 489 c 1
 406 442 l 1
 474 498 541 526 608 526 c 0
 662 526 700 502 723 453 c 0
 745 405 749 352 735 293 c 0
 727 252 716 220 702 197 c 0
 655 108 593 63 516 63 c 0
 453 63 409 81 383 115 c 1
 409 122 433 137 457 162 c 0
 483 189 498 218 504 248 c 0
 511 283 506 314 490 340 c 0
 475 366 450 379 416 379 c 0
 378 379 343 365 313 336 c 0
 283 307 264 273 256 233 c 0
 240 156 258 94 311 47 c 1
 362 9 425 -10 500 -10 c 0
 591 -10 672 18 743 74 c 0
 817 130 864 203 885 295 c 0
342 252 m 0
 346 272 355 290 370 305 c 0
 384 320 399 328 414 328 c 0
 429 328 440 320 447 305 c 0
 455 290 457 272 453 252 c 0
 449 231 439 214 425 199 c 0
 411 184 396 176 381 176 c 0
 366 176 355 184 347 199 c 0
 340 214 338 231 342 252 c 0
EndSplineSet
EndChar
StartChar: uni0E57
Encoding: 179 3671
OldEncoding: 3671
Width: 962
VWidth: 1000
Flags: W
HStem: -12 61<324 352> 205 51<383 394> 512 92<416 426 627 653>
VStem: 673 140<387 437>
Fore
1008 893 m 1
 924 909 l 1
 922 785 912 678 893 588 c 0
 883 544 871 499 857 453 c 0
 843 406 824 359 801 311 c 1
 809 347 813 382 813 416 c 0
 813 451 808 483 797 510 c 0
 786 537 769 560 745 578 c 0
 722 595 692 604 653 604 c 0
 630 604 607 598 585 586 c 0
 562 573 543 557 526 537 c 1
 520 557 509 574 495 587 c 0
 480 600 461 606 438 606 c 0
 399 606 362 597 329 578 c 0
 295 558 266 534 240 504 c 0
 214 474 192 440 175 403 c 0
 158 367 146 330 139 295 c 0
 131 258 129 221 132 184 c 0
 136 147 145 115 160 86 c 0
 175 57 196 34 223 15 c 0
 251 -3 284 -12 324 -12 c 0
 360 -12 392 1 419 29 c 0
 445 56 463 88 471 125 c 0
 478 158 474 188 460 215 c 0
 445 242 421 256 387 256 c 0
 362 256 340 248 318 232 c 0
 297 217 281 197 268 174 c 1
 268 190 270 209 273 229 c 0
 277 250 281 272 287 297 c 0
 289 312 295 332 303 356 c 0
 311 381 321 405 332 428 c 0
 343 451 356 471 371 487 c 0
 386 504 402 512 420 512 c 0
 450 512 464 471 461 389 c 1
 524 389 l 1
 564 471 598 512 627 512 c 0
 642 512 653 505 659 490 c 0
 666 476 671 459 673 438 c 0
 675 418 674 396 672 374 c 0
 669 351 666 332 664 315 c 0
 657 283 649 253 641 227 c 0
 633 201 624 177 613 155 c 0
 603 132 591 109 578 85 c 0
 564 61 547 35 528 6 c 1
 539 1 552 -4 566 -7 c 0
 581 -11 591 -12 598 -12 c 0
 609 -12 623 -10 639 -5 c 0
 655 -0 671 5 686 12 c 0
 836 83 936 238 985 475 c 0
 1000 541 1009 608 1013 677 c 0
 1016 746 1014 818 1008 893 c 1
319 127 m 0
 325 149 333 167 345 182 c 0
 357 197 370 205 385 205 c 0
 400 205 411 197 418 182 c 0
 425 167 425 149 420 127 c 0
 416 105 407 87 394 72 c 0
 381 57 367 49 352 49 c 0
 337 49 327 57 322 72 c 0
 316 87 315 105 319 127 c 0
EndSplineSet
MinimumDistance: x5,-1 
EndChar
StartChar: uni0E58
Encoding: 180 3672
OldEncoding: 3672
Width: 962
VWidth: 1000
Flags: W
HStem: 0 88<656 686> 125 147<416 424> 299 51<751 774> 436 127<759 788>
Fore
1063 938 m 1
 997 889 l 1
 993 844 l 1
 985 811 l 1
 971 744 950 689 922 647 c 0
 882 591 838 563 788 563 c 0
 769 563 740 567 700 575 c 0
 664 582 630 587 600 591 c 0
 570 594 541 596 514 596 c 0
 473 596 434 588 397 573 c 0
 360 558 327 538 297 513 c 0
 267 488 241 458 219 423 c 0
 197 388 182 350 174 309 c 0
 156 225 165 153 201 95 c 0
 236 37 298 3 387 -8 c 1
 384 10 382 27 380 43 c 0
 378 59 378 73 381 84 c 0
 384 95 388 104 393 113 c 0
 399 121 407 125 418 125 c 0
 431 125 466 103 520 59 c 0
 572 20 618 -0 657 0 c 0
 764 0 831 64 858 193 c 0
 881 298 853 350 774 350 c 0
 741 350 712 338 687 312 c 0
 662 287 646 257 639 221 c 0
 634 195 635 169 644 141 c 0
 653 114 670 97 696 90 c 1
 694 89 690 88 686 88 c 0
 656 88 611 118 551 178 c 0
 491 241 448 272 422 272 c 0
 395 272 371 263 350 244 c 0
 330 225 315 194 307 152 c 1
 281 180 275 225 289 287 c 0
 300 336 321 376 352 408 c 0
 384 439 421 455 465 455 c 2
 475 455 l 2
 482 455 488 455 494 455 c 0
 499 455 505 454 512 453 c 0
 535 450 555 448 571 447 c 0
 588 447 605 445 623 442 c 0
 639 440 658 438 679 437 c 0
 700 437 727 436 760 436 c 0
 910 436 1007 539 1051 743 c 0
 1056 769 1060 798 1063 829 c 0
 1066 861 1066 897 1063 938 c 1
690 225 m 0
 696 246 704 263 715 278 c 0
 726 292 738 299 752 299 c 0
 765 299 775 292 781 278 c 0
 787 263 788 246 782 225 c 0
 778 205 770 187 759 173 c 0
 747 159 735 152 721 152 c 0
 707 152 698 159 692 173 c 0
 687 187 686 205 690 225 c 0
EndSplineSet
EndChar
StartChar: uni0E59
Encoding: 181 3673
OldEncoding: 3673
Width: 962
VWidth: 1000
Flags: W
HStem: 0 21G<705 799> 219 51<475 493> 455 116<807 838> 504 100<696 721>
Fore
1055 936 m 1
 989 887 l 1
 991 883 992 872 992 855 c 0
 993 838 991 816 985 791 c 0
 980 767 972 743 963 719 c 0
 953 694 943 672 932 651 c 0
 917 624 901 604 885 591 c 0
 868 578 853 571 838 571 c 0
 814 571 795 577 780 588 c 0
 765 599 745 604 721 604 c 0
 699 604 678 599 658 588 c 0
 639 577 622 562 608 543 c 1
 584 585 545 606 492 606 c 0
 452 606 415 600 381 589 c 0
 347 577 313 558 281 530 c 0
 255 509 231 482 210 452 c 0
 189 421 174 385 166 344 c 1
 158 293 l 1
 152 195 167 119 202 67 c 0
 237 14 291 -12 367 -12 c 0
 424 -12 470 2 504 32 c 0
 538 61 559 97 567 139 c 0
 574 173 571 204 558 230 c 0
 545 257 522 270 489 270 c 0
 457 270 428 257 403 231 c 0
 379 205 362 175 354 139 c 0
 353 132 352 124 352 115 c 0
 352 105 352 98 352 94 c 1
 336 117 325 150 319 191 c 0
 314 233 316 286 326 350 c 1
 330 365 l 1
 338 403 355 437 380 467 c 0
 405 497 436 512 471 512 c 0
 509 512 537 472 555 393 c 0
 615 131 665 0 705 0 c 2
 799 0 l 1
 813 31 l 1
 779 48 752 88 731 148 c 0
 711 209 691 291 672 393 c 0
 672 397 671 408 670 424 c 0
 668 440 669 456 672 471 c 0
 677 493 685 504 696 504 c 0
 703 504 718 496 741 479 c 0
 762 463 784 455 807 455 c 0
 874 455 931 487 979 551 c 0
 1019 603 1044 662 1057 727 c 0
 1072 793 1071 862 1055 936 c 1
418 143 m 0
 422 164 430 182 442 197 c 0
 455 212 468 219 483 219 c 0
 498 219 509 212 515 197 c 0
 521 182 522 164 518 143 c 0
 514 123 506 105 493 91 c 0
 480 77 466 70 451 70 c 0
 436 70 425 77 420 91 c 0
 414 105 414 123 418 143 c 0
EndSplineSet
EndChar
StartChar: uni0E5A
Encoding: 182 3674
OldEncoding: 3674
Width: 997
VWidth: 1000
Flags: W
HStem: 0 21G<287 455 549 727> 461 133<309 319> 737 51<341 352>
DStem: 557 635 694 578 471 231 621 231 813 604 973 643 733 231 885 231
Fore
621 231 m 2
 694 578 l 2
 698 597 710 614 728 630 c 0
 746 645 767 653 788 653 c 0
 802 653 810 649 813 640 c 0
 816 631 816 619 813 604 c 1
 733 231 l 2
 729 214 723 194 714 171 c 0
 705 148 696 130 686 115 c 0
 675 102 657 86 632 66 c 0
 607 45 579 23 549 0 c 1
 727 0 l 1
 750 12 770 27 787 45 c 0
 805 63 821 82 836 102 c 0
 847 120 856 141 865 166 c 0
 874 190 881 212 885 231 c 2
 973 643 l 2
 978 668 979 689 974 707 c 0
 969 724 961 739 949 752 c 0
 938 764 924 773 907 779 c 0
 891 785 873 788 854 788 c 0
 834 788 810 784 783 776 c 0
 757 768 733 752 713 729 c 1
 707 748 696 763 678 773 c 0
 660 783 642 788 623 788 c 0
 598 788 577 784 560 775 c 0
 543 766 527 754 512 739 c 0
 502 731 493 719 482 701 c 0
 472 684 461 667 451 649 c 0
 431 612 414 586 397 571 c 0
 381 556 368 549 358 549 c 1
 375 557 389 571 402 591 c 0
 415 611 425 632 430 655 c 0
 437 691 434 722 422 749 c 0
 410 775 386 788 350 788 c 0
 311 788 276 775 247 749 c 0
 217 722 197 685 186 637 c 0
 177 592 183 551 206 515 c 0
 228 479 266 461 317 461 c 0
 341 461 361 464 378 471 c 0
 395 478 412 487 428 498 c 0
 435 503 445 513 460 527 c 0
 474 542 489 560 504 584 c 0
 528 625 544 645 551 645 c 0
 558 645 560 642 557 635 c 1
 471 231 l 2
 467 214 460 194 452 172 c 0
 443 150 433 132 422 117 c 1
 424 117 l 1
 413 104 395 88 371 67 c 0
 346 45 318 23 287 0 c 1
 455 0 l 1
 500 23 536 57 564 100 c 0
 592 144 611 188 621 231 c 2
274 666 m 0
 279 685 287 701 301 716 c 0
 315 730 329 737 344 737 c 0
 359 737 370 730 377 716 c 0
 384 701 385 685 381 666 c 0
 377 646 368 630 355 615 c 0
 342 601 328 594 313 594 c 0
 298 594 287 601 280 615 c 0
 272 630 270 646 274 666 c 0
EndSplineSet
MinimumDistance: x16,-1 
EndChar
StartChar: uni0E5B
Encoding: 183 3675
OldEncoding: 3675
Width: 2250
VWidth: 1000
Flags: W
HStem: 74 71<557 579> 305 68<1487 2134> 449 65<2143 2160> 453 51<603 615>
Fore
1489 305 m 2
 2118 305 l 2
 2149 305 2177 315 2202 335 c 0
 2226 355 2242 379 2249 408 c 0
 2256 436 2251 461 2234 482 c 0
 2218 503 2195 514 2167 514 c 2
 2157 514 l 2
 2139 514 2118 508 2093 497 c 0
 2068 485 2047 464 2030 434 c 1
 2056 416 l 1
 2062 423 2067 428 2073 431 c 0
 2078 435 2082 437 2085 438 c 0
 2092 442 2100 445 2109 446 c 0
 2119 448 2128 449 2136 449 c 2
 2154 449 l 2
 2163 449 2169 444 2174 436 c 0
 2179 428 2180 418 2177 408 c 0
 2174 398 2169 390 2161 383 c 0
 2152 376 2143 373 2132 373 c 2
 1511 373 l 2
 1492 373 1477 374 1464 376 c 0
 1452 378 1440 384 1427 395 c 0
 1418 403 1412 420 1410 444 c 0
 1408 469 1408 493 1409 516 c 1
 1374 518 l 1
 1319 410 l 1
 1298 629 l 1
 1178 389 l 1
 1159 649 l 1
 1114 588 l 1
 1026 383 l 1
 1018 688 l 1
 969 649 l 1
 928 554 891 475 858 415 c 0
 825 354 799 309 780 281 c 0
 753 237 722 203 686 180 c 0
 651 157 613 145 573 145 c 0
 545 145 521 153 502 167 c 0
 483 181 468 200 457 224 c 0
 446 248 440 274 438 303 c 0
 437 332 439 360 444 389 c 0
 450 412 459 438 471 467 c 0
 483 496 498 523 516 548 c 0
 534 573 554 594 577 611 c 0
 599 628 623 637 649 637 c 0
 671 637 688 631 701 620 c 0
 714 608 724 594 730 577 c 0
 736 559 740 541 740 522 c 0
 741 503 740 487 737 473 c 0
 735 459 730 444 724 426 c 0
 718 408 710 392 700 377 c 0
 691 362 680 349 669 337 c 0
 657 325 644 318 629 315 c 1
 656 337 672 365 678 397 c 0
 685 426 682 451 669 472 c 0
 656 493 635 504 606 504 c 0
 580 504 556 493 532 472 c 0
 509 451 494 426 487 397 c 0
 478 352 482 315 500 286 c 0
 517 256 552 242 602 242 c 0
 631 242 658 248 683 260 c 0
 708 272 731 289 751 309 c 0
 770 330 787 354 802 382 c 0
 816 410 827 440 834 471 c 0
 840 500 841 528 836 557 c 0
 830 586 820 612 806 635 c 0
 792 658 772 677 749 691 c 0
 725 706 697 713 666 713 c 0
 627 713 590 703 553 685 c 0
 516 667 482 642 452 612 c 0
 421 582 395 548 374 510 c 0
 353 472 338 432 330 391 c 0
 320 346 318 304 325 265 c 0
 331 226 344 193 365 165 c 0
 385 137 412 115 445 98 c 0
 479 82 517 74 559 74 c 0
 600 74 638 81 672 95 c 0
 706 110 740 132 774 164 c 0
 796 184 821 217 850 261 c 0
 879 305 909 360 942 426 c 1
 952 121 l 1
 999 150 l 1
 1094 369 l 1
 1112 104 l 1
 1237 360 l 1
 1257 156 l 1
 1362 354 l 1
 1384 322 1426 305 1489 305 c 2
571 403 m 0
 574 417 579 429 587 438 c 0
 594 448 602 453 610 453 c 0
 618 453 624 448 628 438 c 0
 631 429 631 417 629 403 c 0
 626 390 621 379 613 370 c 0
 606 361 598 356 590 356 c 0
 582 356 576 361 572 370 c 0
 569 379 569 390 571 403 c 0
EndSplineSet
EndChar
StartChar: zerospace
Encoding: 184 8203
OldEncoding: 8203
Width: 1064
VWidth: 1000
Flags: W
HStem: 0 80<271 817>
DStem: 147 80 205 -63 80 -244 168 -244 874 -70 993 80 838 -244 926 -244
Fore
926 -244 m 1
 838 -244 l 1
 874 -70 l 1
 883 -23 860 -0 807 0 c 2
 287 0 l 2
 242 0 214 -21 205 -63 c 1
 168 -244 l 1
 80 -244 l 1
 147 80 l 1
 993 80 l 1
 926 -244 l 1
EndSplineSet
MinimumDistance: x9,-1 
EndChar
StartChar: endash
Encoding: 185 8211
OldEncoding: 8211
Width: 1128
VWidth: 1000
Flags: W
HStem: 229 70<149 1075>
Fore
1075 229 m 1
 135 229 l 1
 150 299 l 1
 1090 299 l 1
 1075 229 l 1
EndSplineSet
EndChar
StartChar: emdash
Encoding: 186 8212
OldEncoding: 8212
Width: 2256
VWidth: 1000
Flags: W
HStem: 229 70<149 2101>
Fore
2101 229 m 1
 135 229 l 1
 150 299 l 1
 2116 299 l 1
 2101 229 l 1
EndSplineSet
EndChar
